G04 #@! TF.GenerationSoftware,KiCad,Pcbnew,(5.1.0)-1*
G04 #@! TF.CreationDate,2020-05-10T15:52:08-07:00*
G04 #@! TF.ProjectId,short-final,73686f72-742d-4666-996e-616c2e6b6963,A*
G04 #@! TF.SameCoordinates,Original*
G04 #@! TF.FileFunction,Copper,L2,Bot*
G04 #@! TF.FilePolarity,Positive*
%FSLAX46Y46*%
G04 Gerber Fmt 4.6, Leading zero omitted, Abs format (unit mm)*
G04 Created by KiCad (PCBNEW (5.1.0)-1) date 2020-05-10 15:52:08*
%MOMM*%
%LPD*%
G04 APERTURE LIST*
%ADD10C,0.100000*%
%ADD11C,0.150000*%
%ADD12C,0.300000*%
%ADD13C,0.400000*%
%ADD14C,0.590000*%
%ADD15C,1.500000*%
%ADD16C,0.800000*%
%ADD17C,0.250000*%
G04 APERTURE END LIST*
D10*
D11*
X311800000Y-235400000D02*
X311800000Y-267400000D01*
X419800000Y-267400000D01*
X419800000Y-235400000D01*
X311800000Y-235400000D01*
D10*
D11*
X10000000Y-10000000D02*
X10000000Y-269400000D01*
X421800000Y-269400000D01*
X421800000Y-10000000D01*
X10000000Y-10000000D01*
D10*
D11*
X12000000Y-12000000D02*
X12000000Y-267400000D01*
X419800000Y-267400000D01*
X419800000Y-12000000D01*
X12000000Y-12000000D01*
D10*
D11*
X60000000Y-12000000D02*
X60000000Y-10000000D01*
D10*
D11*
X110000000Y-12000000D02*
X110000000Y-10000000D01*
D10*
D11*
X160000000Y-12000000D02*
X160000000Y-10000000D01*
D10*
D11*
X210000000Y-12000000D02*
X210000000Y-10000000D01*
D10*
D11*
X260000000Y-12000000D02*
X260000000Y-10000000D01*
D10*
D11*
X310000000Y-12000000D02*
X310000000Y-10000000D01*
D10*
D11*
X360000000Y-12000000D02*
X360000000Y-10000000D01*
D10*
D11*
X410000000Y-12000000D02*
X410000000Y-10000000D01*
D10*
D11*
X36065476Y-11588095D02*
X35322619Y-11588095D01*
X35694047Y-11588095D02*
X35694047Y-10288095D01*
X35570238Y-10473809D01*
X35446428Y-10597619D01*
X35322619Y-10659523D01*
D10*
D11*
X85322619Y-10411904D02*
X85384523Y-10350000D01*
X85508333Y-10288095D01*
X85817857Y-10288095D01*
X85941666Y-10350000D01*
X86003571Y-10411904D01*
X86065476Y-10535714D01*
X86065476Y-10659523D01*
X86003571Y-10845238D01*
X85260714Y-11588095D01*
X86065476Y-11588095D01*
D10*
D11*
X135260714Y-10288095D02*
X136065476Y-10288095D01*
X135632142Y-10783333D01*
X135817857Y-10783333D01*
X135941666Y-10845238D01*
X136003571Y-10907142D01*
X136065476Y-11030952D01*
X136065476Y-11340476D01*
X136003571Y-11464285D01*
X135941666Y-11526190D01*
X135817857Y-11588095D01*
X135446428Y-11588095D01*
X135322619Y-11526190D01*
X135260714Y-11464285D01*
D10*
D11*
X185941666Y-10721428D02*
X185941666Y-11588095D01*
X185632142Y-10226190D02*
X185322619Y-11154761D01*
X186127380Y-11154761D01*
D10*
D11*
X236003571Y-10288095D02*
X235384523Y-10288095D01*
X235322619Y-10907142D01*
X235384523Y-10845238D01*
X235508333Y-10783333D01*
X235817857Y-10783333D01*
X235941666Y-10845238D01*
X236003571Y-10907142D01*
X236065476Y-11030952D01*
X236065476Y-11340476D01*
X236003571Y-11464285D01*
X235941666Y-11526190D01*
X235817857Y-11588095D01*
X235508333Y-11588095D01*
X235384523Y-11526190D01*
X235322619Y-11464285D01*
D10*
D11*
X285941666Y-10288095D02*
X285694047Y-10288095D01*
X285570238Y-10350000D01*
X285508333Y-10411904D01*
X285384523Y-10597619D01*
X285322619Y-10845238D01*
X285322619Y-11340476D01*
X285384523Y-11464285D01*
X285446428Y-11526190D01*
X285570238Y-11588095D01*
X285817857Y-11588095D01*
X285941666Y-11526190D01*
X286003571Y-11464285D01*
X286065476Y-11340476D01*
X286065476Y-11030952D01*
X286003571Y-10907142D01*
X285941666Y-10845238D01*
X285817857Y-10783333D01*
X285570238Y-10783333D01*
X285446428Y-10845238D01*
X285384523Y-10907142D01*
X285322619Y-11030952D01*
D10*
D11*
X335260714Y-10288095D02*
X336127380Y-10288095D01*
X335570238Y-11588095D01*
D10*
D11*
X385570238Y-10845238D02*
X385446428Y-10783333D01*
X385384523Y-10721428D01*
X385322619Y-10597619D01*
X385322619Y-10535714D01*
X385384523Y-10411904D01*
X385446428Y-10350000D01*
X385570238Y-10288095D01*
X385817857Y-10288095D01*
X385941666Y-10350000D01*
X386003571Y-10411904D01*
X386065476Y-10535714D01*
X386065476Y-10597619D01*
X386003571Y-10721428D01*
X385941666Y-10783333D01*
X385817857Y-10845238D01*
X385570238Y-10845238D01*
X385446428Y-10907142D01*
X385384523Y-10969047D01*
X385322619Y-11092857D01*
X385322619Y-11340476D01*
X385384523Y-11464285D01*
X385446428Y-11526190D01*
X385570238Y-11588095D01*
X385817857Y-11588095D01*
X385941666Y-11526190D01*
X386003571Y-11464285D01*
X386065476Y-11340476D01*
X386065476Y-11092857D01*
X386003571Y-10969047D01*
X385941666Y-10907142D01*
X385817857Y-10845238D01*
D10*
D11*
X60000000Y-267400000D02*
X60000000Y-269400000D01*
D10*
D11*
X110000000Y-267400000D02*
X110000000Y-269400000D01*
D10*
D11*
X160000000Y-267400000D02*
X160000000Y-269400000D01*
D10*
D11*
X210000000Y-267400000D02*
X210000000Y-269400000D01*
D10*
D11*
X260000000Y-267400000D02*
X260000000Y-269400000D01*
D10*
D11*
X310000000Y-267400000D02*
X310000000Y-269400000D01*
D10*
D11*
X360000000Y-267400000D02*
X360000000Y-269400000D01*
D10*
D11*
X410000000Y-267400000D02*
X410000000Y-269400000D01*
D10*
D11*
X36065476Y-268988095D02*
X35322619Y-268988095D01*
X35694047Y-268988095D02*
X35694047Y-267688095D01*
X35570238Y-267873809D01*
X35446428Y-267997619D01*
X35322619Y-268059523D01*
D10*
D11*
X85322619Y-267811904D02*
X85384523Y-267750000D01*
X85508333Y-267688095D01*
X85817857Y-267688095D01*
X85941666Y-267750000D01*
X86003571Y-267811904D01*
X86065476Y-267935714D01*
X86065476Y-268059523D01*
X86003571Y-268245238D01*
X85260714Y-268988095D01*
X86065476Y-268988095D01*
D10*
D11*
X135260714Y-267688095D02*
X136065476Y-267688095D01*
X135632142Y-268183333D01*
X135817857Y-268183333D01*
X135941666Y-268245238D01*
X136003571Y-268307142D01*
X136065476Y-268430952D01*
X136065476Y-268740476D01*
X136003571Y-268864285D01*
X135941666Y-268926190D01*
X135817857Y-268988095D01*
X135446428Y-268988095D01*
X135322619Y-268926190D01*
X135260714Y-268864285D01*
D10*
D11*
X185941666Y-268121428D02*
X185941666Y-268988095D01*
X185632142Y-267626190D02*
X185322619Y-268554761D01*
X186127380Y-268554761D01*
D10*
D11*
X236003571Y-267688095D02*
X235384523Y-267688095D01*
X235322619Y-268307142D01*
X235384523Y-268245238D01*
X235508333Y-268183333D01*
X235817857Y-268183333D01*
X235941666Y-268245238D01*
X236003571Y-268307142D01*
X236065476Y-268430952D01*
X236065476Y-268740476D01*
X236003571Y-268864285D01*
X235941666Y-268926190D01*
X235817857Y-268988095D01*
X235508333Y-268988095D01*
X235384523Y-268926190D01*
X235322619Y-268864285D01*
D10*
D11*
X285941666Y-267688095D02*
X285694047Y-267688095D01*
X285570238Y-267750000D01*
X285508333Y-267811904D01*
X285384523Y-267997619D01*
X285322619Y-268245238D01*
X285322619Y-268740476D01*
X285384523Y-268864285D01*
X285446428Y-268926190D01*
X285570238Y-268988095D01*
X285817857Y-268988095D01*
X285941666Y-268926190D01*
X286003571Y-268864285D01*
X286065476Y-268740476D01*
X286065476Y-268430952D01*
X286003571Y-268307142D01*
X285941666Y-268245238D01*
X285817857Y-268183333D01*
X285570238Y-268183333D01*
X285446428Y-268245238D01*
X285384523Y-268307142D01*
X285322619Y-268430952D01*
D10*
D11*
X335260714Y-267688095D02*
X336127380Y-267688095D01*
X335570238Y-268988095D01*
D10*
D11*
X385570238Y-268245238D02*
X385446428Y-268183333D01*
X385384523Y-268121428D01*
X385322619Y-267997619D01*
X385322619Y-267935714D01*
X385384523Y-267811904D01*
X385446428Y-267750000D01*
X385570238Y-267688095D01*
X385817857Y-267688095D01*
X385941666Y-267750000D01*
X386003571Y-267811904D01*
X386065476Y-267935714D01*
X386065476Y-267997619D01*
X386003571Y-268121428D01*
X385941666Y-268183333D01*
X385817857Y-268245238D01*
X385570238Y-268245238D01*
X385446428Y-268307142D01*
X385384523Y-268369047D01*
X385322619Y-268492857D01*
X385322619Y-268740476D01*
X385384523Y-268864285D01*
X385446428Y-268926190D01*
X385570238Y-268988095D01*
X385817857Y-268988095D01*
X385941666Y-268926190D01*
X386003571Y-268864285D01*
X386065476Y-268740476D01*
X386065476Y-268492857D01*
X386003571Y-268369047D01*
X385941666Y-268307142D01*
X385817857Y-268245238D01*
D10*
D11*
X10000000Y-60000000D02*
X12000000Y-60000000D01*
D10*
D11*
X10000000Y-110000000D02*
X12000000Y-110000000D01*
D10*
D11*
X10000000Y-160000000D02*
X12000000Y-160000000D01*
D10*
D11*
X10000000Y-210000000D02*
X12000000Y-210000000D01*
D10*
D11*
X10000000Y-260000000D02*
X12000000Y-260000000D01*
D10*
D11*
X10690476Y-35216666D02*
X11309523Y-35216666D01*
X10566666Y-35588095D02*
X11000000Y-34288095D01*
X11433333Y-35588095D01*
D10*
D11*
X11092857Y-84907142D02*
X11278571Y-84969047D01*
X11340476Y-85030952D01*
X11402380Y-85154761D01*
X11402380Y-85340476D01*
X11340476Y-85464285D01*
X11278571Y-85526190D01*
X11154761Y-85588095D01*
X10659523Y-85588095D01*
X10659523Y-84288095D01*
X11092857Y-84288095D01*
X11216666Y-84350000D01*
X11278571Y-84411904D01*
X11340476Y-84535714D01*
X11340476Y-84659523D01*
X11278571Y-84783333D01*
X11216666Y-84845238D01*
X11092857Y-84907142D01*
X10659523Y-84907142D01*
D10*
D11*
X11402380Y-135464285D02*
X11340476Y-135526190D01*
X11154761Y-135588095D01*
X11030952Y-135588095D01*
X10845238Y-135526190D01*
X10721428Y-135402380D01*
X10659523Y-135278571D01*
X10597619Y-135030952D01*
X10597619Y-134845238D01*
X10659523Y-134597619D01*
X10721428Y-134473809D01*
X10845238Y-134350000D01*
X11030952Y-134288095D01*
X11154761Y-134288095D01*
X11340476Y-134350000D01*
X11402380Y-134411904D01*
D10*
D11*
X10659523Y-185588095D02*
X10659523Y-184288095D01*
X10969047Y-184288095D01*
X11154761Y-184350000D01*
X11278571Y-184473809D01*
X11340476Y-184597619D01*
X11402380Y-184845238D01*
X11402380Y-185030952D01*
X11340476Y-185278571D01*
X11278571Y-185402380D01*
X11154761Y-185526190D01*
X10969047Y-185588095D01*
X10659523Y-185588095D01*
D10*
D11*
X10721428Y-234907142D02*
X11154761Y-234907142D01*
X11340476Y-235588095D02*
X10721428Y-235588095D01*
X10721428Y-234288095D01*
X11340476Y-234288095D01*
D10*
D11*
X421800000Y-60000000D02*
X419800000Y-60000000D01*
D10*
D11*
X421800000Y-110000000D02*
X419800000Y-110000000D01*
D10*
D11*
X421800000Y-160000000D02*
X419800000Y-160000000D01*
D10*
D11*
X421800000Y-210000000D02*
X419800000Y-210000000D01*
D10*
D11*
X421800000Y-260000000D02*
X419800000Y-260000000D01*
D10*
D11*
X420490476Y-35216666D02*
X421109523Y-35216666D01*
X420366666Y-35588095D02*
X420800000Y-34288095D01*
X421233333Y-35588095D01*
D10*
D11*
X420892857Y-84907142D02*
X421078571Y-84969047D01*
X421140476Y-85030952D01*
X421202380Y-85154761D01*
X421202380Y-85340476D01*
X421140476Y-85464285D01*
X421078571Y-85526190D01*
X420954761Y-85588095D01*
X420459523Y-85588095D01*
X420459523Y-84288095D01*
X420892857Y-84288095D01*
X421016666Y-84350000D01*
X421078571Y-84411904D01*
X421140476Y-84535714D01*
X421140476Y-84659523D01*
X421078571Y-84783333D01*
X421016666Y-84845238D01*
X420892857Y-84907142D01*
X420459523Y-84907142D01*
D10*
D11*
X421202380Y-135464285D02*
X421140476Y-135526190D01*
X420954761Y-135588095D01*
X420830952Y-135588095D01*
X420645238Y-135526190D01*
X420521428Y-135402380D01*
X420459523Y-135278571D01*
X420397619Y-135030952D01*
X420397619Y-134845238D01*
X420459523Y-134597619D01*
X420521428Y-134473809D01*
X420645238Y-134350000D01*
X420830952Y-134288095D01*
X420954761Y-134288095D01*
X421140476Y-134350000D01*
X421202380Y-134411904D01*
D10*
D11*
X420459523Y-185588095D02*
X420459523Y-184288095D01*
X420769047Y-184288095D01*
X420954761Y-184350000D01*
X421078571Y-184473809D01*
X421140476Y-184597619D01*
X421202380Y-184845238D01*
X421202380Y-185030952D01*
X421140476Y-185278571D01*
X421078571Y-185402380D01*
X420954761Y-185526190D01*
X420769047Y-185588095D01*
X420459523Y-185588095D01*
D10*
D11*
X420521428Y-234907142D02*
X420954761Y-234907142D01*
X421140476Y-235588095D02*
X420521428Y-235588095D01*
X420521428Y-234288095D01*
X421140476Y-234288095D01*
D10*
D11*
X335232142Y-263178571D02*
X335232142Y-261678571D01*
X335589285Y-261678571D01*
X335803571Y-261750000D01*
X335946428Y-261892857D01*
X336017857Y-262035714D01*
X336089285Y-262321428D01*
X336089285Y-262535714D01*
X336017857Y-262821428D01*
X335946428Y-262964285D01*
X335803571Y-263107142D01*
X335589285Y-263178571D01*
X335232142Y-263178571D01*
X337375000Y-263178571D02*
X337375000Y-262392857D01*
X337303571Y-262250000D01*
X337160714Y-262178571D01*
X336875000Y-262178571D01*
X336732142Y-262250000D01*
X337375000Y-263107142D02*
X337232142Y-263178571D01*
X336875000Y-263178571D01*
X336732142Y-263107142D01*
X336660714Y-262964285D01*
X336660714Y-262821428D01*
X336732142Y-262678571D01*
X336875000Y-262607142D01*
X337232142Y-262607142D01*
X337375000Y-262535714D01*
X337875000Y-262178571D02*
X338446428Y-262178571D01*
X338089285Y-261678571D02*
X338089285Y-262964285D01*
X338160714Y-263107142D01*
X338303571Y-263178571D01*
X338446428Y-263178571D01*
X339517857Y-263107142D02*
X339375000Y-263178571D01*
X339089285Y-263178571D01*
X338946428Y-263107142D01*
X338875000Y-262964285D01*
X338875000Y-262392857D01*
X338946428Y-262250000D01*
X339089285Y-262178571D01*
X339375000Y-262178571D01*
X339517857Y-262250000D01*
X339589285Y-262392857D01*
X339589285Y-262535714D01*
X338875000Y-262678571D01*
X340232142Y-263035714D02*
X340303571Y-263107142D01*
X340232142Y-263178571D01*
X340160714Y-263107142D01*
X340232142Y-263035714D01*
X340232142Y-263178571D01*
X340232142Y-262250000D02*
X340303571Y-262321428D01*
X340232142Y-262392857D01*
X340160714Y-262321428D01*
X340232142Y-262250000D01*
X340232142Y-262392857D01*
X342017857Y-261821428D02*
X342089285Y-261750000D01*
X342232142Y-261678571D01*
X342589285Y-261678571D01*
X342732142Y-261750000D01*
X342803571Y-261821428D01*
X342875000Y-261964285D01*
X342875000Y-262107142D01*
X342803571Y-262321428D01*
X341946428Y-263178571D01*
X342875000Y-263178571D01*
X343803571Y-261678571D02*
X343946428Y-261678571D01*
X344089285Y-261750000D01*
X344160714Y-261821428D01*
X344232142Y-261964285D01*
X344303571Y-262250000D01*
X344303571Y-262607142D01*
X344232142Y-262892857D01*
X344160714Y-263035714D01*
X344089285Y-263107142D01*
X343946428Y-263178571D01*
X343803571Y-263178571D01*
X343660714Y-263107142D01*
X343589285Y-263035714D01*
X343517857Y-262892857D01*
X343446428Y-262607142D01*
X343446428Y-262250000D01*
X343517857Y-261964285D01*
X343589285Y-261821428D01*
X343660714Y-261750000D01*
X343803571Y-261678571D01*
X344875000Y-261821428D02*
X344946428Y-261750000D01*
X345089285Y-261678571D01*
X345446428Y-261678571D01*
X345589285Y-261750000D01*
X345660714Y-261821428D01*
X345732142Y-261964285D01*
X345732142Y-262107142D01*
X345660714Y-262321428D01*
X344803571Y-263178571D01*
X345732142Y-263178571D01*
X346660714Y-261678571D02*
X346803571Y-261678571D01*
X346946428Y-261750000D01*
X347017857Y-261821428D01*
X347089285Y-261964285D01*
X347160714Y-262250000D01*
X347160714Y-262607142D01*
X347089285Y-262892857D01*
X347017857Y-263035714D01*
X346946428Y-263107142D01*
X346803571Y-263178571D01*
X346660714Y-263178571D01*
X346517857Y-263107142D01*
X346446428Y-263035714D01*
X346375000Y-262892857D01*
X346303571Y-262607142D01*
X346303571Y-262250000D01*
X346375000Y-261964285D01*
X346446428Y-261821428D01*
X346517857Y-261750000D01*
X346660714Y-261678571D01*
X347803571Y-262607142D02*
X348946428Y-262607142D01*
X349946428Y-261678571D02*
X350089285Y-261678571D01*
X350232142Y-261750000D01*
X350303571Y-261821428D01*
X350375000Y-261964285D01*
X350446428Y-262250000D01*
X350446428Y-262607142D01*
X350375000Y-262892857D01*
X350303571Y-263035714D01*
X350232142Y-263107142D01*
X350089285Y-263178571D01*
X349946428Y-263178571D01*
X349803571Y-263107142D01*
X349732142Y-263035714D01*
X349660714Y-262892857D01*
X349589285Y-262607142D01*
X349589285Y-262250000D01*
X349660714Y-261964285D01*
X349732142Y-261821428D01*
X349803571Y-261750000D01*
X349946428Y-261678571D01*
X351803571Y-261678571D02*
X351089285Y-261678571D01*
X351017857Y-262392857D01*
X351089285Y-262321428D01*
X351232142Y-262250000D01*
X351589285Y-262250000D01*
X351732142Y-262321428D01*
X351803571Y-262392857D01*
X351875000Y-262535714D01*
X351875000Y-262892857D01*
X351803571Y-263035714D01*
X351732142Y-263107142D01*
X351589285Y-263178571D01*
X351232142Y-263178571D01*
X351089285Y-263107142D01*
X351017857Y-263035714D01*
X352517857Y-262607142D02*
X353660714Y-262607142D01*
X355160714Y-263178571D02*
X354303571Y-263178571D01*
X354732142Y-263178571D02*
X354732142Y-261678571D01*
X354589285Y-261892857D01*
X354446428Y-262035714D01*
X354303571Y-262107142D01*
X356089285Y-261678571D02*
X356232142Y-261678571D01*
X356375000Y-261750000D01*
X356446428Y-261821428D01*
X356517857Y-261964285D01*
X356589285Y-262250000D01*
X356589285Y-262607142D01*
X356517857Y-262892857D01*
X356446428Y-263035714D01*
X356375000Y-263107142D01*
X356232142Y-263178571D01*
X356089285Y-263178571D01*
X355946428Y-263107142D01*
X355875000Y-263035714D01*
X355803571Y-262892857D01*
X355732142Y-262607142D01*
X355732142Y-262250000D01*
X355803571Y-261964285D01*
X355875000Y-261821428D01*
X355946428Y-261750000D01*
X356089285Y-261678571D01*
D10*
D11*
X311800000Y-263900000D02*
X419800000Y-263900000D01*
D10*
D11*
X313232142Y-265978571D02*
X313232142Y-264478571D01*
X314089285Y-265978571D02*
X313446428Y-265121428D01*
X314089285Y-264478571D02*
X313232142Y-265335714D01*
X314732142Y-265978571D02*
X314732142Y-264978571D01*
X314732142Y-264478571D02*
X314660714Y-264550000D01*
X314732142Y-264621428D01*
X314803571Y-264550000D01*
X314732142Y-264478571D01*
X314732142Y-264621428D01*
X316303571Y-265835714D02*
X316232142Y-265907142D01*
X316017857Y-265978571D01*
X315875000Y-265978571D01*
X315660714Y-265907142D01*
X315517857Y-265764285D01*
X315446428Y-265621428D01*
X315375000Y-265335714D01*
X315375000Y-265121428D01*
X315446428Y-264835714D01*
X315517857Y-264692857D01*
X315660714Y-264550000D01*
X315875000Y-264478571D01*
X316017857Y-264478571D01*
X316232142Y-264550000D01*
X316303571Y-264621428D01*
X317589285Y-265978571D02*
X317589285Y-265192857D01*
X317517857Y-265050000D01*
X317375000Y-264978571D01*
X317089285Y-264978571D01*
X316946428Y-265050000D01*
X317589285Y-265907142D02*
X317446428Y-265978571D01*
X317089285Y-265978571D01*
X316946428Y-265907142D01*
X316875000Y-265764285D01*
X316875000Y-265621428D01*
X316946428Y-265478571D01*
X317089285Y-265407142D01*
X317446428Y-265407142D01*
X317589285Y-265335714D01*
X318946428Y-265978571D02*
X318946428Y-264478571D01*
X318946428Y-265907142D02*
X318803571Y-265978571D01*
X318517857Y-265978571D01*
X318375000Y-265907142D01*
X318303571Y-265835714D01*
X318232142Y-265692857D01*
X318232142Y-265264285D01*
X318303571Y-265121428D01*
X318375000Y-265050000D01*
X318517857Y-264978571D01*
X318803571Y-264978571D01*
X318946428Y-265050000D01*
X320803571Y-265192857D02*
X321303571Y-265192857D01*
X321517857Y-265978571D02*
X320803571Y-265978571D01*
X320803571Y-264478571D01*
X321517857Y-264478571D01*
X322160714Y-265835714D02*
X322232142Y-265907142D01*
X322160714Y-265978571D01*
X322089285Y-265907142D01*
X322160714Y-265835714D01*
X322160714Y-265978571D01*
X322875000Y-265978571D02*
X322875000Y-264478571D01*
X323232142Y-264478571D01*
X323446428Y-264550000D01*
X323589285Y-264692857D01*
X323660714Y-264835714D01*
X323732142Y-265121428D01*
X323732142Y-265335714D01*
X323660714Y-265621428D01*
X323589285Y-265764285D01*
X323446428Y-265907142D01*
X323232142Y-265978571D01*
X322875000Y-265978571D01*
X324375000Y-265835714D02*
X324446428Y-265907142D01*
X324375000Y-265978571D01*
X324303571Y-265907142D01*
X324375000Y-265835714D01*
X324375000Y-265978571D01*
X325017857Y-265550000D02*
X325732142Y-265550000D01*
X324875000Y-265978571D02*
X325375000Y-264478571D01*
X325875000Y-265978571D01*
X326375000Y-265835714D02*
X326446428Y-265907142D01*
X326375000Y-265978571D01*
X326303571Y-265907142D01*
X326375000Y-265835714D01*
X326375000Y-265978571D01*
X329375000Y-265978571D02*
X329375000Y-264478571D01*
X329517857Y-265407142D02*
X329946428Y-265978571D01*
X329946428Y-264978571D02*
X329375000Y-265550000D01*
X330589285Y-265978571D02*
X330589285Y-264978571D01*
X330589285Y-264478571D02*
X330517857Y-264550000D01*
X330589285Y-264621428D01*
X330660714Y-264550000D01*
X330589285Y-264478571D01*
X330589285Y-264621428D01*
X331946428Y-265907142D02*
X331803571Y-265978571D01*
X331517857Y-265978571D01*
X331375000Y-265907142D01*
X331303571Y-265835714D01*
X331232142Y-265692857D01*
X331232142Y-265264285D01*
X331303571Y-265121428D01*
X331375000Y-265050000D01*
X331517857Y-264978571D01*
X331803571Y-264978571D01*
X331946428Y-265050000D01*
X333232142Y-265978571D02*
X333232142Y-265192857D01*
X333160714Y-265050000D01*
X333017857Y-264978571D01*
X332732142Y-264978571D01*
X332589285Y-265050000D01*
X333232142Y-265907142D02*
X333089285Y-265978571D01*
X332732142Y-265978571D01*
X332589285Y-265907142D01*
X332517857Y-265764285D01*
X332517857Y-265621428D01*
X332589285Y-265478571D01*
X332732142Y-265407142D01*
X333089285Y-265407142D01*
X333232142Y-265335714D01*
X334589285Y-265978571D02*
X334589285Y-264478571D01*
X334589285Y-265907142D02*
X334446428Y-265978571D01*
X334160714Y-265978571D01*
X334017857Y-265907142D01*
X333946428Y-265835714D01*
X333875000Y-265692857D01*
X333875000Y-265264285D01*
X333946428Y-265121428D01*
X334017857Y-265050000D01*
X334160714Y-264978571D01*
X334446428Y-264978571D01*
X334589285Y-265050000D01*
X336875000Y-266550000D02*
X336803571Y-266478571D01*
X336660714Y-266264285D01*
X336589285Y-266121428D01*
X336517857Y-265907142D01*
X336446428Y-265550000D01*
X336446428Y-265264285D01*
X336517857Y-264907142D01*
X336589285Y-264692857D01*
X336660714Y-264550000D01*
X336803571Y-264335714D01*
X336875000Y-264264285D01*
X338160714Y-264478571D02*
X337446428Y-264478571D01*
X337375000Y-265192857D01*
X337446428Y-265121428D01*
X337589285Y-265050000D01*
X337946428Y-265050000D01*
X338089285Y-265121428D01*
X338160714Y-265192857D01*
X338232142Y-265335714D01*
X338232142Y-265692857D01*
X338160714Y-265835714D01*
X338089285Y-265907142D01*
X337946428Y-265978571D01*
X337589285Y-265978571D01*
X337446428Y-265907142D01*
X337375000Y-265835714D01*
X338875000Y-265835714D02*
X338946428Y-265907142D01*
X338875000Y-265978571D01*
X338803571Y-265907142D01*
X338875000Y-265835714D01*
X338875000Y-265978571D01*
X340375000Y-265978571D02*
X339517857Y-265978571D01*
X339946428Y-265978571D02*
X339946428Y-264478571D01*
X339803571Y-264692857D01*
X339660714Y-264835714D01*
X339517857Y-264907142D01*
X341017857Y-265835714D02*
X341089285Y-265907142D01*
X341017857Y-265978571D01*
X340946428Y-265907142D01*
X341017857Y-265835714D01*
X341017857Y-265978571D01*
X342017857Y-264478571D02*
X342160714Y-264478571D01*
X342303571Y-264550000D01*
X342375000Y-264621428D01*
X342446428Y-264764285D01*
X342517857Y-265050000D01*
X342517857Y-265407142D01*
X342446428Y-265692857D01*
X342375000Y-265835714D01*
X342303571Y-265907142D01*
X342160714Y-265978571D01*
X342017857Y-265978571D01*
X341875000Y-265907142D01*
X341803571Y-265835714D01*
X341732142Y-265692857D01*
X341660714Y-265407142D01*
X341660714Y-265050000D01*
X341732142Y-264764285D01*
X341803571Y-264621428D01*
X341875000Y-264550000D01*
X342017857Y-264478571D01*
X343017857Y-266550000D02*
X343089285Y-266478571D01*
X343232142Y-266264285D01*
X343303571Y-266121428D01*
X343375000Y-265907142D01*
X343446428Y-265550000D01*
X343446428Y-265264285D01*
X343375000Y-264907142D01*
X343303571Y-264692857D01*
X343232142Y-264550000D01*
X343089285Y-264335714D01*
X343017857Y-264264285D01*
X344160714Y-265407142D02*
X345303571Y-265407142D01*
X346803571Y-265978571D02*
X345946428Y-265978571D01*
X346375000Y-265978571D02*
X346375000Y-264478571D01*
X346232142Y-264692857D01*
X346089285Y-264835714D01*
X345946428Y-264907142D01*
D10*
D11*
X311800000Y-260900000D02*
X419800000Y-260900000D01*
D10*
D12*
X399209285Y-263178571D02*
X398709285Y-262464285D01*
X398352142Y-263178571D02*
X398352142Y-261678571D01*
X398923571Y-261678571D01*
X399066428Y-261750000D01*
X399137857Y-261821428D01*
X399209285Y-261964285D01*
X399209285Y-262178571D01*
X399137857Y-262321428D01*
X399066428Y-262392857D01*
X398923571Y-262464285D01*
X398352142Y-262464285D01*
X400423571Y-263107142D02*
X400280714Y-263178571D01*
X399995000Y-263178571D01*
X399852142Y-263107142D01*
X399780714Y-262964285D01*
X399780714Y-262392857D01*
X399852142Y-262250000D01*
X399995000Y-262178571D01*
X400280714Y-262178571D01*
X400423571Y-262250000D01*
X400495000Y-262392857D01*
X400495000Y-262535714D01*
X399780714Y-262678571D01*
X400995000Y-262178571D02*
X401352142Y-263178571D01*
X401709285Y-262178571D01*
X402280714Y-263035714D02*
X402352142Y-263107142D01*
X402280714Y-263178571D01*
X402209285Y-263107142D01*
X402280714Y-263035714D01*
X402280714Y-263178571D01*
X402280714Y-262250000D02*
X402352142Y-262321428D01*
X402280714Y-262392857D01*
X402209285Y-262321428D01*
X402280714Y-262250000D01*
X402280714Y-262392857D01*
X404066428Y-262750000D02*
X404780714Y-262750000D01*
X403923571Y-263178571D02*
X404423571Y-261678571D01*
X404923571Y-263178571D01*
D10*
D11*
X313160714Y-263107142D02*
X313375000Y-263178571D01*
X313732142Y-263178571D01*
X313875000Y-263107142D01*
X313946428Y-263035714D01*
X314017857Y-262892857D01*
X314017857Y-262750000D01*
X313946428Y-262607142D01*
X313875000Y-262535714D01*
X313732142Y-262464285D01*
X313446428Y-262392857D01*
X313303571Y-262321428D01*
X313232142Y-262250000D01*
X313160714Y-262107142D01*
X313160714Y-261964285D01*
X313232142Y-261821428D01*
X313303571Y-261750000D01*
X313446428Y-261678571D01*
X313803571Y-261678571D01*
X314017857Y-261750000D01*
X314660714Y-263178571D02*
X314660714Y-262178571D01*
X314660714Y-261678571D02*
X314589285Y-261750000D01*
X314660714Y-261821428D01*
X314732142Y-261750000D01*
X314660714Y-261678571D01*
X314660714Y-261821428D01*
X315232142Y-262178571D02*
X316017857Y-262178571D01*
X315232142Y-263178571D01*
X316017857Y-263178571D01*
X317160714Y-263107142D02*
X317017857Y-263178571D01*
X316732142Y-263178571D01*
X316589285Y-263107142D01*
X316517857Y-262964285D01*
X316517857Y-262392857D01*
X316589285Y-262250000D01*
X316732142Y-262178571D01*
X317017857Y-262178571D01*
X317160714Y-262250000D01*
X317232142Y-262392857D01*
X317232142Y-262535714D01*
X316517857Y-262678571D01*
X317875000Y-263035714D02*
X317946428Y-263107142D01*
X317875000Y-263178571D01*
X317803571Y-263107142D01*
X317875000Y-263035714D01*
X317875000Y-263178571D01*
X317875000Y-262250000D02*
X317946428Y-262321428D01*
X317875000Y-262392857D01*
X317803571Y-262321428D01*
X317875000Y-262250000D01*
X317875000Y-262392857D01*
X320232142Y-262392857D02*
X320446428Y-262464285D01*
X320517857Y-262535714D01*
X320589285Y-262678571D01*
X320589285Y-262892857D01*
X320517857Y-263035714D01*
X320446428Y-263107142D01*
X320303571Y-263178571D01*
X319732142Y-263178571D01*
X319732142Y-261678571D01*
X320232142Y-261678571D01*
X320375000Y-261750000D01*
X320446428Y-261821428D01*
X320517857Y-261964285D01*
X320517857Y-262107142D01*
X320446428Y-262250000D01*
X320375000Y-262321428D01*
X320232142Y-262392857D01*
X319732142Y-262392857D01*
D10*
D11*
X398232142Y-265978571D02*
X398232142Y-264478571D01*
X399589285Y-265978571D02*
X399589285Y-264478571D01*
X399589285Y-265907142D02*
X399446428Y-265978571D01*
X399160714Y-265978571D01*
X399017857Y-265907142D01*
X398946428Y-265835714D01*
X398875000Y-265692857D01*
X398875000Y-265264285D01*
X398946428Y-265121428D01*
X399017857Y-265050000D01*
X399160714Y-264978571D01*
X399446428Y-264978571D01*
X399589285Y-265050000D01*
X400303571Y-265835714D02*
X400375000Y-265907142D01*
X400303571Y-265978571D01*
X400232142Y-265907142D01*
X400303571Y-265835714D01*
X400303571Y-265978571D01*
X400303571Y-265050000D02*
X400375000Y-265121428D01*
X400303571Y-265192857D01*
X400232142Y-265121428D01*
X400303571Y-265050000D01*
X400303571Y-265192857D01*
X402946428Y-265978571D02*
X402089285Y-265978571D01*
X402517857Y-265978571D02*
X402517857Y-264478571D01*
X402375000Y-264692857D01*
X402232142Y-264835714D01*
X402089285Y-264907142D01*
X404660714Y-264407142D02*
X403375000Y-266335714D01*
X405946428Y-265978571D02*
X405089285Y-265978571D01*
X405517857Y-265978571D02*
X405517857Y-264478571D01*
X405375000Y-264692857D01*
X405232142Y-264835714D01*
X405089285Y-264907142D01*
D10*
D11*
X311800000Y-256900000D02*
X419800000Y-256900000D01*
D10*
D13*
X313512380Y-257604761D02*
X314655238Y-257604761D01*
X313833809Y-259604761D02*
X314083809Y-257604761D01*
X315071904Y-259604761D02*
X315238571Y-258271428D01*
X315321904Y-257604761D02*
X315214761Y-257700000D01*
X315298095Y-257795238D01*
X315405238Y-257700000D01*
X315321904Y-257604761D01*
X315298095Y-257795238D01*
X315905238Y-258271428D02*
X316667142Y-258271428D01*
X316274285Y-257604761D02*
X316060000Y-259319047D01*
X316131428Y-259509523D01*
X316310000Y-259604761D01*
X316500476Y-259604761D01*
X317452857Y-259604761D02*
X317274285Y-259509523D01*
X317202857Y-259319047D01*
X317417142Y-257604761D01*
X318988571Y-259509523D02*
X318786190Y-259604761D01*
X318405238Y-259604761D01*
X318226666Y-259509523D01*
X318155238Y-259319047D01*
X318250476Y-258557142D01*
X318369523Y-258366666D01*
X318571904Y-258271428D01*
X318952857Y-258271428D01*
X319131428Y-258366666D01*
X319202857Y-258557142D01*
X319179047Y-258747619D01*
X318202857Y-258938095D01*
X319952857Y-259414285D02*
X320036190Y-259509523D01*
X319929047Y-259604761D01*
X319845714Y-259509523D01*
X319952857Y-259414285D01*
X319929047Y-259604761D01*
X320083809Y-258366666D02*
X320167142Y-258461904D01*
X320060000Y-258557142D01*
X319976666Y-258461904D01*
X320083809Y-258366666D01*
X320060000Y-258557142D01*
X322321904Y-259509523D02*
X322595714Y-259604761D01*
X323071904Y-259604761D01*
X323274285Y-259509523D01*
X323381428Y-259414285D01*
X323500476Y-259223809D01*
X323524285Y-259033333D01*
X323452857Y-258842857D01*
X323369523Y-258747619D01*
X323190952Y-258652380D01*
X322821904Y-258557142D01*
X322643333Y-258461904D01*
X322560000Y-258366666D01*
X322488571Y-258176190D01*
X322512380Y-257985714D01*
X322631428Y-257795238D01*
X322738571Y-257700000D01*
X322940952Y-257604761D01*
X323417142Y-257604761D01*
X323690952Y-257700000D01*
X324310000Y-259604761D02*
X324560000Y-257604761D01*
X325167142Y-259604761D02*
X325298095Y-258557142D01*
X325226666Y-258366666D01*
X325048095Y-258271428D01*
X324762380Y-258271428D01*
X324560000Y-258366666D01*
X324452857Y-258461904D01*
X326405238Y-259604761D02*
X326226666Y-259509523D01*
X326143333Y-259414285D01*
X326071904Y-259223809D01*
X326143333Y-258652380D01*
X326262380Y-258461904D01*
X326369523Y-258366666D01*
X326571904Y-258271428D01*
X326857619Y-258271428D01*
X327036190Y-258366666D01*
X327119523Y-258461904D01*
X327190952Y-258652380D01*
X327119523Y-259223809D01*
X327000476Y-259414285D01*
X326893333Y-259509523D01*
X326690952Y-259604761D01*
X326405238Y-259604761D01*
X327929047Y-259604761D02*
X328095714Y-258271428D01*
X328048095Y-258652380D02*
X328167142Y-258461904D01*
X328274285Y-258366666D01*
X328476666Y-258271428D01*
X328667142Y-258271428D01*
X329048095Y-258271428D02*
X329810000Y-258271428D01*
X329417142Y-257604761D02*
X329202857Y-259319047D01*
X329274285Y-259509523D01*
X329452857Y-259604761D01*
X329643333Y-259604761D01*
X332631428Y-258557142D02*
X331964761Y-258557142D01*
X331833809Y-259604761D02*
X332083809Y-257604761D01*
X333036190Y-257604761D01*
X333548095Y-259604761D02*
X333714761Y-258271428D01*
X333798095Y-257604761D02*
X333690952Y-257700000D01*
X333774285Y-257795238D01*
X333881428Y-257700000D01*
X333798095Y-257604761D01*
X333774285Y-257795238D01*
X334667142Y-258271428D02*
X334500476Y-259604761D01*
X334643333Y-258461904D02*
X334750476Y-258366666D01*
X334952857Y-258271428D01*
X335238571Y-258271428D01*
X335417142Y-258366666D01*
X335488571Y-258557142D01*
X335357619Y-259604761D01*
X337167142Y-259604761D02*
X337298095Y-258557142D01*
X337226666Y-258366666D01*
X337048095Y-258271428D01*
X336667142Y-258271428D01*
X336464761Y-258366666D01*
X337179047Y-259509523D02*
X336976666Y-259604761D01*
X336500476Y-259604761D01*
X336321904Y-259509523D01*
X336250476Y-259319047D01*
X336274285Y-259128571D01*
X336393333Y-258938095D01*
X336595714Y-258842857D01*
X337071904Y-258842857D01*
X337274285Y-258747619D01*
X338405238Y-259604761D02*
X338226666Y-259509523D01*
X338155238Y-259319047D01*
X338369523Y-257604761D01*
D10*
D11*
X313732142Y-254992857D02*
X313232142Y-254992857D01*
X313232142Y-255778571D02*
X313232142Y-254278571D01*
X313946428Y-254278571D01*
X314517857Y-255778571D02*
X314517857Y-254778571D01*
X314517857Y-254278571D02*
X314446428Y-254350000D01*
X314517857Y-254421428D01*
X314589285Y-254350000D01*
X314517857Y-254278571D01*
X314517857Y-254421428D01*
X315446428Y-255778571D02*
X315303571Y-255707142D01*
X315232142Y-255564285D01*
X315232142Y-254278571D01*
X316589285Y-255707142D02*
X316446428Y-255778571D01*
X316160714Y-255778571D01*
X316017857Y-255707142D01*
X315946428Y-255564285D01*
X315946428Y-254992857D01*
X316017857Y-254850000D01*
X316160714Y-254778571D01*
X316446428Y-254778571D01*
X316589285Y-254850000D01*
X316660714Y-254992857D01*
X316660714Y-255135714D01*
X315946428Y-255278571D01*
X317303571Y-255635714D02*
X317375000Y-255707142D01*
X317303571Y-255778571D01*
X317232142Y-255707142D01*
X317303571Y-255635714D01*
X317303571Y-255778571D01*
X317303571Y-254850000D02*
X317375000Y-254921428D01*
X317303571Y-254992857D01*
X317232142Y-254921428D01*
X317303571Y-254850000D01*
X317303571Y-254992857D01*
X319089285Y-255707142D02*
X319232142Y-255778571D01*
X319517857Y-255778571D01*
X319660714Y-255707142D01*
X319732142Y-255564285D01*
X319732142Y-255492857D01*
X319660714Y-255350000D01*
X319517857Y-255278571D01*
X319303571Y-255278571D01*
X319160714Y-255207142D01*
X319089285Y-255064285D01*
X319089285Y-254992857D01*
X319160714Y-254850000D01*
X319303571Y-254778571D01*
X319517857Y-254778571D01*
X319660714Y-254850000D01*
X320375000Y-255778571D02*
X320375000Y-254278571D01*
X321017857Y-255778571D02*
X321017857Y-254992857D01*
X320946428Y-254850000D01*
X320803571Y-254778571D01*
X320589285Y-254778571D01*
X320446428Y-254850000D01*
X320375000Y-254921428D01*
X321946428Y-255778571D02*
X321803571Y-255707142D01*
X321732142Y-255635714D01*
X321660714Y-255492857D01*
X321660714Y-255064285D01*
X321732142Y-254921428D01*
X321803571Y-254850000D01*
X321946428Y-254778571D01*
X322160714Y-254778571D01*
X322303571Y-254850000D01*
X322375000Y-254921428D01*
X322446428Y-255064285D01*
X322446428Y-255492857D01*
X322375000Y-255635714D01*
X322303571Y-255707142D01*
X322160714Y-255778571D01*
X321946428Y-255778571D01*
X323089285Y-255778571D02*
X323089285Y-254778571D01*
X323089285Y-255064285D02*
X323160714Y-254921428D01*
X323232142Y-254850000D01*
X323375000Y-254778571D01*
X323517857Y-254778571D01*
X323803571Y-254778571D02*
X324375000Y-254778571D01*
X324017857Y-254278571D02*
X324017857Y-255564285D01*
X324089285Y-255707142D01*
X324232142Y-255778571D01*
X324375000Y-255778571D01*
X324875000Y-255207142D02*
X326017857Y-255207142D01*
X326517857Y-254778571D02*
X327089285Y-254778571D01*
X326732142Y-255778571D02*
X326732142Y-254492857D01*
X326803571Y-254350000D01*
X326946428Y-254278571D01*
X327089285Y-254278571D01*
X327589285Y-255778571D02*
X327589285Y-254778571D01*
X327589285Y-254278571D02*
X327517857Y-254350000D01*
X327589285Y-254421428D01*
X327660714Y-254350000D01*
X327589285Y-254278571D01*
X327589285Y-254421428D01*
X328303571Y-254778571D02*
X328303571Y-255778571D01*
X328303571Y-254921428D02*
X328375000Y-254850000D01*
X328517857Y-254778571D01*
X328732142Y-254778571D01*
X328875000Y-254850000D01*
X328946428Y-254992857D01*
X328946428Y-255778571D01*
X330303571Y-255778571D02*
X330303571Y-254992857D01*
X330232142Y-254850000D01*
X330089285Y-254778571D01*
X329803571Y-254778571D01*
X329660714Y-254850000D01*
X330303571Y-255707142D02*
X330160714Y-255778571D01*
X329803571Y-255778571D01*
X329660714Y-255707142D01*
X329589285Y-255564285D01*
X329589285Y-255421428D01*
X329660714Y-255278571D01*
X329803571Y-255207142D01*
X330160714Y-255207142D01*
X330303571Y-255135714D01*
X331232142Y-255778571D02*
X331089285Y-255707142D01*
X331017857Y-255564285D01*
X331017857Y-254278571D01*
X331803571Y-255635714D02*
X331875000Y-255707142D01*
X331803571Y-255778571D01*
X331732142Y-255707142D01*
X331803571Y-255635714D01*
X331803571Y-255778571D01*
X332517857Y-255778571D02*
X332517857Y-254278571D01*
X332660714Y-255207142D02*
X333089285Y-255778571D01*
X333089285Y-254778571D02*
X332517857Y-255350000D01*
X333732142Y-255778571D02*
X333732142Y-254778571D01*
X333732142Y-254278571D02*
X333660714Y-254350000D01*
X333732142Y-254421428D01*
X333803571Y-254350000D01*
X333732142Y-254278571D01*
X333732142Y-254421428D01*
X335089285Y-255707142D02*
X334946428Y-255778571D01*
X334660714Y-255778571D01*
X334517857Y-255707142D01*
X334446428Y-255635714D01*
X334375000Y-255492857D01*
X334375000Y-255064285D01*
X334446428Y-254921428D01*
X334517857Y-254850000D01*
X334660714Y-254778571D01*
X334946428Y-254778571D01*
X335089285Y-254850000D01*
X336375000Y-255778571D02*
X336375000Y-254992857D01*
X336303571Y-254850000D01*
X336160714Y-254778571D01*
X335875000Y-254778571D01*
X335732142Y-254850000D01*
X336375000Y-255707142D02*
X336232142Y-255778571D01*
X335875000Y-255778571D01*
X335732142Y-255707142D01*
X335660714Y-255564285D01*
X335660714Y-255421428D01*
X335732142Y-255278571D01*
X335875000Y-255207142D01*
X336232142Y-255207142D01*
X336375000Y-255135714D01*
X337732142Y-255778571D02*
X337732142Y-254278571D01*
X337732142Y-255707142D02*
X337589285Y-255778571D01*
X337303571Y-255778571D01*
X337160714Y-255707142D01*
X337089285Y-255635714D01*
X337017857Y-255492857D01*
X337017857Y-255064285D01*
X337089285Y-254921428D01*
X337160714Y-254850000D01*
X337303571Y-254778571D01*
X337589285Y-254778571D01*
X337732142Y-254850000D01*
X338089285Y-255921428D02*
X339232142Y-255921428D01*
X339589285Y-254778571D02*
X339589285Y-256278571D01*
X339589285Y-254850000D02*
X339732142Y-254778571D01*
X340017857Y-254778571D01*
X340160714Y-254850000D01*
X340232142Y-254921428D01*
X340303571Y-255064285D01*
X340303571Y-255492857D01*
X340232142Y-255635714D01*
X340160714Y-255707142D01*
X340017857Y-255778571D01*
X339732142Y-255778571D01*
X339589285Y-255707142D01*
X341589285Y-255707142D02*
X341446428Y-255778571D01*
X341160714Y-255778571D01*
X341017857Y-255707142D01*
X340946428Y-255635714D01*
X340875000Y-255492857D01*
X340875000Y-255064285D01*
X340946428Y-254921428D01*
X341017857Y-254850000D01*
X341160714Y-254778571D01*
X341446428Y-254778571D01*
X341589285Y-254850000D01*
X342232142Y-255778571D02*
X342232142Y-254278571D01*
X342232142Y-254850000D02*
X342375000Y-254778571D01*
X342660714Y-254778571D01*
X342803571Y-254850000D01*
X342875000Y-254921428D01*
X342946428Y-255064285D01*
X342946428Y-255492857D01*
X342875000Y-255635714D01*
X342803571Y-255707142D01*
X342660714Y-255778571D01*
X342375000Y-255778571D01*
X342232142Y-255707142D01*
D10*
D11*
X311800000Y-250900000D02*
X419800000Y-250900000D01*
D10*
D11*
X313160714Y-253007142D02*
X313375000Y-253078571D01*
X313732142Y-253078571D01*
X313875000Y-253007142D01*
X313946428Y-252935714D01*
X314017857Y-252792857D01*
X314017857Y-252650000D01*
X313946428Y-252507142D01*
X313875000Y-252435714D01*
X313732142Y-252364285D01*
X313446428Y-252292857D01*
X313303571Y-252221428D01*
X313232142Y-252150000D01*
X313160714Y-252007142D01*
X313160714Y-251864285D01*
X313232142Y-251721428D01*
X313303571Y-251650000D01*
X313446428Y-251578571D01*
X313803571Y-251578571D01*
X314017857Y-251650000D01*
X314660714Y-253078571D02*
X314660714Y-251578571D01*
X315303571Y-253078571D02*
X315303571Y-252292857D01*
X315232142Y-252150000D01*
X315089285Y-252078571D01*
X314875000Y-252078571D01*
X314732142Y-252150000D01*
X314660714Y-252221428D01*
X316589285Y-253007142D02*
X316446428Y-253078571D01*
X316160714Y-253078571D01*
X316017857Y-253007142D01*
X315946428Y-252864285D01*
X315946428Y-252292857D01*
X316017857Y-252150000D01*
X316160714Y-252078571D01*
X316446428Y-252078571D01*
X316589285Y-252150000D01*
X316660714Y-252292857D01*
X316660714Y-252435714D01*
X315946428Y-252578571D01*
X317875000Y-253007142D02*
X317732142Y-253078571D01*
X317446428Y-253078571D01*
X317303571Y-253007142D01*
X317232142Y-252864285D01*
X317232142Y-252292857D01*
X317303571Y-252150000D01*
X317446428Y-252078571D01*
X317732142Y-252078571D01*
X317875000Y-252150000D01*
X317946428Y-252292857D01*
X317946428Y-252435714D01*
X317232142Y-252578571D01*
X318375000Y-252078571D02*
X318946428Y-252078571D01*
X318589285Y-251578571D02*
X318589285Y-252864285D01*
X318660714Y-253007142D01*
X318803571Y-253078571D01*
X318946428Y-253078571D01*
X319446428Y-252935714D02*
X319517857Y-253007142D01*
X319446428Y-253078571D01*
X319375000Y-253007142D01*
X319446428Y-252935714D01*
X319446428Y-253078571D01*
X319446428Y-252150000D02*
X319517857Y-252221428D01*
X319446428Y-252292857D01*
X319375000Y-252221428D01*
X319446428Y-252150000D01*
X319446428Y-252292857D01*
D10*
D12*
X313352142Y-250078571D02*
X313352142Y-248578571D01*
X313995000Y-250007142D02*
X314137857Y-250078571D01*
X314423571Y-250078571D01*
X314566428Y-250007142D01*
X314637857Y-249864285D01*
X314637857Y-249792857D01*
X314566428Y-249650000D01*
X314423571Y-249578571D01*
X314209285Y-249578571D01*
X314066428Y-249507142D01*
X313995000Y-249364285D01*
X313995000Y-249292857D01*
X314066428Y-249150000D01*
X314209285Y-249078571D01*
X314423571Y-249078571D01*
X314566428Y-249150000D01*
X315280714Y-250078571D02*
X315280714Y-248578571D01*
X315423571Y-249507142D02*
X315852142Y-250078571D01*
X315852142Y-249078571D02*
X315280714Y-249650000D01*
X317066428Y-250007142D02*
X316923571Y-250078571D01*
X316637857Y-250078571D01*
X316495000Y-250007142D01*
X316423571Y-249864285D01*
X316423571Y-249292857D01*
X316495000Y-249150000D01*
X316637857Y-249078571D01*
X316923571Y-249078571D01*
X317066428Y-249150000D01*
X317137857Y-249292857D01*
X317137857Y-249435714D01*
X316423571Y-249578571D01*
X317780714Y-249078571D02*
X317780714Y-250078571D01*
X317780714Y-249221428D02*
X317852142Y-249150000D01*
X317995000Y-249078571D01*
X318209285Y-249078571D01*
X318352142Y-249150000D01*
X318423571Y-249292857D01*
X318423571Y-250078571D01*
X319780714Y-250078571D02*
X319780714Y-248578571D01*
X319780714Y-250007142D02*
X319637857Y-250078571D01*
X319352142Y-250078571D01*
X319209285Y-250007142D01*
X319137857Y-249935714D01*
X319066428Y-249792857D01*
X319066428Y-249364285D01*
X319137857Y-249221428D01*
X319209285Y-249150000D01*
X319352142Y-249078571D01*
X319637857Y-249078571D01*
X319780714Y-249150000D01*
X321066428Y-250007142D02*
X320923571Y-250078571D01*
X320637857Y-250078571D01*
X320495000Y-250007142D01*
X320423571Y-249864285D01*
X320423571Y-249292857D01*
X320495000Y-249150000D01*
X320637857Y-249078571D01*
X320923571Y-249078571D01*
X321066428Y-249150000D01*
X321137857Y-249292857D01*
X321137857Y-249435714D01*
X320423571Y-249578571D01*
X321780714Y-250078571D02*
X321780714Y-249078571D01*
X321780714Y-249364285D02*
X321852142Y-249221428D01*
X321923571Y-249150000D01*
X322066428Y-249078571D01*
X322209285Y-249078571D01*
X323852142Y-250078571D02*
X323852142Y-248578571D01*
X324709285Y-250078571D02*
X324066428Y-249221428D01*
X324709285Y-248578571D02*
X323852142Y-249435714D01*
X325995000Y-249078571D02*
X325995000Y-250078571D01*
X325352142Y-249078571D02*
X325352142Y-249864285D01*
X325423571Y-250007142D01*
X325566428Y-250078571D01*
X325780714Y-250078571D01*
X325923571Y-250007142D01*
X325995000Y-249935714D01*
X326637857Y-250007142D02*
X326780714Y-250078571D01*
X327066428Y-250078571D01*
X327209285Y-250007142D01*
X327280714Y-249864285D01*
X327280714Y-249792857D01*
X327209285Y-249650000D01*
X327066428Y-249578571D01*
X326852142Y-249578571D01*
X326709285Y-249507142D01*
X326637857Y-249364285D01*
X326637857Y-249292857D01*
X326709285Y-249150000D01*
X326852142Y-249078571D01*
X327066428Y-249078571D01*
X327209285Y-249150000D01*
X327923571Y-250078571D02*
X327923571Y-248578571D01*
X328566428Y-250078571D02*
X328566428Y-249292857D01*
X328495000Y-249150000D01*
X328352142Y-249078571D01*
X328137857Y-249078571D01*
X327995000Y-249150000D01*
X327923571Y-249221428D01*
X329923571Y-250078571D02*
X329923571Y-249292857D01*
X329852142Y-249150000D01*
X329709285Y-249078571D01*
X329423571Y-249078571D01*
X329280714Y-249150000D01*
X329923571Y-250007142D02*
X329780714Y-250078571D01*
X329423571Y-250078571D01*
X329280714Y-250007142D01*
X329209285Y-249864285D01*
X329209285Y-249721428D01*
X329280714Y-249578571D01*
X329423571Y-249507142D01*
X329780714Y-249507142D01*
X329923571Y-249435714D01*
X330637857Y-249078571D02*
X330637857Y-250078571D01*
X330637857Y-249221428D02*
X330709285Y-249150000D01*
X330852142Y-249078571D01*
X331066428Y-249078571D01*
X331209285Y-249150000D01*
X331280714Y-249292857D01*
X331280714Y-250078571D01*
X333566428Y-250650000D02*
X333495000Y-250578571D01*
X333352142Y-250364285D01*
X333280714Y-250221428D01*
X333209285Y-250007142D01*
X333137857Y-249650000D01*
X333137857Y-249364285D01*
X333209285Y-249007142D01*
X333280714Y-248792857D01*
X333352142Y-248650000D01*
X333495000Y-248435714D01*
X333566428Y-248364285D01*
X334137857Y-250078571D02*
X334137857Y-249078571D01*
X334137857Y-248578571D02*
X334066428Y-248650000D01*
X334137857Y-248721428D01*
X334209285Y-248650000D01*
X334137857Y-248578571D01*
X334137857Y-248721428D01*
X334780714Y-250007142D02*
X334923571Y-250078571D01*
X335209285Y-250078571D01*
X335352142Y-250007142D01*
X335423571Y-249864285D01*
X335423571Y-249792857D01*
X335352142Y-249650000D01*
X335209285Y-249578571D01*
X334995000Y-249578571D01*
X334852142Y-249507142D01*
X334780714Y-249364285D01*
X334780714Y-249292857D01*
X334852142Y-249150000D01*
X334995000Y-249078571D01*
X335209285Y-249078571D01*
X335352142Y-249150000D01*
X336066428Y-250078571D02*
X336066428Y-248578571D01*
X336209285Y-249507142D02*
X336637857Y-250078571D01*
X336637857Y-249078571D02*
X336066428Y-249650000D01*
X337852142Y-250007142D02*
X337709285Y-250078571D01*
X337423571Y-250078571D01*
X337280714Y-250007142D01*
X337209285Y-249864285D01*
X337209285Y-249292857D01*
X337280714Y-249150000D01*
X337423571Y-249078571D01*
X337709285Y-249078571D01*
X337852142Y-249150000D01*
X337923571Y-249292857D01*
X337923571Y-249435714D01*
X337209285Y-249578571D01*
X338566428Y-249078571D02*
X338566428Y-250078571D01*
X338566428Y-249221428D02*
X338637857Y-249150000D01*
X338780714Y-249078571D01*
X338995000Y-249078571D01*
X339137857Y-249150000D01*
X339209285Y-249292857D01*
X339209285Y-250078571D01*
X340566428Y-250078571D02*
X340566428Y-248578571D01*
X340566428Y-250007142D02*
X340423571Y-250078571D01*
X340137857Y-250078571D01*
X339995000Y-250007142D01*
X339923571Y-249935714D01*
X339852142Y-249792857D01*
X339852142Y-249364285D01*
X339923571Y-249221428D01*
X339995000Y-249150000D01*
X340137857Y-249078571D01*
X340423571Y-249078571D01*
X340566428Y-249150000D01*
X341852142Y-250007142D02*
X341709285Y-250078571D01*
X341423571Y-250078571D01*
X341280714Y-250007142D01*
X341209285Y-249864285D01*
X341209285Y-249292857D01*
X341280714Y-249150000D01*
X341423571Y-249078571D01*
X341709285Y-249078571D01*
X341852142Y-249150000D01*
X341923571Y-249292857D01*
X341923571Y-249435714D01*
X341209285Y-249578571D01*
X342566428Y-250078571D02*
X342566428Y-249078571D01*
X342566428Y-249364285D02*
X342637857Y-249221428D01*
X342709285Y-249150000D01*
X342852142Y-249078571D01*
X342995000Y-249078571D01*
X343495000Y-249935714D02*
X343566428Y-250007142D01*
X343495000Y-250078571D01*
X343423571Y-250007142D01*
X343495000Y-249935714D01*
X343495000Y-250078571D01*
X344780714Y-250007142D02*
X344637857Y-250078571D01*
X344352142Y-250078571D01*
X344209285Y-250007142D01*
X344137857Y-249864285D01*
X344137857Y-249292857D01*
X344209285Y-249150000D01*
X344352142Y-249078571D01*
X344637857Y-249078571D01*
X344780714Y-249150000D01*
X344852142Y-249292857D01*
X344852142Y-249435714D01*
X344137857Y-249578571D01*
X346066428Y-250007142D02*
X345923571Y-250078571D01*
X345637857Y-250078571D01*
X345495000Y-250007142D01*
X345423571Y-249864285D01*
X345423571Y-249292857D01*
X345495000Y-249150000D01*
X345637857Y-249078571D01*
X345923571Y-249078571D01*
X346066428Y-249150000D01*
X346137857Y-249292857D01*
X346137857Y-249435714D01*
X345423571Y-249578571D01*
X346637857Y-250650000D02*
X346709285Y-250578571D01*
X346852142Y-250364285D01*
X346923571Y-250221428D01*
X346995000Y-250007142D01*
X347066428Y-249650000D01*
X347066428Y-249364285D01*
X346995000Y-249007142D01*
X346923571Y-248792857D01*
X346852142Y-248650000D01*
X346709285Y-248435714D01*
X346637857Y-248364285D01*
D10*
D11*
X314089285Y-247078571D02*
X313589285Y-246364285D01*
X313232142Y-247078571D02*
X313232142Y-245578571D01*
X313803571Y-245578571D01*
X313946428Y-245650000D01*
X314017857Y-245721428D01*
X314089285Y-245864285D01*
X314089285Y-246078571D01*
X314017857Y-246221428D01*
X313946428Y-246292857D01*
X313803571Y-246364285D01*
X313232142Y-246364285D01*
X315303571Y-247007142D02*
X315160714Y-247078571D01*
X314875000Y-247078571D01*
X314732142Y-247007142D01*
X314660714Y-246864285D01*
X314660714Y-246292857D01*
X314732142Y-246150000D01*
X314875000Y-246078571D01*
X315160714Y-246078571D01*
X315303571Y-246150000D01*
X315375000Y-246292857D01*
X315375000Y-246435714D01*
X314660714Y-246578571D01*
X316232142Y-247078571D02*
X316089285Y-247007142D01*
X316017857Y-246864285D01*
X316017857Y-245578571D01*
X317375000Y-247007142D02*
X317232142Y-247078571D01*
X316946428Y-247078571D01*
X316803571Y-247007142D01*
X316732142Y-246864285D01*
X316732142Y-246292857D01*
X316803571Y-246150000D01*
X316946428Y-246078571D01*
X317232142Y-246078571D01*
X317375000Y-246150000D01*
X317446428Y-246292857D01*
X317446428Y-246435714D01*
X316732142Y-246578571D01*
X318732142Y-247078571D02*
X318732142Y-246292857D01*
X318660714Y-246150000D01*
X318517857Y-246078571D01*
X318232142Y-246078571D01*
X318089285Y-246150000D01*
X318732142Y-247007142D02*
X318589285Y-247078571D01*
X318232142Y-247078571D01*
X318089285Y-247007142D01*
X318017857Y-246864285D01*
X318017857Y-246721428D01*
X318089285Y-246578571D01*
X318232142Y-246507142D01*
X318589285Y-246507142D01*
X318732142Y-246435714D01*
X319375000Y-247007142D02*
X319517857Y-247078571D01*
X319803571Y-247078571D01*
X319946428Y-247007142D01*
X320017857Y-246864285D01*
X320017857Y-246792857D01*
X319946428Y-246650000D01*
X319803571Y-246578571D01*
X319589285Y-246578571D01*
X319446428Y-246507142D01*
X319375000Y-246364285D01*
X319375000Y-246292857D01*
X319446428Y-246150000D01*
X319589285Y-246078571D01*
X319803571Y-246078571D01*
X319946428Y-246150000D01*
X321232142Y-247007142D02*
X321089285Y-247078571D01*
X320803571Y-247078571D01*
X320660714Y-247007142D01*
X320589285Y-246864285D01*
X320589285Y-246292857D01*
X320660714Y-246150000D01*
X320803571Y-246078571D01*
X321089285Y-246078571D01*
X321232142Y-246150000D01*
X321303571Y-246292857D01*
X321303571Y-246435714D01*
X320589285Y-246578571D01*
X322589285Y-247078571D02*
X322589285Y-245578571D01*
X322589285Y-247007142D02*
X322446428Y-247078571D01*
X322160714Y-247078571D01*
X322017857Y-247007142D01*
X321946428Y-246935714D01*
X321875000Y-246792857D01*
X321875000Y-246364285D01*
X321946428Y-246221428D01*
X322017857Y-246150000D01*
X322160714Y-246078571D01*
X322446428Y-246078571D01*
X322589285Y-246150000D01*
X325089285Y-246078571D02*
X325089285Y-247078571D01*
X324446428Y-246078571D02*
X324446428Y-246864285D01*
X324517857Y-247007142D01*
X324660714Y-247078571D01*
X324875000Y-247078571D01*
X325017857Y-247007142D01*
X325089285Y-246935714D01*
X325803571Y-246078571D02*
X325803571Y-247078571D01*
X325803571Y-246221428D02*
X325875000Y-246150000D01*
X326017857Y-246078571D01*
X326232142Y-246078571D01*
X326375000Y-246150000D01*
X326446428Y-246292857D01*
X326446428Y-247078571D01*
X327803571Y-247078571D02*
X327803571Y-245578571D01*
X327803571Y-247007142D02*
X327660714Y-247078571D01*
X327375000Y-247078571D01*
X327232142Y-247007142D01*
X327160714Y-246935714D01*
X327089285Y-246792857D01*
X327089285Y-246364285D01*
X327160714Y-246221428D01*
X327232142Y-246150000D01*
X327375000Y-246078571D01*
X327660714Y-246078571D01*
X327803571Y-246150000D01*
X329089285Y-247007142D02*
X328946428Y-247078571D01*
X328660714Y-247078571D01*
X328517857Y-247007142D01*
X328446428Y-246864285D01*
X328446428Y-246292857D01*
X328517857Y-246150000D01*
X328660714Y-246078571D01*
X328946428Y-246078571D01*
X329089285Y-246150000D01*
X329160714Y-246292857D01*
X329160714Y-246435714D01*
X328446428Y-246578571D01*
X329803571Y-247078571D02*
X329803571Y-246078571D01*
X329803571Y-246364285D02*
X329875000Y-246221428D01*
X329946428Y-246150000D01*
X330089285Y-246078571D01*
X330232142Y-246078571D01*
X331803571Y-246650000D02*
X332517857Y-246650000D01*
X331660714Y-247078571D02*
X332160714Y-245578571D01*
X332660714Y-247078571D01*
X332946428Y-246078571D02*
X333517857Y-246078571D01*
X333160714Y-245578571D02*
X333160714Y-246864285D01*
X333232142Y-247007142D01*
X333375000Y-247078571D01*
X333517857Y-247078571D01*
X333803571Y-246078571D02*
X334375000Y-246078571D01*
X334017857Y-245578571D02*
X334017857Y-246864285D01*
X334089285Y-247007142D01*
X334232142Y-247078571D01*
X334375000Y-247078571D01*
X334875000Y-247078571D02*
X334875000Y-246078571D01*
X334875000Y-246364285D02*
X334946428Y-246221428D01*
X335017857Y-246150000D01*
X335160714Y-246078571D01*
X335303571Y-246078571D01*
X335803571Y-247078571D02*
X335803571Y-246078571D01*
X335803571Y-245578571D02*
X335732142Y-245650000D01*
X335803571Y-245721428D01*
X335875000Y-245650000D01*
X335803571Y-245578571D01*
X335803571Y-245721428D01*
X336517857Y-247078571D02*
X336517857Y-245578571D01*
X336517857Y-246150000D02*
X336660714Y-246078571D01*
X336946428Y-246078571D01*
X337089285Y-246150000D01*
X337160714Y-246221428D01*
X337232142Y-246364285D01*
X337232142Y-246792857D01*
X337160714Y-246935714D01*
X337089285Y-247007142D01*
X336946428Y-247078571D01*
X336660714Y-247078571D01*
X336517857Y-247007142D01*
X338517857Y-246078571D02*
X338517857Y-247078571D01*
X337875000Y-246078571D02*
X337875000Y-246864285D01*
X337946428Y-247007142D01*
X338089285Y-247078571D01*
X338303571Y-247078571D01*
X338446428Y-247007142D01*
X338517857Y-246935714D01*
X339017857Y-246078571D02*
X339589285Y-246078571D01*
X339232142Y-245578571D02*
X339232142Y-246864285D01*
X339303571Y-247007142D01*
X339446428Y-247078571D01*
X339589285Y-247078571D01*
X340089285Y-247078571D02*
X340089285Y-246078571D01*
X340089285Y-245578571D02*
X340017857Y-245650000D01*
X340089285Y-245721428D01*
X340160714Y-245650000D01*
X340089285Y-245578571D01*
X340089285Y-245721428D01*
X341017857Y-247078571D02*
X340875000Y-247007142D01*
X340803571Y-246935714D01*
X340732142Y-246792857D01*
X340732142Y-246364285D01*
X340803571Y-246221428D01*
X340875000Y-246150000D01*
X341017857Y-246078571D01*
X341232142Y-246078571D01*
X341375000Y-246150000D01*
X341446428Y-246221428D01*
X341517857Y-246364285D01*
X341517857Y-246792857D01*
X341446428Y-246935714D01*
X341375000Y-247007142D01*
X341232142Y-247078571D01*
X341017857Y-247078571D01*
X342160714Y-246078571D02*
X342160714Y-247078571D01*
X342160714Y-246221428D02*
X342232142Y-246150000D01*
X342375000Y-246078571D01*
X342589285Y-246078571D01*
X342732142Y-246150000D01*
X342803571Y-246292857D01*
X342803571Y-247078571D01*
X343517857Y-246507142D02*
X344660714Y-246507142D01*
X345303571Y-247007142D02*
X345517857Y-247078571D01*
X345875000Y-247078571D01*
X346017857Y-247007142D01*
X346089285Y-246935714D01*
X346160714Y-246792857D01*
X346160714Y-246650000D01*
X346089285Y-246507142D01*
X346017857Y-246435714D01*
X345875000Y-246364285D01*
X345589285Y-246292857D01*
X345446428Y-246221428D01*
X345375000Y-246150000D01*
X345303571Y-246007142D01*
X345303571Y-245864285D01*
X345375000Y-245721428D01*
X345446428Y-245650000D01*
X345589285Y-245578571D01*
X345946428Y-245578571D01*
X346160714Y-245650000D01*
X346803571Y-247078571D02*
X346803571Y-245578571D01*
X347446428Y-247078571D02*
X347446428Y-246292857D01*
X347375000Y-246150000D01*
X347232142Y-246078571D01*
X347017857Y-246078571D01*
X346875000Y-246150000D01*
X346803571Y-246221428D01*
X348803571Y-247078571D02*
X348803571Y-246292857D01*
X348732142Y-246150000D01*
X348589285Y-246078571D01*
X348303571Y-246078571D01*
X348160714Y-246150000D01*
X348803571Y-247007142D02*
X348660714Y-247078571D01*
X348303571Y-247078571D01*
X348160714Y-247007142D01*
X348089285Y-246864285D01*
X348089285Y-246721428D01*
X348160714Y-246578571D01*
X348303571Y-246507142D01*
X348660714Y-246507142D01*
X348803571Y-246435714D01*
X349517857Y-247078571D02*
X349517857Y-246078571D01*
X349517857Y-246364285D02*
X349589285Y-246221428D01*
X349660714Y-246150000D01*
X349803571Y-246078571D01*
X349946428Y-246078571D01*
X351017857Y-247007142D02*
X350875000Y-247078571D01*
X350589285Y-247078571D01*
X350446428Y-247007142D01*
X350375000Y-246864285D01*
X350375000Y-246292857D01*
X350446428Y-246150000D01*
X350589285Y-246078571D01*
X350875000Y-246078571D01*
X351017857Y-246150000D01*
X351089285Y-246292857D01*
X351089285Y-246435714D01*
X350375000Y-246578571D01*
X351660714Y-246650000D02*
X352375000Y-246650000D01*
X351517857Y-247078571D02*
X352017857Y-245578571D01*
X352517857Y-247078571D01*
X353232142Y-247078571D02*
X353089285Y-247007142D01*
X353017857Y-246864285D01*
X353017857Y-245578571D01*
X353803571Y-247078571D02*
X353803571Y-246078571D01*
X353803571Y-245578571D02*
X353732142Y-245650000D01*
X353803571Y-245721428D01*
X353875000Y-245650000D01*
X353803571Y-245578571D01*
X353803571Y-245721428D01*
X354517857Y-247078571D02*
X354517857Y-245578571D01*
X354660714Y-246507142D02*
X355089285Y-247078571D01*
X355089285Y-246078571D02*
X354517857Y-246650000D01*
X356303571Y-247007142D02*
X356160714Y-247078571D01*
X355875000Y-247078571D01*
X355732142Y-247007142D01*
X355660714Y-246864285D01*
X355660714Y-246292857D01*
X355732142Y-246150000D01*
X355875000Y-246078571D01*
X356160714Y-246078571D01*
X356303571Y-246150000D01*
X356375000Y-246292857D01*
X356375000Y-246435714D01*
X355660714Y-246578571D01*
X358803571Y-246078571D02*
X358803571Y-247078571D01*
X358446428Y-245507142D02*
X358089285Y-246578571D01*
X359017857Y-246578571D01*
X359589285Y-246935714D02*
X359660714Y-247007142D01*
X359589285Y-247078571D01*
X359517857Y-247007142D01*
X359589285Y-246935714D01*
X359589285Y-247078571D01*
X360589285Y-245578571D02*
X360732142Y-245578571D01*
X360875000Y-245650000D01*
X360946428Y-245721428D01*
X361017857Y-245864285D01*
X361089285Y-246150000D01*
X361089285Y-246507142D01*
X361017857Y-246792857D01*
X360946428Y-246935714D01*
X360875000Y-247007142D01*
X360732142Y-247078571D01*
X360589285Y-247078571D01*
X360446428Y-247007142D01*
X360375000Y-246935714D01*
X360303571Y-246792857D01*
X360232142Y-246507142D01*
X360232142Y-246150000D01*
X360303571Y-245864285D01*
X360375000Y-245721428D01*
X360446428Y-245650000D01*
X360589285Y-245578571D01*
X362875000Y-247078571D02*
X362875000Y-245578571D01*
X363589285Y-246078571D02*
X363589285Y-247078571D01*
X363589285Y-246221428D02*
X363660714Y-246150000D01*
X363803571Y-246078571D01*
X364017857Y-246078571D01*
X364160714Y-246150000D01*
X364232142Y-246292857D01*
X364232142Y-247078571D01*
X364732142Y-246078571D02*
X365303571Y-246078571D01*
X364946428Y-245578571D02*
X364946428Y-246864285D01*
X365017857Y-247007142D01*
X365160714Y-247078571D01*
X365303571Y-247078571D01*
X366375000Y-247007142D02*
X366232142Y-247078571D01*
X365946428Y-247078571D01*
X365803571Y-247007142D01*
X365732142Y-246864285D01*
X365732142Y-246292857D01*
X365803571Y-246150000D01*
X365946428Y-246078571D01*
X366232142Y-246078571D01*
X366375000Y-246150000D01*
X366446428Y-246292857D01*
X366446428Y-246435714D01*
X365732142Y-246578571D01*
X367089285Y-247078571D02*
X367089285Y-246078571D01*
X367089285Y-246364285D02*
X367160714Y-246221428D01*
X367232142Y-246150000D01*
X367375000Y-246078571D01*
X367517857Y-246078571D01*
X368017857Y-246078571D02*
X368017857Y-247078571D01*
X368017857Y-246221428D02*
X368089285Y-246150000D01*
X368232142Y-246078571D01*
X368446428Y-246078571D01*
X368589285Y-246150000D01*
X368660714Y-246292857D01*
X368660714Y-247078571D01*
X370017857Y-247078571D02*
X370017857Y-246292857D01*
X369946428Y-246150000D01*
X369803571Y-246078571D01*
X369517857Y-246078571D01*
X369375000Y-246150000D01*
X370017857Y-247007142D02*
X369875000Y-247078571D01*
X369517857Y-247078571D01*
X369375000Y-247007142D01*
X369303571Y-246864285D01*
X369303571Y-246721428D01*
X369375000Y-246578571D01*
X369517857Y-246507142D01*
X369875000Y-246507142D01*
X370017857Y-246435714D01*
X370517857Y-246078571D02*
X371089285Y-246078571D01*
X370732142Y-245578571D02*
X370732142Y-246864285D01*
X370803571Y-247007142D01*
X370946428Y-247078571D01*
X371089285Y-247078571D01*
X371589285Y-247078571D02*
X371589285Y-246078571D01*
X371589285Y-245578571D02*
X371517857Y-245650000D01*
X371589285Y-245721428D01*
X371660714Y-245650000D01*
X371589285Y-245578571D01*
X371589285Y-245721428D01*
X372517857Y-247078571D02*
X372375000Y-247007142D01*
X372303571Y-246935714D01*
X372232142Y-246792857D01*
X372232142Y-246364285D01*
X372303571Y-246221428D01*
X372375000Y-246150000D01*
X372517857Y-246078571D01*
X372732142Y-246078571D01*
X372875000Y-246150000D01*
X372946428Y-246221428D01*
X373017857Y-246364285D01*
X373017857Y-246792857D01*
X372946428Y-246935714D01*
X372875000Y-247007142D01*
X372732142Y-247078571D01*
X372517857Y-247078571D01*
X373660714Y-246078571D02*
X373660714Y-247078571D01*
X373660714Y-246221428D02*
X373732142Y-246150000D01*
X373875000Y-246078571D01*
X374089285Y-246078571D01*
X374232142Y-246150000D01*
X374303571Y-246292857D01*
X374303571Y-247078571D01*
X375660714Y-247078571D02*
X375660714Y-246292857D01*
X375589285Y-246150000D01*
X375446428Y-246078571D01*
X375160714Y-246078571D01*
X375017857Y-246150000D01*
X375660714Y-247007142D02*
X375517857Y-247078571D01*
X375160714Y-247078571D01*
X375017857Y-247007142D01*
X374946428Y-246864285D01*
X374946428Y-246721428D01*
X375017857Y-246578571D01*
X375160714Y-246507142D01*
X375517857Y-246507142D01*
X375660714Y-246435714D01*
X376589285Y-247078571D02*
X376446428Y-247007142D01*
X376375000Y-246864285D01*
X376375000Y-245578571D01*
X379017857Y-247078571D02*
X378303571Y-247078571D01*
X378303571Y-245578571D01*
X379517857Y-247078571D02*
X379517857Y-246078571D01*
X379517857Y-245578571D02*
X379446428Y-245650000D01*
X379517857Y-245721428D01*
X379589285Y-245650000D01*
X379517857Y-245578571D01*
X379517857Y-245721428D01*
X380875000Y-247007142D02*
X380732142Y-247078571D01*
X380446428Y-247078571D01*
X380303571Y-247007142D01*
X380232142Y-246935714D01*
X380160714Y-246792857D01*
X380160714Y-246364285D01*
X380232142Y-246221428D01*
X380303571Y-246150000D01*
X380446428Y-246078571D01*
X380732142Y-246078571D01*
X380875000Y-246150000D01*
X382089285Y-247007142D02*
X381946428Y-247078571D01*
X381660714Y-247078571D01*
X381517857Y-247007142D01*
X381446428Y-246864285D01*
X381446428Y-246292857D01*
X381517857Y-246150000D01*
X381660714Y-246078571D01*
X381946428Y-246078571D01*
X382089285Y-246150000D01*
X382160714Y-246292857D01*
X382160714Y-246435714D01*
X381446428Y-246578571D01*
X382803571Y-246078571D02*
X382803571Y-247078571D01*
X382803571Y-246221428D02*
X382875000Y-246150000D01*
X383017857Y-246078571D01*
X383232142Y-246078571D01*
X383375000Y-246150000D01*
X383446428Y-246292857D01*
X383446428Y-247078571D01*
X384089285Y-247007142D02*
X384232142Y-247078571D01*
X384517857Y-247078571D01*
X384660714Y-247007142D01*
X384732142Y-246864285D01*
X384732142Y-246792857D01*
X384660714Y-246650000D01*
X384517857Y-246578571D01*
X384303571Y-246578571D01*
X384160714Y-246507142D01*
X384089285Y-246364285D01*
X384089285Y-246292857D01*
X384160714Y-246150000D01*
X384303571Y-246078571D01*
X384517857Y-246078571D01*
X384660714Y-246150000D01*
X385946428Y-247007142D02*
X385803571Y-247078571D01*
X385517857Y-247078571D01*
X385375000Y-247007142D01*
X385303571Y-246864285D01*
X385303571Y-246292857D01*
X385375000Y-246150000D01*
X385517857Y-246078571D01*
X385803571Y-246078571D01*
X385946428Y-246150000D01*
X386017857Y-246292857D01*
X386017857Y-246435714D01*
X385303571Y-246578571D01*
D10*
D11*
X331800000Y-260900000D02*
X331800000Y-263900000D01*
D10*
D11*
X395800000Y-260900000D02*
X395800000Y-267400000D01*
D12*
X333419285Y-189675000D02*
X332705000Y-189675000D01*
X333562142Y-190103571D02*
X333062142Y-188603571D01*
X332562142Y-190103571D01*
X330919285Y-189103571D02*
X330919285Y-190603571D01*
X330919285Y-189175000D02*
X330776428Y-189103571D01*
X330490714Y-189103571D01*
X330347857Y-189175000D01*
X330276428Y-189246428D01*
X330205000Y-189389285D01*
X330205000Y-189817857D01*
X330276428Y-189960714D01*
X330347857Y-190032142D01*
X330490714Y-190103571D01*
X330776428Y-190103571D01*
X330919285Y-190032142D01*
X328990714Y-190032142D02*
X329133571Y-190103571D01*
X329419285Y-190103571D01*
X329562142Y-190032142D01*
X329633571Y-189889285D01*
X329633571Y-189317857D01*
X329562142Y-189175000D01*
X329419285Y-189103571D01*
X329133571Y-189103571D01*
X328990714Y-189175000D01*
X328919285Y-189317857D01*
X328919285Y-189460714D01*
X329633571Y-189603571D01*
X328276428Y-190103571D02*
X328276428Y-189103571D01*
X328276428Y-189389285D02*
X328205000Y-189246428D01*
X328133571Y-189175000D01*
X327990714Y-189103571D01*
X327847857Y-189103571D01*
X327419285Y-190032142D02*
X327276428Y-190103571D01*
X326990714Y-190103571D01*
X326847857Y-190032142D01*
X326776428Y-189889285D01*
X326776428Y-189817857D01*
X326847857Y-189675000D01*
X326990714Y-189603571D01*
X327205000Y-189603571D01*
X327347857Y-189532142D01*
X327419285Y-189389285D01*
X327419285Y-189317857D01*
X327347857Y-189175000D01*
X327205000Y-189103571D01*
X326990714Y-189103571D01*
X326847857Y-189175000D01*
X325919285Y-190103571D02*
X326062142Y-190032142D01*
X326133571Y-189960714D01*
X326205000Y-189817857D01*
X326205000Y-189389285D01*
X326133571Y-189246428D01*
X326062142Y-189175000D01*
X325919285Y-189103571D01*
X325705000Y-189103571D01*
X325562142Y-189175000D01*
X325490714Y-189246428D01*
X325419285Y-189389285D01*
X325419285Y-189817857D01*
X325490714Y-189960714D01*
X325562142Y-190032142D01*
X325705000Y-190103571D01*
X325919285Y-190103571D01*
X324776428Y-189103571D02*
X324776428Y-190103571D01*
X324776428Y-189246428D02*
X324705000Y-189175000D01*
X324562142Y-189103571D01*
X324347857Y-189103571D01*
X324205000Y-189175000D01*
X324133571Y-189317857D01*
X324133571Y-190103571D01*
X322776428Y-190103571D02*
X322776428Y-189317857D01*
X322847857Y-189175000D01*
X322990714Y-189103571D01*
X323276428Y-189103571D01*
X323419285Y-189175000D01*
X322776428Y-190032142D02*
X322919285Y-190103571D01*
X323276428Y-190103571D01*
X323419285Y-190032142D01*
X323490714Y-189889285D01*
X323490714Y-189746428D01*
X323419285Y-189603571D01*
X323276428Y-189532142D01*
X322919285Y-189532142D01*
X322776428Y-189460714D01*
X321847857Y-190103571D02*
X321990714Y-190032142D01*
X322062142Y-189889285D01*
X322062142Y-188603571D01*
X320133571Y-190103571D02*
X320133571Y-189103571D01*
X320133571Y-189246428D02*
X320062142Y-189175000D01*
X319919285Y-189103571D01*
X319705000Y-189103571D01*
X319562142Y-189175000D01*
X319490714Y-189317857D01*
X319490714Y-190103571D01*
X319490714Y-189317857D02*
X319419285Y-189175000D01*
X319276428Y-189103571D01*
X319062142Y-189103571D01*
X318919285Y-189175000D01*
X318847857Y-189317857D01*
X318847857Y-190103571D01*
X317562142Y-190032142D02*
X317705000Y-190103571D01*
X317990714Y-190103571D01*
X318133571Y-190032142D01*
X318205000Y-189889285D01*
X318205000Y-189317857D01*
X318133571Y-189175000D01*
X317990714Y-189103571D01*
X317705000Y-189103571D01*
X317562142Y-189175000D01*
X317490714Y-189317857D01*
X317490714Y-189460714D01*
X318205000Y-189603571D01*
X316919285Y-190032142D02*
X316776428Y-190103571D01*
X316490714Y-190103571D01*
X316347857Y-190032142D01*
X316276428Y-189889285D01*
X316276428Y-189817857D01*
X316347857Y-189675000D01*
X316490714Y-189603571D01*
X316705000Y-189603571D01*
X316847857Y-189532142D01*
X316919285Y-189389285D01*
X316919285Y-189317857D01*
X316847857Y-189175000D01*
X316705000Y-189103571D01*
X316490714Y-189103571D01*
X316347857Y-189175000D01*
X315705000Y-190032142D02*
X315562142Y-190103571D01*
X315276428Y-190103571D01*
X315133571Y-190032142D01*
X315062142Y-189889285D01*
X315062142Y-189817857D01*
X315133571Y-189675000D01*
X315276428Y-189603571D01*
X315490714Y-189603571D01*
X315633571Y-189532142D01*
X315705000Y-189389285D01*
X315705000Y-189317857D01*
X315633571Y-189175000D01*
X315490714Y-189103571D01*
X315276428Y-189103571D01*
X315133571Y-189175000D01*
X313776428Y-190103571D02*
X313776428Y-189317857D01*
X313847857Y-189175000D01*
X313990714Y-189103571D01*
X314276428Y-189103571D01*
X314419285Y-189175000D01*
X313776428Y-190032142D02*
X313919285Y-190103571D01*
X314276428Y-190103571D01*
X314419285Y-190032142D01*
X314490714Y-189889285D01*
X314490714Y-189746428D01*
X314419285Y-189603571D01*
X314276428Y-189532142D01*
X313919285Y-189532142D01*
X313776428Y-189460714D01*
X312419285Y-189103571D02*
X312419285Y-190317857D01*
X312490714Y-190460714D01*
X312562142Y-190532142D01*
X312705000Y-190603571D01*
X312919285Y-190603571D01*
X313062142Y-190532142D01*
X312419285Y-190032142D02*
X312562142Y-190103571D01*
X312847857Y-190103571D01*
X312990714Y-190032142D01*
X313062142Y-189960714D01*
X313133571Y-189817857D01*
X313133571Y-189389285D01*
X313062142Y-189246428D01*
X312990714Y-189175000D01*
X312847857Y-189103571D01*
X312562142Y-189103571D01*
X312419285Y-189175000D01*
X311133571Y-190032142D02*
X311276428Y-190103571D01*
X311562142Y-190103571D01*
X311705000Y-190032142D01*
X311776428Y-189889285D01*
X311776428Y-189317857D01*
X311705000Y-189175000D01*
X311562142Y-189103571D01*
X311276428Y-189103571D01*
X311133571Y-189175000D01*
X311062142Y-189317857D01*
X311062142Y-189460714D01*
X311776428Y-189603571D01*
X309419285Y-189103571D02*
X309133571Y-190103571D01*
X308847857Y-189389285D01*
X308562142Y-190103571D01*
X308276428Y-189103571D01*
X307062142Y-190103571D02*
X307062142Y-189317857D01*
X307133571Y-189175000D01*
X307276428Y-189103571D01*
X307562142Y-189103571D01*
X307705000Y-189175000D01*
X307062142Y-190032142D02*
X307205000Y-190103571D01*
X307562142Y-190103571D01*
X307705000Y-190032142D01*
X307776428Y-189889285D01*
X307776428Y-189746428D01*
X307705000Y-189603571D01*
X307562142Y-189532142D01*
X307205000Y-189532142D01*
X307062142Y-189460714D01*
X306419285Y-190032142D02*
X306276428Y-190103571D01*
X305990714Y-190103571D01*
X305847857Y-190032142D01*
X305776428Y-189889285D01*
X305776428Y-189817857D01*
X305847857Y-189675000D01*
X305990714Y-189603571D01*
X306205000Y-189603571D01*
X306347857Y-189532142D01*
X306419285Y-189389285D01*
X306419285Y-189317857D01*
X306347857Y-189175000D01*
X306205000Y-189103571D01*
X305990714Y-189103571D01*
X305847857Y-189175000D01*
X303990714Y-190103571D02*
X303990714Y-188603571D01*
X303347857Y-190103571D02*
X303347857Y-189317857D01*
X303419285Y-189175000D01*
X303562142Y-189103571D01*
X303776428Y-189103571D01*
X303919285Y-189175000D01*
X303990714Y-189246428D01*
X302062142Y-190032142D02*
X302205000Y-190103571D01*
X302490714Y-190103571D01*
X302633571Y-190032142D01*
X302705000Y-189889285D01*
X302705000Y-189317857D01*
X302633571Y-189175000D01*
X302490714Y-189103571D01*
X302205000Y-189103571D01*
X302062142Y-189175000D01*
X301990714Y-189317857D01*
X301990714Y-189460714D01*
X302705000Y-189603571D01*
X301347857Y-190103571D02*
X301347857Y-189103571D01*
X301347857Y-189389285D02*
X301276428Y-189246428D01*
X301205000Y-189175000D01*
X301062142Y-189103571D01*
X300919285Y-189103571D01*
X299847857Y-190032142D02*
X299990714Y-190103571D01*
X300276428Y-190103571D01*
X300419285Y-190032142D01*
X300490714Y-189889285D01*
X300490714Y-189317857D01*
X300419285Y-189175000D01*
X300276428Y-189103571D01*
X299990714Y-189103571D01*
X299847857Y-189175000D01*
X299776428Y-189317857D01*
X299776428Y-189460714D01*
X300490714Y-189603571D01*
X297990714Y-189960714D02*
X297919285Y-190032142D01*
X297990714Y-190103571D01*
X298062142Y-190032142D01*
X297990714Y-189960714D01*
X297990714Y-190103571D01*
X297990714Y-189175000D02*
X297919285Y-189246428D01*
X297990714Y-189317857D01*
X298062142Y-189246428D01*
X297990714Y-189175000D01*
X297990714Y-189317857D01*
X297419285Y-190675000D02*
X297347857Y-190603571D01*
X297205000Y-190389285D01*
X297133571Y-190246428D01*
X297062142Y-190032142D01*
X296990714Y-189675000D01*
X296990714Y-189389285D01*
X297062142Y-189032142D01*
X297133571Y-188817857D01*
X297205000Y-188675000D01*
X297347857Y-188460714D01*
X297419285Y-188389285D01*
X333347857Y-220703571D02*
X333347857Y-219203571D01*
X332705000Y-220632142D02*
X332562142Y-220703571D01*
X332276428Y-220703571D01*
X332133571Y-220632142D01*
X332062142Y-220489285D01*
X332062142Y-220417857D01*
X332133571Y-220275000D01*
X332276428Y-220203571D01*
X332490714Y-220203571D01*
X332633571Y-220132142D01*
X332705000Y-219989285D01*
X332705000Y-219917857D01*
X332633571Y-219775000D01*
X332490714Y-219703571D01*
X332276428Y-219703571D01*
X332133571Y-219775000D01*
X331419285Y-220703571D02*
X331419285Y-219203571D01*
X331276428Y-220132142D02*
X330847857Y-220703571D01*
X330847857Y-219703571D02*
X331419285Y-220275000D01*
X329633571Y-220632142D02*
X329776428Y-220703571D01*
X330062142Y-220703571D01*
X330205000Y-220632142D01*
X330276428Y-220489285D01*
X330276428Y-219917857D01*
X330205000Y-219775000D01*
X330062142Y-219703571D01*
X329776428Y-219703571D01*
X329633571Y-219775000D01*
X329562142Y-219917857D01*
X329562142Y-220060714D01*
X330276428Y-220203571D01*
X328919285Y-219703571D02*
X328919285Y-220703571D01*
X328919285Y-219846428D02*
X328847857Y-219775000D01*
X328705000Y-219703571D01*
X328490714Y-219703571D01*
X328347857Y-219775000D01*
X328276428Y-219917857D01*
X328276428Y-220703571D01*
X326919285Y-220703571D02*
X326919285Y-219203571D01*
X326919285Y-220632142D02*
X327062142Y-220703571D01*
X327347857Y-220703571D01*
X327490714Y-220632142D01*
X327562142Y-220560714D01*
X327633571Y-220417857D01*
X327633571Y-219989285D01*
X327562142Y-219846428D01*
X327490714Y-219775000D01*
X327347857Y-219703571D01*
X327062142Y-219703571D01*
X326919285Y-219775000D01*
X325633571Y-220632142D02*
X325776428Y-220703571D01*
X326062142Y-220703571D01*
X326205000Y-220632142D01*
X326276428Y-220489285D01*
X326276428Y-219917857D01*
X326205000Y-219775000D01*
X326062142Y-219703571D01*
X325776428Y-219703571D01*
X325633571Y-219775000D01*
X325562142Y-219917857D01*
X325562142Y-220060714D01*
X326276428Y-220203571D01*
X324919285Y-220703571D02*
X324919285Y-219703571D01*
X324919285Y-219989285D02*
X324847857Y-219846428D01*
X324776428Y-219775000D01*
X324633571Y-219703571D01*
X324490714Y-219703571D01*
D10*
G36*
X75066958Y-76540710D02*
G01*
X75081276Y-76542834D01*
X75095317Y-76546351D01*
X75108946Y-76551228D01*
X75122031Y-76557417D01*
X75134447Y-76564858D01*
X75146073Y-76573481D01*
X75156798Y-76583202D01*
X75166519Y-76593927D01*
X75175142Y-76605553D01*
X75182583Y-76617969D01*
X75188772Y-76631054D01*
X75193649Y-76644683D01*
X75197166Y-76658724D01*
X75199290Y-76673042D01*
X75200000Y-76687500D01*
X75200000Y-77032500D01*
X75199290Y-77046958D01*
X75197166Y-77061276D01*
X75193649Y-77075317D01*
X75188772Y-77088946D01*
X75182583Y-77102031D01*
X75175142Y-77114447D01*
X75166519Y-77126073D01*
X75156798Y-77136798D01*
X75146073Y-77146519D01*
X75134447Y-77155142D01*
X75122031Y-77162583D01*
X75108946Y-77168772D01*
X75095317Y-77173649D01*
X75081276Y-77177166D01*
X75066958Y-77179290D01*
X75052500Y-77180000D01*
X74757500Y-77180000D01*
X74743042Y-77179290D01*
X74728724Y-77177166D01*
X74714683Y-77173649D01*
X74701054Y-77168772D01*
X74687969Y-77162583D01*
X74675553Y-77155142D01*
X74663927Y-77146519D01*
X74653202Y-77136798D01*
X74643481Y-77126073D01*
X74634858Y-77114447D01*
X74627417Y-77102031D01*
X74621228Y-77088946D01*
X74616351Y-77075317D01*
X74612834Y-77061276D01*
X74610710Y-77046958D01*
X74610000Y-77032500D01*
X74610000Y-76687500D01*
X74610710Y-76673042D01*
X74612834Y-76658724D01*
X74616351Y-76644683D01*
X74621228Y-76631054D01*
X74627417Y-76617969D01*
X74634858Y-76605553D01*
X74643481Y-76593927D01*
X74653202Y-76583202D01*
X74663927Y-76573481D01*
X74675553Y-76564858D01*
X74687969Y-76557417D01*
X74701054Y-76551228D01*
X74714683Y-76546351D01*
X74728724Y-76542834D01*
X74743042Y-76540710D01*
X74757500Y-76540000D01*
X75052500Y-76540000D01*
X75066958Y-76540710D01*
X75066958Y-76540710D01*
G37*
D14*
X74905000Y-76860000D03*
D10*
G36*
X76036958Y-76540710D02*
G01*
X76051276Y-76542834D01*
X76065317Y-76546351D01*
X76078946Y-76551228D01*
X76092031Y-76557417D01*
X76104447Y-76564858D01*
X76116073Y-76573481D01*
X76126798Y-76583202D01*
X76136519Y-76593927D01*
X76145142Y-76605553D01*
X76152583Y-76617969D01*
X76158772Y-76631054D01*
X76163649Y-76644683D01*
X76167166Y-76658724D01*
X76169290Y-76673042D01*
X76170000Y-76687500D01*
X76170000Y-77032500D01*
X76169290Y-77046958D01*
X76167166Y-77061276D01*
X76163649Y-77075317D01*
X76158772Y-77088946D01*
X76152583Y-77102031D01*
X76145142Y-77114447D01*
X76136519Y-77126073D01*
X76126798Y-77136798D01*
X76116073Y-77146519D01*
X76104447Y-77155142D01*
X76092031Y-77162583D01*
X76078946Y-77168772D01*
X76065317Y-77173649D01*
X76051276Y-77177166D01*
X76036958Y-77179290D01*
X76022500Y-77180000D01*
X75727500Y-77180000D01*
X75713042Y-77179290D01*
X75698724Y-77177166D01*
X75684683Y-77173649D01*
X75671054Y-77168772D01*
X75657969Y-77162583D01*
X75645553Y-77155142D01*
X75633927Y-77146519D01*
X75623202Y-77136798D01*
X75613481Y-77126073D01*
X75604858Y-77114447D01*
X75597417Y-77102031D01*
X75591228Y-77088946D01*
X75586351Y-77075317D01*
X75582834Y-77061276D01*
X75580710Y-77046958D01*
X75580000Y-77032500D01*
X75580000Y-76687500D01*
X75580710Y-76673042D01*
X75582834Y-76658724D01*
X75586351Y-76644683D01*
X75591228Y-76631054D01*
X75597417Y-76617969D01*
X75604858Y-76605553D01*
X75613481Y-76593927D01*
X75623202Y-76583202D01*
X75633927Y-76573481D01*
X75645553Y-76564858D01*
X75657969Y-76557417D01*
X75671054Y-76551228D01*
X75684683Y-76546351D01*
X75698724Y-76542834D01*
X75713042Y-76540710D01*
X75727500Y-76540000D01*
X76022500Y-76540000D01*
X76036958Y-76540710D01*
X76036958Y-76540710D01*
G37*
D14*
X75875000Y-76860000D03*
D15*
X171500000Y-176000000D03*
X198700000Y-64600000D03*
X234500000Y-65000000D03*
X237700000Y-65000000D03*
X177100000Y-64900000D03*
X181800000Y-64900000D03*
X126800000Y-106400000D03*
X126800000Y-110800000D03*
X171050000Y-180100000D03*
X186100000Y-64500000D03*
X190400000Y-64600000D03*
X151600000Y-65200000D03*
X155500000Y-65200000D03*
X127750000Y-160450000D03*
X127950000Y-165650000D03*
X176200000Y-176600000D03*
X175200000Y-172000000D03*
X284200000Y-110600000D03*
X284100000Y-115200000D03*
X212400000Y-64800000D03*
X216700000Y-64800000D03*
X126800000Y-79300000D03*
X126600000Y-83900000D03*
X148100000Y-210600000D03*
X151600000Y-209000000D03*
X194800000Y-64600000D03*
X159500000Y-65100000D03*
X163400000Y-64900000D03*
X124800000Y-157150000D03*
X127500000Y-172750000D03*
X141950000Y-209100000D03*
X145900000Y-206750000D03*
X284100000Y-96900000D03*
X284200000Y-102300000D03*
X202600000Y-64700000D03*
X207300000Y-64700000D03*
X126800000Y-87900000D03*
X126900000Y-92100000D03*
X131650000Y-200550000D03*
X137150000Y-200400000D03*
X244900000Y-64800000D03*
X249300000Y-64800000D03*
X167500000Y-64800000D03*
X171900000Y-64800000D03*
X135400000Y-171600000D03*
X153050000Y-171800000D03*
X139850000Y-171650000D03*
X144200000Y-171700000D03*
X148900000Y-171700000D03*
X233150000Y-172250000D03*
X285600000Y-135700000D03*
X164600000Y-172300000D03*
X141300000Y-65030000D03*
X285600000Y-131500000D03*
X169000000Y-172000000D03*
X201700000Y-172200000D03*
X197500000Y-172000000D03*
X228350000Y-172350000D03*
X285700000Y-127300000D03*
X187200000Y-172000000D03*
X193300000Y-171900000D03*
X179200000Y-172000000D03*
X223600000Y-172400000D03*
X183250000Y-172100000D03*
X206400000Y-172250000D03*
X210800000Y-172150000D03*
X215300000Y-172250000D03*
X219450000Y-172250000D03*
X210600000Y-182100000D03*
X215400000Y-178350000D03*
X215450000Y-182350000D03*
X210650000Y-178300000D03*
X127000000Y-122200000D03*
X127000000Y-153500000D03*
X157650000Y-171750000D03*
X96900000Y-200400000D03*
X161100000Y-174750000D03*
X127000000Y-132000000D03*
X127200000Y-97300000D03*
X122900000Y-160600000D03*
X126900000Y-102000000D03*
X127500000Y-169150000D03*
X119750000Y-163950000D03*
X127200000Y-138800000D03*
X127000000Y-126700000D03*
X125600000Y-149750000D03*
X126900000Y-118900000D03*
X131600000Y-171600000D03*
X101900000Y-193400000D03*
X103300000Y-200200000D03*
X215400000Y-186100000D03*
X282600000Y-156100000D03*
X278300000Y-171900000D03*
X282600000Y-160100000D03*
X282500000Y-164600000D03*
X282400000Y-168900000D03*
X133990000Y-65470000D03*
X126700000Y-66300000D03*
X146400000Y-60700000D03*
X163200000Y-60600000D03*
X126800000Y-70900000D03*
X142000000Y-60600000D03*
X158700000Y-60500000D03*
X126600000Y-75000000D03*
X137500000Y-60500000D03*
X153400000Y-60400000D03*
X75260000Y-69320000D03*
X80250000Y-69870000D03*
X75190000Y-65110000D03*
X75090000Y-61020000D03*
X80230000Y-75510000D03*
D16*
X193400000Y-110100000D03*
X101200000Y-167800000D03*
X192100000Y-110200000D03*
X99705240Y-167805240D03*
X156250000Y-197450000D03*
X153900000Y-197700000D03*
X177900000Y-109300000D03*
X178500000Y-108500000D03*
X122600000Y-169450000D03*
X124150000Y-170000000D03*
X155100000Y-203600000D03*
X154100000Y-204300000D03*
X285800000Y-108200000D03*
X284200000Y-108400000D03*
X205900000Y-106400000D03*
X207200000Y-106600000D03*
X79600000Y-170000000D03*
X80800000Y-170200000D03*
X151700000Y-206200000D03*
X148600000Y-206800000D03*
X194100000Y-93800000D03*
X195800000Y-94100000D03*
X180700000Y-107700000D03*
X179800000Y-108400000D03*
X121800000Y-171900000D03*
X121150000Y-169100000D03*
X146300000Y-205000000D03*
X144500000Y-204900000D03*
X283218782Y-105081218D03*
X282100000Y-105600000D03*
X202800000Y-107100000D03*
X204200000Y-107100000D03*
X81700000Y-168100000D03*
X82900000Y-169000000D03*
X130800000Y-197000000D03*
X135100000Y-197700000D03*
X242100000Y-106400000D03*
X243400000Y-106400000D03*
X192400000Y-114400000D03*
X192400000Y-113000000D03*
X236100000Y-98600000D03*
X234600000Y-98700000D03*
X191200000Y-93400000D03*
X192400000Y-93400000D03*
X139700000Y-179200000D03*
X132600000Y-179500000D03*
X154550000Y-178600000D03*
X147550000Y-179200000D03*
X127500000Y-179000000D03*
X229500000Y-182300000D03*
X237700000Y-181200000D03*
X245500000Y-181300000D03*
X253000000Y-180900000D03*
X229500000Y-176600000D03*
X136100000Y-178300000D03*
X237500000Y-177300000D03*
X144000000Y-178200000D03*
X245400000Y-177400000D03*
X151100000Y-177800000D03*
X251100000Y-177000000D03*
X159500000Y-183500000D03*
X221150000Y-184500000D03*
X172400000Y-140000000D03*
X215200000Y-142400000D03*
X212300000Y-141200000D03*
X160600000Y-184800000D03*
X195150000Y-185200000D03*
X174800000Y-140500000D03*
X189900000Y-188000000D03*
X221950000Y-186950000D03*
X188900000Y-146200000D03*
X191500000Y-179100000D03*
X172200000Y-194150000D03*
X187250000Y-194250000D03*
X192250000Y-194250000D03*
X210500000Y-194200000D03*
X191450000Y-188850000D03*
X187800000Y-188150000D03*
X191400000Y-190100000D03*
X191450000Y-191600000D03*
X191450000Y-192950000D03*
X191400000Y-196650000D03*
X191450000Y-198300000D03*
X191450000Y-200600000D03*
X191250000Y-195300000D03*
X108150000Y-179650000D03*
X75860000Y-201750000D03*
X75270000Y-197560000D03*
X170900000Y-142200000D03*
X138300000Y-147200000D03*
X161200000Y-148100000D03*
X163900000Y-148200000D03*
X132200000Y-154500000D03*
X87400000Y-186700000D03*
X77990000Y-196780000D03*
X74680000Y-191800000D03*
X126845028Y-162583834D03*
X165750000Y-156000000D03*
X139600000Y-163850000D03*
X115650000Y-176100000D03*
X163400000Y-164000000D03*
X157850000Y-175350000D03*
X92550000Y-196650000D03*
X156000000Y-190400000D03*
X100250000Y-198350000D03*
X151400000Y-196700000D03*
X100900000Y-203950000D03*
X128100000Y-203450000D03*
X81400000Y-195700000D03*
X85800000Y-187200000D03*
X139150000Y-142350000D03*
X105000000Y-183900000D03*
X129250000Y-141750000D03*
X132500000Y-142250000D03*
X142100000Y-141800000D03*
X168774999Y-147374999D03*
X141550000Y-163850000D03*
X101150000Y-191000000D03*
X103350000Y-197700000D03*
X191400000Y-202400000D03*
X138450000Y-67340000D03*
X137950000Y-69370000D03*
X150920000Y-70910000D03*
X161790000Y-71560000D03*
X137600000Y-75100000D03*
X148180000Y-76720000D03*
X158480000Y-78690000D03*
X137100000Y-80820000D03*
X148000000Y-84750000D03*
X158570000Y-85830000D03*
X73790000Y-76400000D03*
X77700000Y-73760000D03*
X73390000Y-74460000D03*
X74560000Y-72290000D03*
X77720000Y-75570000D03*
D17*
X181800000Y-98500000D02*
X181800000Y-64900000D01*
X193400000Y-110100000D02*
X181800000Y-98500000D01*
X101200000Y-167234315D02*
X102100000Y-166334315D01*
X101200000Y-167800000D02*
X101200000Y-167234315D01*
X102100000Y-135500000D02*
X126800000Y-110800000D01*
X102100000Y-166334315D02*
X102100000Y-135500000D01*
X177100000Y-95200000D02*
X177100000Y-64900000D01*
X192100000Y-110200000D02*
X177100000Y-95200000D01*
X99705240Y-133494760D02*
X126800000Y-106400000D01*
X99705240Y-167805240D02*
X99705240Y-133494760D01*
X168350000Y-182800000D02*
X171050000Y-180100000D01*
X168350000Y-183800000D02*
X168350000Y-182800000D01*
X156250000Y-195900000D02*
X168350000Y-183800000D01*
X156250000Y-197450000D02*
X156250000Y-195900000D01*
X153900000Y-196700000D02*
X165050000Y-185550000D01*
X165050000Y-185550000D02*
X165050000Y-182450000D01*
X153900000Y-197700000D02*
X153900000Y-196700000D01*
X165050000Y-182450000D02*
X171500000Y-176000000D01*
X151600000Y-83000000D02*
X151600000Y-65200000D01*
X177900000Y-109300000D02*
X151600000Y-83000000D01*
X155500000Y-85500000D02*
X155500000Y-65200000D01*
X178500000Y-108500000D02*
X155500000Y-85500000D01*
X122600000Y-169450000D02*
X122600000Y-166950000D01*
X122600000Y-166950000D02*
X124850000Y-164700000D01*
X124850000Y-163350000D02*
X127750000Y-160450000D01*
X124850000Y-164700000D02*
X124850000Y-163350000D01*
X127950000Y-166200000D02*
X127950000Y-165650000D01*
X124150000Y-170000000D02*
X127950000Y-166200000D01*
X158350000Y-203050000D02*
X159200000Y-203050000D01*
X158350000Y-203050000D02*
X158550000Y-203050000D01*
X159200000Y-203050000D02*
X173550000Y-188700000D01*
X173550000Y-173650000D02*
X175200000Y-172000000D01*
X173550000Y-188700000D02*
X173550000Y-173650000D01*
X156215685Y-203050000D02*
X158350000Y-203050000D01*
X155665685Y-203600000D02*
X156215685Y-203050000D01*
X155100000Y-203600000D02*
X155665685Y-203600000D01*
X176200000Y-176600000D02*
X176200000Y-187400000D01*
X176200000Y-187400000D02*
X158100000Y-205500000D01*
X155300000Y-205500000D02*
X154100000Y-204300000D01*
X158100000Y-205500000D02*
X155300000Y-205500000D01*
X285800000Y-113500000D02*
X284100000Y-115200000D01*
X285800000Y-108200000D02*
X285800000Y-113500000D01*
X284200000Y-108400000D02*
X284200000Y-110600000D01*
X212400000Y-99900000D02*
X205900000Y-106400000D01*
X212400000Y-64800000D02*
X212400000Y-99900000D01*
X207200000Y-106600000D02*
X216700000Y-97100000D01*
X216700000Y-97100000D02*
X216700000Y-64800000D01*
X79600000Y-169434315D02*
X79600000Y-170000000D01*
X79600000Y-106363590D02*
X79600000Y-169534315D01*
X106663590Y-79300000D02*
X79600000Y-106363590D01*
X126800000Y-79300000D02*
X106663590Y-79300000D01*
X102700000Y-83900000D02*
X126600000Y-83900000D01*
X80800000Y-170200000D02*
X80800000Y-105800000D01*
X80800000Y-105800000D02*
X102700000Y-83900000D01*
X151700000Y-208900000D02*
X151600000Y-209000000D01*
X151700000Y-206200000D02*
X151700000Y-208900000D01*
X148100000Y-207300000D02*
X148100000Y-210600000D01*
X148600000Y-206800000D02*
X148100000Y-207300000D01*
X194499999Y-93400001D02*
X194100000Y-93800000D01*
X194800000Y-93100000D02*
X194499999Y-93400001D01*
X194800000Y-64600000D02*
X194800000Y-93100000D01*
X198700000Y-91200000D02*
X195800000Y-94100000D01*
X198700000Y-64600000D02*
X198700000Y-91200000D01*
X163400000Y-90400000D02*
X163400000Y-64900000D01*
X180700000Y-107700000D02*
X163400000Y-90400000D01*
X159500000Y-88100000D02*
X159500000Y-65100000D01*
X179800000Y-108400000D02*
X159500000Y-88100000D01*
X122650000Y-172750000D02*
X127500000Y-172750000D01*
X121800000Y-171900000D02*
X122650000Y-172750000D01*
X124800000Y-162450000D02*
X124800000Y-157150000D01*
X121150000Y-169100000D02*
X121150000Y-166100000D01*
X121150000Y-166100000D02*
X124800000Y-162450000D01*
X146300000Y-206350000D02*
X145900000Y-206750000D01*
X146300000Y-205000000D02*
X146300000Y-206350000D01*
X141950000Y-209100000D02*
X141950000Y-207450000D01*
X141950000Y-207450000D02*
X144500000Y-204900000D01*
X283218782Y-103281218D02*
X284200000Y-102300000D01*
X283218782Y-105081218D02*
X283218782Y-103281218D01*
X282100000Y-98900000D02*
X284100000Y-96900000D01*
X282100000Y-105600000D02*
X282100000Y-98900000D01*
X202600000Y-106900000D02*
X202800000Y-107100000D01*
X202600000Y-64700000D02*
X202600000Y-106900000D01*
X207300000Y-64700000D02*
X204900000Y-67100000D01*
X204900000Y-106400000D02*
X204200000Y-107100000D01*
X204900000Y-67100000D02*
X204900000Y-106400000D01*
X86200000Y-128500000D02*
X86200000Y-163800000D01*
X126800000Y-87900000D02*
X86200000Y-128500000D01*
X86200000Y-163800000D02*
X81900000Y-168100000D01*
X81900000Y-168100000D02*
X81700000Y-168100000D01*
X126900000Y-92100000D02*
X86900000Y-132100000D01*
X86900000Y-132100000D02*
X86900000Y-165000000D01*
X86900000Y-165000000D02*
X82900000Y-169000000D01*
X130800000Y-199700000D02*
X131650000Y-200550000D01*
X130800000Y-197000000D02*
X130800000Y-199700000D01*
X137150000Y-199750000D02*
X137150000Y-200400000D01*
X135100000Y-197700000D02*
X137150000Y-199750000D01*
X244900000Y-103600000D02*
X242100000Y-106400000D01*
X244900000Y-64800000D02*
X244900000Y-103600000D01*
X249300000Y-100500000D02*
X249300000Y-64800000D01*
X243400000Y-106400000D02*
X249300000Y-100500000D01*
X167500000Y-89500000D02*
X167500000Y-64800000D01*
X192400000Y-114400000D02*
X167500000Y-89500000D01*
X192400000Y-113000000D02*
X192400000Y-112400000D01*
X192500000Y-112500000D02*
X171900000Y-91900000D01*
X171900000Y-91900000D02*
X171900000Y-65000000D01*
X236100000Y-66600000D02*
X237700000Y-65000000D01*
X236100000Y-98600000D02*
X236100000Y-66600000D01*
X234500000Y-98600000D02*
X234600000Y-98700000D01*
X234500000Y-65000000D02*
X234500000Y-98600000D01*
X186100000Y-88300000D02*
X191200000Y-93400000D01*
X186100000Y-64500000D02*
X186100000Y-88300000D01*
X190400000Y-91400000D02*
X192400000Y-93400000D01*
X190400000Y-64600000D02*
X190400000Y-91400000D01*
X132600000Y-179500000D02*
X133300000Y-180200000D01*
X138700000Y-180200000D02*
X139700000Y-179200000D01*
X133300000Y-180200000D02*
X138700000Y-180200000D01*
X153050000Y-172860660D02*
X154550000Y-174360660D01*
X153050000Y-171800000D02*
X153050000Y-172860660D01*
X154550000Y-174360660D02*
X154550000Y-178600000D01*
X153950000Y-179200000D02*
X154550000Y-178600000D01*
X139700000Y-179200000D02*
X153950000Y-179200000D01*
X134900000Y-171600000D02*
X135400000Y-171600000D01*
X127500000Y-179000000D02*
X134900000Y-171600000D01*
X267900000Y-182300000D02*
X278300000Y-171900000D01*
X238200000Y-181700000D02*
X238200000Y-182300000D01*
X237700000Y-181200000D02*
X238200000Y-181700000D01*
X229500000Y-182300000D02*
X238200000Y-182300000D01*
X245500000Y-181300000D02*
X245900000Y-181700000D01*
X245900000Y-181700000D02*
X245900000Y-182300000D01*
X238200000Y-182300000D02*
X245900000Y-182300000D01*
X245900000Y-182300000D02*
X267900000Y-182300000D01*
X253000000Y-180900000D02*
X253000000Y-182200000D01*
X229500000Y-176600000D02*
X235700000Y-176600000D01*
X235700000Y-176600000D02*
X243200000Y-169100000D01*
X243200000Y-169100000D02*
X264200000Y-169100000D01*
X277200000Y-156100000D02*
X281900000Y-156100000D01*
X264200000Y-169100000D02*
X277200000Y-156100000D01*
X139850000Y-174550000D02*
X139850000Y-171650000D01*
X136100000Y-178300000D02*
X139850000Y-174550000D01*
X278100000Y-160100000D02*
X281800000Y-160100000D01*
X265800000Y-172400000D02*
X278100000Y-160100000D01*
X241834315Y-172400000D02*
X265800000Y-172400000D01*
X237500000Y-177300000D02*
X237500000Y-176734315D01*
X237500000Y-176734315D02*
X241834315Y-172400000D01*
X281800000Y-160100000D02*
X282600000Y-160100000D01*
X144000000Y-171900000D02*
X144200000Y-171700000D01*
X144000000Y-178200000D02*
X144000000Y-171900000D01*
X245965685Y-177400000D02*
X248065685Y-175300000D01*
X245400000Y-177400000D02*
X245965685Y-177400000D01*
X248065685Y-175300000D02*
X265700000Y-175300000D01*
X276400000Y-164600000D02*
X281900000Y-164600000D01*
X265700000Y-175300000D02*
X276400000Y-164600000D01*
X151100000Y-177800000D02*
X151100000Y-176400000D01*
X148900000Y-174200000D02*
X148900000Y-171700000D01*
X151100000Y-176400000D02*
X148900000Y-174200000D01*
X276900000Y-168900000D02*
X281900000Y-168900000D01*
X251100000Y-177000000D02*
X268800000Y-177000000D01*
X268800000Y-177000000D02*
X276900000Y-168900000D01*
X164600000Y-178400000D02*
X164600000Y-172300000D01*
X159500000Y-183500000D02*
X164600000Y-178400000D01*
X232400001Y-171500001D02*
X233150000Y-172250000D01*
X232174999Y-171274999D02*
X232400001Y-171500001D01*
X227833999Y-171274999D02*
X232174999Y-171274999D01*
X221150000Y-177958998D02*
X227833999Y-171274999D01*
X221150000Y-184500000D02*
X221150000Y-177958998D01*
X172400000Y-140000000D02*
X169600000Y-140000000D01*
X141300000Y-111700000D02*
X147610000Y-118010000D01*
X141300000Y-65030000D02*
X141300000Y-111700000D01*
X169600000Y-140000000D02*
X147610000Y-118010000D01*
X147610000Y-118010000D02*
X147400000Y-117800000D01*
X285600000Y-135700000D02*
X282900000Y-135700000D01*
X282900000Y-135700000D02*
X276200000Y-142400000D01*
X276200000Y-142400000D02*
X215200000Y-142400000D01*
X276299999Y-140800001D02*
X285600000Y-131500000D01*
X212300000Y-141200000D02*
X212699999Y-140800001D01*
X212699999Y-140800001D02*
X276299999Y-140800001D01*
X169000000Y-176400000D02*
X169000000Y-172000000D01*
X160600000Y-184800000D02*
X169000000Y-176400000D01*
X201700000Y-173260660D02*
X201700000Y-172200000D01*
X201700000Y-179215685D02*
X201700000Y-173260660D01*
X195715685Y-185200000D02*
X201700000Y-179215685D01*
X195150000Y-185200000D02*
X195715685Y-185200000D01*
X284639340Y-127300000D02*
X285700000Y-127300000D01*
X188565685Y-127300000D02*
X284639340Y-127300000D01*
X175365685Y-140500000D02*
X188565685Y-127300000D01*
X174800000Y-140500000D02*
X175365685Y-140500000D01*
X189900000Y-188000000D02*
X197500000Y-180400000D01*
X197500000Y-172000000D02*
X197500000Y-173200000D01*
X197500000Y-180400000D02*
X197500000Y-173200000D01*
X197500000Y-173200000D02*
X197500000Y-173000000D01*
X228350000Y-180550000D02*
X228350000Y-172350000D01*
X221950000Y-186950000D02*
X228350000Y-180550000D01*
X187200000Y-170939340D02*
X188900000Y-169239340D01*
X187200000Y-172000000D02*
X187200000Y-170939340D01*
X188900000Y-169239340D02*
X188900000Y-146200000D01*
X193300000Y-177300000D02*
X193300000Y-171900000D01*
X191500000Y-179100000D02*
X193300000Y-177300000D01*
X179200000Y-173060660D02*
X179200000Y-172000000D01*
X179200000Y-186584315D02*
X179200000Y-173060660D01*
X172200000Y-193584315D02*
X179200000Y-186584315D01*
X172200000Y-194150000D02*
X172200000Y-193584315D01*
X187250000Y-194250000D02*
X192250000Y-194250000D01*
X222850001Y-173149999D02*
X223600000Y-172400000D01*
X219449990Y-176550010D02*
X222850001Y-173149999D01*
X214599990Y-176550010D02*
X219449990Y-176550010D01*
X212599990Y-178550010D02*
X214599990Y-176550010D01*
X212599990Y-181691012D02*
X212599990Y-178550010D01*
X210100001Y-184191001D02*
X212599990Y-181691012D01*
X210100001Y-193800001D02*
X210100001Y-184191001D01*
X210500000Y-194200000D02*
X210100001Y-193800001D01*
X206400000Y-173310660D02*
X206400000Y-172250000D01*
X206400000Y-175152095D02*
X206400000Y-173310660D01*
X192702095Y-188850000D02*
X206400000Y-175152095D01*
X191450000Y-188850000D02*
X192702095Y-188850000D01*
X187800000Y-176650000D02*
X183250000Y-172100000D01*
X187800000Y-188150000D02*
X187800000Y-176650000D01*
X192850000Y-190100000D02*
X210800000Y-172150000D01*
X191400000Y-190100000D02*
X192850000Y-190100000D01*
X191450000Y-191600000D02*
X192850000Y-191600000D01*
X192850000Y-191600000D02*
X209450000Y-175000000D01*
X212550000Y-175000000D02*
X215300000Y-172250000D01*
X209450000Y-175000000D02*
X212550000Y-175000000D01*
X192015685Y-192950000D02*
X192365685Y-192600000D01*
X191450000Y-192950000D02*
X192015685Y-192950000D01*
X192365685Y-192600000D02*
X193100000Y-192600000D01*
X193100000Y-192600000D02*
X209600000Y-176100000D01*
X215600000Y-176100000D02*
X219450000Y-172250000D01*
X209600000Y-176100000D02*
X215600000Y-176100000D01*
X196050000Y-196650000D02*
X210600000Y-182100000D01*
X191400000Y-196650000D02*
X196050000Y-196650000D01*
X191450000Y-198300000D02*
X208250000Y-198300000D01*
X208250000Y-198300000D02*
X211450000Y-195100000D01*
X211450000Y-195100000D02*
X211450000Y-184300000D01*
X211450000Y-184300000D02*
X213050000Y-182700000D01*
X213050000Y-180700000D02*
X215400000Y-178350000D01*
X213050000Y-182700000D02*
X213050000Y-180700000D01*
X191450000Y-200600000D02*
X193100000Y-198950000D01*
X193100000Y-198950000D02*
X211700000Y-198950000D01*
X211700000Y-198950000D02*
X213150000Y-197500000D01*
X213150000Y-184650000D02*
X215450000Y-182350000D01*
X213150000Y-197500000D02*
X213150000Y-184650000D01*
X193650000Y-195300000D02*
X210650000Y-178300000D01*
X191250000Y-195300000D02*
X193650000Y-195300000D01*
X108150000Y-179650000D02*
X108150000Y-178800000D01*
X120300000Y-166650000D02*
X120300000Y-165350000D01*
X108150000Y-178800000D02*
X120300000Y-166650000D01*
X122900000Y-162750000D02*
X122900000Y-160600000D01*
X120300000Y-165350000D02*
X122900000Y-162750000D01*
X75860000Y-201750000D02*
X75270000Y-201160000D01*
X75270000Y-201160000D02*
X75270000Y-197560000D01*
X170900000Y-142200000D02*
X143300000Y-142200000D01*
X143300000Y-142200000D02*
X138300000Y-147200000D01*
X155800000Y-153500000D02*
X127500000Y-153500000D01*
X161200000Y-148100000D02*
X155800000Y-153500000D01*
X163900000Y-148200000D02*
X157600000Y-154500000D01*
X157600000Y-154500000D02*
X132200000Y-154500000D01*
X125839340Y-102000000D02*
X88500000Y-139339340D01*
X126900000Y-102000000D02*
X125839340Y-102000000D01*
X88500000Y-139339340D02*
X88500000Y-183650000D01*
X88500000Y-185034315D02*
X88500000Y-183650000D01*
X87400000Y-186134315D02*
X88500000Y-185034315D01*
X87400000Y-186700000D02*
X87400000Y-186134315D01*
X77990000Y-196780000D02*
X74680000Y-193470000D01*
X74680000Y-193470000D02*
X74680000Y-191800000D01*
X128479756Y-162583834D02*
X132963590Y-158100000D01*
X126845028Y-162583834D02*
X128479756Y-162583834D01*
X132963590Y-158100000D02*
X163750000Y-158100000D01*
X163750000Y-158100000D02*
X165750000Y-156100000D01*
X165750000Y-156100000D02*
X165750000Y-156000000D01*
X134300000Y-169150000D02*
X127500000Y-169150000D01*
X139600000Y-163850000D02*
X134300000Y-169150000D01*
X162824999Y-164575001D02*
X163400000Y-164000000D01*
X140811409Y-164575001D02*
X162824999Y-164575001D01*
X115650000Y-176100000D02*
X129286410Y-176100000D01*
X129286410Y-176100000D02*
X140811409Y-164575001D01*
X157850000Y-171950000D02*
X157650000Y-171750000D01*
X157850000Y-175350000D02*
X157850000Y-171950000D01*
X92550000Y-196650000D02*
X93650000Y-195550000D01*
X93650000Y-195550000D02*
X150850000Y-195550000D01*
X150850000Y-195550000D02*
X156000000Y-190400000D01*
X98200000Y-200400000D02*
X96900000Y-200400000D01*
X100250000Y-198350000D02*
X98200000Y-200400000D01*
X101525001Y-204575001D02*
X100900000Y-203950000D01*
X151400000Y-196700000D02*
X143524999Y-204575001D01*
X143524999Y-204575001D02*
X101525001Y-204575001D01*
X155911409Y-191125001D02*
X143586410Y-203450000D01*
X156348001Y-191125001D02*
X155911409Y-191125001D01*
X156725001Y-190748001D02*
X156348001Y-191125001D01*
X156725001Y-180185659D02*
X156725001Y-190748001D01*
X161100000Y-174750000D02*
X161100000Y-175810660D01*
X161100000Y-175810660D02*
X156725001Y-180185659D01*
X143586410Y-203450000D02*
X128100000Y-203450000D01*
X104750000Y-154250000D02*
X127000000Y-132000000D01*
X104750000Y-170500000D02*
X104750000Y-154250000D01*
X82250000Y-193000000D02*
X104750000Y-170500000D01*
X81400000Y-193850000D02*
X82250000Y-193000000D01*
X81400000Y-195700000D02*
X81400000Y-193850000D01*
X127200000Y-97300000D02*
X87750000Y-136750000D01*
X87750000Y-136750000D02*
X87750000Y-181150000D01*
X87750000Y-184350000D02*
X87750000Y-181150000D01*
X85800000Y-187200000D02*
X85800000Y-186300000D01*
X85800000Y-186300000D02*
X87750000Y-184350000D01*
X139150000Y-141784315D02*
X139250000Y-141684315D01*
X139150000Y-142350000D02*
X139150000Y-141784315D01*
X139250000Y-134450000D02*
X127000000Y-122200000D01*
X139250000Y-141684315D02*
X139250000Y-134450000D01*
X105000000Y-183900000D02*
X105000000Y-180250000D01*
X105000000Y-180250000D02*
X115900000Y-169350000D01*
X115900000Y-167800000D02*
X119750000Y-163950000D01*
X115900000Y-169350000D02*
X115900000Y-167800000D01*
X127200000Y-139700000D02*
X127200000Y-138800000D01*
X129250000Y-141750000D02*
X127200000Y-139700000D01*
X132500000Y-132200000D02*
X127000000Y-126700000D01*
X132500000Y-142250000D02*
X132500000Y-132200000D01*
X142100000Y-141800000D02*
X140800000Y-140500000D01*
X140800000Y-132800000D02*
X126900000Y-118900000D01*
X140800000Y-140500000D02*
X140800000Y-132800000D01*
X158476998Y-149750000D02*
X125600000Y-149750000D01*
X168774999Y-147374999D02*
X160851999Y-147374999D01*
X160851999Y-147374999D02*
X158476998Y-149750000D01*
X132675001Y-170524999D02*
X134225001Y-170524999D01*
X131600000Y-171600000D02*
X132675001Y-170524999D01*
X134225001Y-170524999D02*
X140900000Y-163850000D01*
X140900000Y-163850000D02*
X141550000Y-163850000D01*
X101900000Y-193400000D02*
X101900000Y-191750000D01*
X101900000Y-191750000D02*
X101150000Y-191000000D01*
X103300000Y-200200000D02*
X103300000Y-197750000D01*
X103300000Y-197750000D02*
X103350000Y-197700000D01*
X215400000Y-197150000D02*
X215400000Y-186100000D01*
X212000000Y-200550000D02*
X215400000Y-197150000D01*
X193815685Y-200550000D02*
X212000000Y-200550000D01*
X191400000Y-202400000D02*
X191965685Y-202400000D01*
X191965685Y-202400000D02*
X193815685Y-200550000D01*
X136580000Y-65470000D02*
X133990000Y-65470000D01*
X138450000Y-67340000D02*
X136580000Y-65470000D01*
X129770000Y-69370000D02*
X126700000Y-66300000D01*
X137950000Y-69370000D02*
X129770000Y-69370000D01*
X146400000Y-61760660D02*
X146400000Y-60700000D01*
X146400000Y-65824315D02*
X146400000Y-61760660D01*
X150920000Y-70344315D02*
X146400000Y-65824315D01*
X150920000Y-70910000D02*
X150920000Y-70344315D01*
X161790000Y-62010000D02*
X163200000Y-60600000D01*
X161790000Y-71560000D02*
X161790000Y-62010000D01*
X131000000Y-75100000D02*
X126800000Y-70900000D01*
X137600000Y-75100000D02*
X131000000Y-75100000D01*
X148180000Y-76154315D02*
X147650000Y-75624315D01*
X148180000Y-76720000D02*
X148180000Y-76154315D01*
X147650000Y-75624315D02*
X147650000Y-68000000D01*
X147650000Y-68000000D02*
X144190000Y-64540000D01*
X144190000Y-62790000D02*
X142000000Y-60600000D01*
X144190000Y-64540000D02*
X144190000Y-62790000D01*
X157950001Y-61249999D02*
X158700000Y-60500000D01*
X158480000Y-78690000D02*
X157950001Y-78160001D01*
X157950001Y-78160001D02*
X157950001Y-61249999D01*
X132420000Y-80820000D02*
X126600000Y-75000000D01*
X132420000Y-80820000D02*
X137100000Y-80820000D01*
X148000000Y-84750000D02*
X146210000Y-82960000D01*
X146210000Y-82960000D02*
X146210000Y-68310000D01*
X146210000Y-68310000D02*
X143280000Y-65380000D01*
X143280000Y-65380000D02*
X143280000Y-64080000D01*
X143280000Y-64080000D02*
X141820000Y-62620000D01*
X139620000Y-62620000D02*
X137500000Y-60500000D01*
X141820000Y-62620000D02*
X139620000Y-62620000D01*
X158570000Y-85830000D02*
X157360000Y-84620000D01*
X157360000Y-64360000D02*
X153400000Y-60400000D01*
X157360000Y-84620000D02*
X157360000Y-64360000D01*
X74905000Y-76860000D02*
X74250000Y-76860000D01*
X74250000Y-76860000D02*
X73790000Y-76400000D01*
X74905000Y-76860000D02*
X74905000Y-74245000D01*
X74905000Y-74245000D02*
X73680000Y-73020000D01*
X73680000Y-73020000D02*
X73680000Y-71450000D01*
X73680000Y-71450000D02*
X74130000Y-71000000D01*
X74130000Y-71000000D02*
X74950000Y-71000000D01*
X75260000Y-70690000D02*
X75260000Y-69320000D01*
X74950000Y-71000000D02*
X75260000Y-70690000D01*
X75875000Y-76860000D02*
X75875000Y-75585000D01*
X75875000Y-75585000D02*
X77700000Y-73760000D01*
X77700000Y-73760000D02*
X80250000Y-71210000D01*
X80250000Y-71210000D02*
X80250000Y-69870000D01*
X73390000Y-73894315D02*
X73040000Y-73544315D01*
X73390000Y-74460000D02*
X73390000Y-73894315D01*
X73040000Y-67260000D02*
X75190000Y-65110000D01*
X73040000Y-73544315D02*
X73040000Y-67260000D01*
X74560000Y-72290000D02*
X74960000Y-71890000D01*
X74960000Y-71890000D02*
X76640000Y-71890000D01*
X76640000Y-71890000D02*
X77670000Y-70860000D01*
X77670000Y-63600000D02*
X75090000Y-61020000D01*
X77670000Y-70860000D02*
X77670000Y-63600000D01*
X80170000Y-75570000D02*
X80230000Y-75510000D01*
X77720000Y-75570000D02*
X80170000Y-75570000D01*
M02*
