G04 #@! TF.GenerationSoftware,KiCad,Pcbnew,(5.1.0)-1*
G04 #@! TF.CreationDate,2020-05-10T15:52:09-07:00*
G04 #@! TF.ProjectId,short-final,73686f72-742d-4666-996e-616c2e6b6963,A*
G04 #@! TF.SameCoordinates,Original*
G04 #@! TF.FileFunction,Drawing*
%FSLAX46Y46*%
G04 Gerber Fmt 4.6, Leading zero omitted, Abs format (unit mm)*
G04 Created by KiCad (PCBNEW (5.1.0)-1) date 2020-05-10 15:52:09*
%MOMM*%
%LPD*%
G04 APERTURE LIST*
%ADD10C,0.100000*%
%ADD11C,0.150000*%
%ADD12C,0.300000*%
%ADD13C,0.400000*%
G04 APERTURE END LIST*
D10*
D11*
X311800000Y-235400000D02*
X311800000Y-267400000D01*
X419800000Y-267400000D01*
X419800000Y-235400000D01*
X311800000Y-235400000D01*
D10*
D11*
X10000000Y-10000000D02*
X10000000Y-269400000D01*
X421800000Y-269400000D01*
X421800000Y-10000000D01*
X10000000Y-10000000D01*
D10*
D11*
X12000000Y-12000000D02*
X12000000Y-267400000D01*
X419800000Y-267400000D01*
X419800000Y-12000000D01*
X12000000Y-12000000D01*
D10*
D11*
X60000000Y-12000000D02*
X60000000Y-10000000D01*
D10*
D11*
X110000000Y-12000000D02*
X110000000Y-10000000D01*
D10*
D11*
X160000000Y-12000000D02*
X160000000Y-10000000D01*
D10*
D11*
X210000000Y-12000000D02*
X210000000Y-10000000D01*
D10*
D11*
X260000000Y-12000000D02*
X260000000Y-10000000D01*
D10*
D11*
X310000000Y-12000000D02*
X310000000Y-10000000D01*
D10*
D11*
X360000000Y-12000000D02*
X360000000Y-10000000D01*
D10*
D11*
X410000000Y-12000000D02*
X410000000Y-10000000D01*
D10*
D11*
X36065476Y-11588095D02*
X35322619Y-11588095D01*
X35694047Y-11588095D02*
X35694047Y-10288095D01*
X35570238Y-10473809D01*
X35446428Y-10597619D01*
X35322619Y-10659523D01*
D10*
D11*
X85322619Y-10411904D02*
X85384523Y-10350000D01*
X85508333Y-10288095D01*
X85817857Y-10288095D01*
X85941666Y-10350000D01*
X86003571Y-10411904D01*
X86065476Y-10535714D01*
X86065476Y-10659523D01*
X86003571Y-10845238D01*
X85260714Y-11588095D01*
X86065476Y-11588095D01*
D10*
D11*
X135260714Y-10288095D02*
X136065476Y-10288095D01*
X135632142Y-10783333D01*
X135817857Y-10783333D01*
X135941666Y-10845238D01*
X136003571Y-10907142D01*
X136065476Y-11030952D01*
X136065476Y-11340476D01*
X136003571Y-11464285D01*
X135941666Y-11526190D01*
X135817857Y-11588095D01*
X135446428Y-11588095D01*
X135322619Y-11526190D01*
X135260714Y-11464285D01*
D10*
D11*
X185941666Y-10721428D02*
X185941666Y-11588095D01*
X185632142Y-10226190D02*
X185322619Y-11154761D01*
X186127380Y-11154761D01*
D10*
D11*
X236003571Y-10288095D02*
X235384523Y-10288095D01*
X235322619Y-10907142D01*
X235384523Y-10845238D01*
X235508333Y-10783333D01*
X235817857Y-10783333D01*
X235941666Y-10845238D01*
X236003571Y-10907142D01*
X236065476Y-11030952D01*
X236065476Y-11340476D01*
X236003571Y-11464285D01*
X235941666Y-11526190D01*
X235817857Y-11588095D01*
X235508333Y-11588095D01*
X235384523Y-11526190D01*
X235322619Y-11464285D01*
D10*
D11*
X285941666Y-10288095D02*
X285694047Y-10288095D01*
X285570238Y-10350000D01*
X285508333Y-10411904D01*
X285384523Y-10597619D01*
X285322619Y-10845238D01*
X285322619Y-11340476D01*
X285384523Y-11464285D01*
X285446428Y-11526190D01*
X285570238Y-11588095D01*
X285817857Y-11588095D01*
X285941666Y-11526190D01*
X286003571Y-11464285D01*
X286065476Y-11340476D01*
X286065476Y-11030952D01*
X286003571Y-10907142D01*
X285941666Y-10845238D01*
X285817857Y-10783333D01*
X285570238Y-10783333D01*
X285446428Y-10845238D01*
X285384523Y-10907142D01*
X285322619Y-11030952D01*
D10*
D11*
X335260714Y-10288095D02*
X336127380Y-10288095D01*
X335570238Y-11588095D01*
D10*
D11*
X385570238Y-10845238D02*
X385446428Y-10783333D01*
X385384523Y-10721428D01*
X385322619Y-10597619D01*
X385322619Y-10535714D01*
X385384523Y-10411904D01*
X385446428Y-10350000D01*
X385570238Y-10288095D01*
X385817857Y-10288095D01*
X385941666Y-10350000D01*
X386003571Y-10411904D01*
X386065476Y-10535714D01*
X386065476Y-10597619D01*
X386003571Y-10721428D01*
X385941666Y-10783333D01*
X385817857Y-10845238D01*
X385570238Y-10845238D01*
X385446428Y-10907142D01*
X385384523Y-10969047D01*
X385322619Y-11092857D01*
X385322619Y-11340476D01*
X385384523Y-11464285D01*
X385446428Y-11526190D01*
X385570238Y-11588095D01*
X385817857Y-11588095D01*
X385941666Y-11526190D01*
X386003571Y-11464285D01*
X386065476Y-11340476D01*
X386065476Y-11092857D01*
X386003571Y-10969047D01*
X385941666Y-10907142D01*
X385817857Y-10845238D01*
D10*
D11*
X60000000Y-267400000D02*
X60000000Y-269400000D01*
D10*
D11*
X110000000Y-267400000D02*
X110000000Y-269400000D01*
D10*
D11*
X160000000Y-267400000D02*
X160000000Y-269400000D01*
D10*
D11*
X210000000Y-267400000D02*
X210000000Y-269400000D01*
D10*
D11*
X260000000Y-267400000D02*
X260000000Y-269400000D01*
D10*
D11*
X310000000Y-267400000D02*
X310000000Y-269400000D01*
D10*
D11*
X360000000Y-267400000D02*
X360000000Y-269400000D01*
D10*
D11*
X410000000Y-267400000D02*
X410000000Y-269400000D01*
D10*
D11*
X36065476Y-268988095D02*
X35322619Y-268988095D01*
X35694047Y-268988095D02*
X35694047Y-267688095D01*
X35570238Y-267873809D01*
X35446428Y-267997619D01*
X35322619Y-268059523D01*
D10*
D11*
X85322619Y-267811904D02*
X85384523Y-267750000D01*
X85508333Y-267688095D01*
X85817857Y-267688095D01*
X85941666Y-267750000D01*
X86003571Y-267811904D01*
X86065476Y-267935714D01*
X86065476Y-268059523D01*
X86003571Y-268245238D01*
X85260714Y-268988095D01*
X86065476Y-268988095D01*
D10*
D11*
X135260714Y-267688095D02*
X136065476Y-267688095D01*
X135632142Y-268183333D01*
X135817857Y-268183333D01*
X135941666Y-268245238D01*
X136003571Y-268307142D01*
X136065476Y-268430952D01*
X136065476Y-268740476D01*
X136003571Y-268864285D01*
X135941666Y-268926190D01*
X135817857Y-268988095D01*
X135446428Y-268988095D01*
X135322619Y-268926190D01*
X135260714Y-268864285D01*
D10*
D11*
X185941666Y-268121428D02*
X185941666Y-268988095D01*
X185632142Y-267626190D02*
X185322619Y-268554761D01*
X186127380Y-268554761D01*
D10*
D11*
X236003571Y-267688095D02*
X235384523Y-267688095D01*
X235322619Y-268307142D01*
X235384523Y-268245238D01*
X235508333Y-268183333D01*
X235817857Y-268183333D01*
X235941666Y-268245238D01*
X236003571Y-268307142D01*
X236065476Y-268430952D01*
X236065476Y-268740476D01*
X236003571Y-268864285D01*
X235941666Y-268926190D01*
X235817857Y-268988095D01*
X235508333Y-268988095D01*
X235384523Y-268926190D01*
X235322619Y-268864285D01*
D10*
D11*
X285941666Y-267688095D02*
X285694047Y-267688095D01*
X285570238Y-267750000D01*
X285508333Y-267811904D01*
X285384523Y-267997619D01*
X285322619Y-268245238D01*
X285322619Y-268740476D01*
X285384523Y-268864285D01*
X285446428Y-268926190D01*
X285570238Y-268988095D01*
X285817857Y-268988095D01*
X285941666Y-268926190D01*
X286003571Y-268864285D01*
X286065476Y-268740476D01*
X286065476Y-268430952D01*
X286003571Y-268307142D01*
X285941666Y-268245238D01*
X285817857Y-268183333D01*
X285570238Y-268183333D01*
X285446428Y-268245238D01*
X285384523Y-268307142D01*
X285322619Y-268430952D01*
D10*
D11*
X335260714Y-267688095D02*
X336127380Y-267688095D01*
X335570238Y-268988095D01*
D10*
D11*
X385570238Y-268245238D02*
X385446428Y-268183333D01*
X385384523Y-268121428D01*
X385322619Y-267997619D01*
X385322619Y-267935714D01*
X385384523Y-267811904D01*
X385446428Y-267750000D01*
X385570238Y-267688095D01*
X385817857Y-267688095D01*
X385941666Y-267750000D01*
X386003571Y-267811904D01*
X386065476Y-267935714D01*
X386065476Y-267997619D01*
X386003571Y-268121428D01*
X385941666Y-268183333D01*
X385817857Y-268245238D01*
X385570238Y-268245238D01*
X385446428Y-268307142D01*
X385384523Y-268369047D01*
X385322619Y-268492857D01*
X385322619Y-268740476D01*
X385384523Y-268864285D01*
X385446428Y-268926190D01*
X385570238Y-268988095D01*
X385817857Y-268988095D01*
X385941666Y-268926190D01*
X386003571Y-268864285D01*
X386065476Y-268740476D01*
X386065476Y-268492857D01*
X386003571Y-268369047D01*
X385941666Y-268307142D01*
X385817857Y-268245238D01*
D10*
D11*
X10000000Y-60000000D02*
X12000000Y-60000000D01*
D10*
D11*
X10000000Y-110000000D02*
X12000000Y-110000000D01*
D10*
D11*
X10000000Y-160000000D02*
X12000000Y-160000000D01*
D10*
D11*
X10000000Y-210000000D02*
X12000000Y-210000000D01*
D10*
D11*
X10000000Y-260000000D02*
X12000000Y-260000000D01*
D10*
D11*
X10690476Y-35216666D02*
X11309523Y-35216666D01*
X10566666Y-35588095D02*
X11000000Y-34288095D01*
X11433333Y-35588095D01*
D10*
D11*
X11092857Y-84907142D02*
X11278571Y-84969047D01*
X11340476Y-85030952D01*
X11402380Y-85154761D01*
X11402380Y-85340476D01*
X11340476Y-85464285D01*
X11278571Y-85526190D01*
X11154761Y-85588095D01*
X10659523Y-85588095D01*
X10659523Y-84288095D01*
X11092857Y-84288095D01*
X11216666Y-84350000D01*
X11278571Y-84411904D01*
X11340476Y-84535714D01*
X11340476Y-84659523D01*
X11278571Y-84783333D01*
X11216666Y-84845238D01*
X11092857Y-84907142D01*
X10659523Y-84907142D01*
D10*
D11*
X11402380Y-135464285D02*
X11340476Y-135526190D01*
X11154761Y-135588095D01*
X11030952Y-135588095D01*
X10845238Y-135526190D01*
X10721428Y-135402380D01*
X10659523Y-135278571D01*
X10597619Y-135030952D01*
X10597619Y-134845238D01*
X10659523Y-134597619D01*
X10721428Y-134473809D01*
X10845238Y-134350000D01*
X11030952Y-134288095D01*
X11154761Y-134288095D01*
X11340476Y-134350000D01*
X11402380Y-134411904D01*
D10*
D11*
X10659523Y-185588095D02*
X10659523Y-184288095D01*
X10969047Y-184288095D01*
X11154761Y-184350000D01*
X11278571Y-184473809D01*
X11340476Y-184597619D01*
X11402380Y-184845238D01*
X11402380Y-185030952D01*
X11340476Y-185278571D01*
X11278571Y-185402380D01*
X11154761Y-185526190D01*
X10969047Y-185588095D01*
X10659523Y-185588095D01*
D10*
D11*
X10721428Y-234907142D02*
X11154761Y-234907142D01*
X11340476Y-235588095D02*
X10721428Y-235588095D01*
X10721428Y-234288095D01*
X11340476Y-234288095D01*
D10*
D11*
X421800000Y-60000000D02*
X419800000Y-60000000D01*
D10*
D11*
X421800000Y-110000000D02*
X419800000Y-110000000D01*
D10*
D11*
X421800000Y-160000000D02*
X419800000Y-160000000D01*
D10*
D11*
X421800000Y-210000000D02*
X419800000Y-210000000D01*
D10*
D11*
X421800000Y-260000000D02*
X419800000Y-260000000D01*
D10*
D11*
X420490476Y-35216666D02*
X421109523Y-35216666D01*
X420366666Y-35588095D02*
X420800000Y-34288095D01*
X421233333Y-35588095D01*
D10*
D11*
X420892857Y-84907142D02*
X421078571Y-84969047D01*
X421140476Y-85030952D01*
X421202380Y-85154761D01*
X421202380Y-85340476D01*
X421140476Y-85464285D01*
X421078571Y-85526190D01*
X420954761Y-85588095D01*
X420459523Y-85588095D01*
X420459523Y-84288095D01*
X420892857Y-84288095D01*
X421016666Y-84350000D01*
X421078571Y-84411904D01*
X421140476Y-84535714D01*
X421140476Y-84659523D01*
X421078571Y-84783333D01*
X421016666Y-84845238D01*
X420892857Y-84907142D01*
X420459523Y-84907142D01*
D10*
D11*
X421202380Y-135464285D02*
X421140476Y-135526190D01*
X420954761Y-135588095D01*
X420830952Y-135588095D01*
X420645238Y-135526190D01*
X420521428Y-135402380D01*
X420459523Y-135278571D01*
X420397619Y-135030952D01*
X420397619Y-134845238D01*
X420459523Y-134597619D01*
X420521428Y-134473809D01*
X420645238Y-134350000D01*
X420830952Y-134288095D01*
X420954761Y-134288095D01*
X421140476Y-134350000D01*
X421202380Y-134411904D01*
D10*
D11*
X420459523Y-185588095D02*
X420459523Y-184288095D01*
X420769047Y-184288095D01*
X420954761Y-184350000D01*
X421078571Y-184473809D01*
X421140476Y-184597619D01*
X421202380Y-184845238D01*
X421202380Y-185030952D01*
X421140476Y-185278571D01*
X421078571Y-185402380D01*
X420954761Y-185526190D01*
X420769047Y-185588095D01*
X420459523Y-185588095D01*
D10*
D11*
X420521428Y-234907142D02*
X420954761Y-234907142D01*
X421140476Y-235588095D02*
X420521428Y-235588095D01*
X420521428Y-234288095D01*
X421140476Y-234288095D01*
D10*
D11*
X335232142Y-263178571D02*
X335232142Y-261678571D01*
X335589285Y-261678571D01*
X335803571Y-261750000D01*
X335946428Y-261892857D01*
X336017857Y-262035714D01*
X336089285Y-262321428D01*
X336089285Y-262535714D01*
X336017857Y-262821428D01*
X335946428Y-262964285D01*
X335803571Y-263107142D01*
X335589285Y-263178571D01*
X335232142Y-263178571D01*
X337375000Y-263178571D02*
X337375000Y-262392857D01*
X337303571Y-262250000D01*
X337160714Y-262178571D01*
X336875000Y-262178571D01*
X336732142Y-262250000D01*
X337375000Y-263107142D02*
X337232142Y-263178571D01*
X336875000Y-263178571D01*
X336732142Y-263107142D01*
X336660714Y-262964285D01*
X336660714Y-262821428D01*
X336732142Y-262678571D01*
X336875000Y-262607142D01*
X337232142Y-262607142D01*
X337375000Y-262535714D01*
X337875000Y-262178571D02*
X338446428Y-262178571D01*
X338089285Y-261678571D02*
X338089285Y-262964285D01*
X338160714Y-263107142D01*
X338303571Y-263178571D01*
X338446428Y-263178571D01*
X339517857Y-263107142D02*
X339375000Y-263178571D01*
X339089285Y-263178571D01*
X338946428Y-263107142D01*
X338875000Y-262964285D01*
X338875000Y-262392857D01*
X338946428Y-262250000D01*
X339089285Y-262178571D01*
X339375000Y-262178571D01*
X339517857Y-262250000D01*
X339589285Y-262392857D01*
X339589285Y-262535714D01*
X338875000Y-262678571D01*
X340232142Y-263035714D02*
X340303571Y-263107142D01*
X340232142Y-263178571D01*
X340160714Y-263107142D01*
X340232142Y-263035714D01*
X340232142Y-263178571D01*
X340232142Y-262250000D02*
X340303571Y-262321428D01*
X340232142Y-262392857D01*
X340160714Y-262321428D01*
X340232142Y-262250000D01*
X340232142Y-262392857D01*
X342017857Y-261821428D02*
X342089285Y-261750000D01*
X342232142Y-261678571D01*
X342589285Y-261678571D01*
X342732142Y-261750000D01*
X342803571Y-261821428D01*
X342875000Y-261964285D01*
X342875000Y-262107142D01*
X342803571Y-262321428D01*
X341946428Y-263178571D01*
X342875000Y-263178571D01*
X343803571Y-261678571D02*
X343946428Y-261678571D01*
X344089285Y-261750000D01*
X344160714Y-261821428D01*
X344232142Y-261964285D01*
X344303571Y-262250000D01*
X344303571Y-262607142D01*
X344232142Y-262892857D01*
X344160714Y-263035714D01*
X344089285Y-263107142D01*
X343946428Y-263178571D01*
X343803571Y-263178571D01*
X343660714Y-263107142D01*
X343589285Y-263035714D01*
X343517857Y-262892857D01*
X343446428Y-262607142D01*
X343446428Y-262250000D01*
X343517857Y-261964285D01*
X343589285Y-261821428D01*
X343660714Y-261750000D01*
X343803571Y-261678571D01*
X344875000Y-261821428D02*
X344946428Y-261750000D01*
X345089285Y-261678571D01*
X345446428Y-261678571D01*
X345589285Y-261750000D01*
X345660714Y-261821428D01*
X345732142Y-261964285D01*
X345732142Y-262107142D01*
X345660714Y-262321428D01*
X344803571Y-263178571D01*
X345732142Y-263178571D01*
X346660714Y-261678571D02*
X346803571Y-261678571D01*
X346946428Y-261750000D01*
X347017857Y-261821428D01*
X347089285Y-261964285D01*
X347160714Y-262250000D01*
X347160714Y-262607142D01*
X347089285Y-262892857D01*
X347017857Y-263035714D01*
X346946428Y-263107142D01*
X346803571Y-263178571D01*
X346660714Y-263178571D01*
X346517857Y-263107142D01*
X346446428Y-263035714D01*
X346375000Y-262892857D01*
X346303571Y-262607142D01*
X346303571Y-262250000D01*
X346375000Y-261964285D01*
X346446428Y-261821428D01*
X346517857Y-261750000D01*
X346660714Y-261678571D01*
X347803571Y-262607142D02*
X348946428Y-262607142D01*
X349946428Y-261678571D02*
X350089285Y-261678571D01*
X350232142Y-261750000D01*
X350303571Y-261821428D01*
X350375000Y-261964285D01*
X350446428Y-262250000D01*
X350446428Y-262607142D01*
X350375000Y-262892857D01*
X350303571Y-263035714D01*
X350232142Y-263107142D01*
X350089285Y-263178571D01*
X349946428Y-263178571D01*
X349803571Y-263107142D01*
X349732142Y-263035714D01*
X349660714Y-262892857D01*
X349589285Y-262607142D01*
X349589285Y-262250000D01*
X349660714Y-261964285D01*
X349732142Y-261821428D01*
X349803571Y-261750000D01*
X349946428Y-261678571D01*
X351803571Y-261678571D02*
X351089285Y-261678571D01*
X351017857Y-262392857D01*
X351089285Y-262321428D01*
X351232142Y-262250000D01*
X351589285Y-262250000D01*
X351732142Y-262321428D01*
X351803571Y-262392857D01*
X351875000Y-262535714D01*
X351875000Y-262892857D01*
X351803571Y-263035714D01*
X351732142Y-263107142D01*
X351589285Y-263178571D01*
X351232142Y-263178571D01*
X351089285Y-263107142D01*
X351017857Y-263035714D01*
X352517857Y-262607142D02*
X353660714Y-262607142D01*
X355160714Y-263178571D02*
X354303571Y-263178571D01*
X354732142Y-263178571D02*
X354732142Y-261678571D01*
X354589285Y-261892857D01*
X354446428Y-262035714D01*
X354303571Y-262107142D01*
X356089285Y-261678571D02*
X356232142Y-261678571D01*
X356375000Y-261750000D01*
X356446428Y-261821428D01*
X356517857Y-261964285D01*
X356589285Y-262250000D01*
X356589285Y-262607142D01*
X356517857Y-262892857D01*
X356446428Y-263035714D01*
X356375000Y-263107142D01*
X356232142Y-263178571D01*
X356089285Y-263178571D01*
X355946428Y-263107142D01*
X355875000Y-263035714D01*
X355803571Y-262892857D01*
X355732142Y-262607142D01*
X355732142Y-262250000D01*
X355803571Y-261964285D01*
X355875000Y-261821428D01*
X355946428Y-261750000D01*
X356089285Y-261678571D01*
D10*
D11*
X311800000Y-263900000D02*
X419800000Y-263900000D01*
D10*
D11*
X313232142Y-265978571D02*
X313232142Y-264478571D01*
X314089285Y-265978571D02*
X313446428Y-265121428D01*
X314089285Y-264478571D02*
X313232142Y-265335714D01*
X314732142Y-265978571D02*
X314732142Y-264978571D01*
X314732142Y-264478571D02*
X314660714Y-264550000D01*
X314732142Y-264621428D01*
X314803571Y-264550000D01*
X314732142Y-264478571D01*
X314732142Y-264621428D01*
X316303571Y-265835714D02*
X316232142Y-265907142D01*
X316017857Y-265978571D01*
X315875000Y-265978571D01*
X315660714Y-265907142D01*
X315517857Y-265764285D01*
X315446428Y-265621428D01*
X315375000Y-265335714D01*
X315375000Y-265121428D01*
X315446428Y-264835714D01*
X315517857Y-264692857D01*
X315660714Y-264550000D01*
X315875000Y-264478571D01*
X316017857Y-264478571D01*
X316232142Y-264550000D01*
X316303571Y-264621428D01*
X317589285Y-265978571D02*
X317589285Y-265192857D01*
X317517857Y-265050000D01*
X317375000Y-264978571D01*
X317089285Y-264978571D01*
X316946428Y-265050000D01*
X317589285Y-265907142D02*
X317446428Y-265978571D01*
X317089285Y-265978571D01*
X316946428Y-265907142D01*
X316875000Y-265764285D01*
X316875000Y-265621428D01*
X316946428Y-265478571D01*
X317089285Y-265407142D01*
X317446428Y-265407142D01*
X317589285Y-265335714D01*
X318946428Y-265978571D02*
X318946428Y-264478571D01*
X318946428Y-265907142D02*
X318803571Y-265978571D01*
X318517857Y-265978571D01*
X318375000Y-265907142D01*
X318303571Y-265835714D01*
X318232142Y-265692857D01*
X318232142Y-265264285D01*
X318303571Y-265121428D01*
X318375000Y-265050000D01*
X318517857Y-264978571D01*
X318803571Y-264978571D01*
X318946428Y-265050000D01*
X320803571Y-265192857D02*
X321303571Y-265192857D01*
X321517857Y-265978571D02*
X320803571Y-265978571D01*
X320803571Y-264478571D01*
X321517857Y-264478571D01*
X322160714Y-265835714D02*
X322232142Y-265907142D01*
X322160714Y-265978571D01*
X322089285Y-265907142D01*
X322160714Y-265835714D01*
X322160714Y-265978571D01*
X322875000Y-265978571D02*
X322875000Y-264478571D01*
X323232142Y-264478571D01*
X323446428Y-264550000D01*
X323589285Y-264692857D01*
X323660714Y-264835714D01*
X323732142Y-265121428D01*
X323732142Y-265335714D01*
X323660714Y-265621428D01*
X323589285Y-265764285D01*
X323446428Y-265907142D01*
X323232142Y-265978571D01*
X322875000Y-265978571D01*
X324375000Y-265835714D02*
X324446428Y-265907142D01*
X324375000Y-265978571D01*
X324303571Y-265907142D01*
X324375000Y-265835714D01*
X324375000Y-265978571D01*
X325017857Y-265550000D02*
X325732142Y-265550000D01*
X324875000Y-265978571D02*
X325375000Y-264478571D01*
X325875000Y-265978571D01*
X326375000Y-265835714D02*
X326446428Y-265907142D01*
X326375000Y-265978571D01*
X326303571Y-265907142D01*
X326375000Y-265835714D01*
X326375000Y-265978571D01*
X329375000Y-265978571D02*
X329375000Y-264478571D01*
X329517857Y-265407142D02*
X329946428Y-265978571D01*
X329946428Y-264978571D02*
X329375000Y-265550000D01*
X330589285Y-265978571D02*
X330589285Y-264978571D01*
X330589285Y-264478571D02*
X330517857Y-264550000D01*
X330589285Y-264621428D01*
X330660714Y-264550000D01*
X330589285Y-264478571D01*
X330589285Y-264621428D01*
X331946428Y-265907142D02*
X331803571Y-265978571D01*
X331517857Y-265978571D01*
X331375000Y-265907142D01*
X331303571Y-265835714D01*
X331232142Y-265692857D01*
X331232142Y-265264285D01*
X331303571Y-265121428D01*
X331375000Y-265050000D01*
X331517857Y-264978571D01*
X331803571Y-264978571D01*
X331946428Y-265050000D01*
X333232142Y-265978571D02*
X333232142Y-265192857D01*
X333160714Y-265050000D01*
X333017857Y-264978571D01*
X332732142Y-264978571D01*
X332589285Y-265050000D01*
X333232142Y-265907142D02*
X333089285Y-265978571D01*
X332732142Y-265978571D01*
X332589285Y-265907142D01*
X332517857Y-265764285D01*
X332517857Y-265621428D01*
X332589285Y-265478571D01*
X332732142Y-265407142D01*
X333089285Y-265407142D01*
X333232142Y-265335714D01*
X334589285Y-265978571D02*
X334589285Y-264478571D01*
X334589285Y-265907142D02*
X334446428Y-265978571D01*
X334160714Y-265978571D01*
X334017857Y-265907142D01*
X333946428Y-265835714D01*
X333875000Y-265692857D01*
X333875000Y-265264285D01*
X333946428Y-265121428D01*
X334017857Y-265050000D01*
X334160714Y-264978571D01*
X334446428Y-264978571D01*
X334589285Y-265050000D01*
X336875000Y-266550000D02*
X336803571Y-266478571D01*
X336660714Y-266264285D01*
X336589285Y-266121428D01*
X336517857Y-265907142D01*
X336446428Y-265550000D01*
X336446428Y-265264285D01*
X336517857Y-264907142D01*
X336589285Y-264692857D01*
X336660714Y-264550000D01*
X336803571Y-264335714D01*
X336875000Y-264264285D01*
X338160714Y-264478571D02*
X337446428Y-264478571D01*
X337375000Y-265192857D01*
X337446428Y-265121428D01*
X337589285Y-265050000D01*
X337946428Y-265050000D01*
X338089285Y-265121428D01*
X338160714Y-265192857D01*
X338232142Y-265335714D01*
X338232142Y-265692857D01*
X338160714Y-265835714D01*
X338089285Y-265907142D01*
X337946428Y-265978571D01*
X337589285Y-265978571D01*
X337446428Y-265907142D01*
X337375000Y-265835714D01*
X338875000Y-265835714D02*
X338946428Y-265907142D01*
X338875000Y-265978571D01*
X338803571Y-265907142D01*
X338875000Y-265835714D01*
X338875000Y-265978571D01*
X340375000Y-265978571D02*
X339517857Y-265978571D01*
X339946428Y-265978571D02*
X339946428Y-264478571D01*
X339803571Y-264692857D01*
X339660714Y-264835714D01*
X339517857Y-264907142D01*
X341017857Y-265835714D02*
X341089285Y-265907142D01*
X341017857Y-265978571D01*
X340946428Y-265907142D01*
X341017857Y-265835714D01*
X341017857Y-265978571D01*
X342017857Y-264478571D02*
X342160714Y-264478571D01*
X342303571Y-264550000D01*
X342375000Y-264621428D01*
X342446428Y-264764285D01*
X342517857Y-265050000D01*
X342517857Y-265407142D01*
X342446428Y-265692857D01*
X342375000Y-265835714D01*
X342303571Y-265907142D01*
X342160714Y-265978571D01*
X342017857Y-265978571D01*
X341875000Y-265907142D01*
X341803571Y-265835714D01*
X341732142Y-265692857D01*
X341660714Y-265407142D01*
X341660714Y-265050000D01*
X341732142Y-264764285D01*
X341803571Y-264621428D01*
X341875000Y-264550000D01*
X342017857Y-264478571D01*
X343017857Y-266550000D02*
X343089285Y-266478571D01*
X343232142Y-266264285D01*
X343303571Y-266121428D01*
X343375000Y-265907142D01*
X343446428Y-265550000D01*
X343446428Y-265264285D01*
X343375000Y-264907142D01*
X343303571Y-264692857D01*
X343232142Y-264550000D01*
X343089285Y-264335714D01*
X343017857Y-264264285D01*
X344160714Y-265407142D02*
X345303571Y-265407142D01*
X346803571Y-265978571D02*
X345946428Y-265978571D01*
X346375000Y-265978571D02*
X346375000Y-264478571D01*
X346232142Y-264692857D01*
X346089285Y-264835714D01*
X345946428Y-264907142D01*
D10*
D11*
X311800000Y-260900000D02*
X419800000Y-260900000D01*
D10*
D12*
X399209285Y-263178571D02*
X398709285Y-262464285D01*
X398352142Y-263178571D02*
X398352142Y-261678571D01*
X398923571Y-261678571D01*
X399066428Y-261750000D01*
X399137857Y-261821428D01*
X399209285Y-261964285D01*
X399209285Y-262178571D01*
X399137857Y-262321428D01*
X399066428Y-262392857D01*
X398923571Y-262464285D01*
X398352142Y-262464285D01*
X400423571Y-263107142D02*
X400280714Y-263178571D01*
X399995000Y-263178571D01*
X399852142Y-263107142D01*
X399780714Y-262964285D01*
X399780714Y-262392857D01*
X399852142Y-262250000D01*
X399995000Y-262178571D01*
X400280714Y-262178571D01*
X400423571Y-262250000D01*
X400495000Y-262392857D01*
X400495000Y-262535714D01*
X399780714Y-262678571D01*
X400995000Y-262178571D02*
X401352142Y-263178571D01*
X401709285Y-262178571D01*
X402280714Y-263035714D02*
X402352142Y-263107142D01*
X402280714Y-263178571D01*
X402209285Y-263107142D01*
X402280714Y-263035714D01*
X402280714Y-263178571D01*
X402280714Y-262250000D02*
X402352142Y-262321428D01*
X402280714Y-262392857D01*
X402209285Y-262321428D01*
X402280714Y-262250000D01*
X402280714Y-262392857D01*
X404066428Y-262750000D02*
X404780714Y-262750000D01*
X403923571Y-263178571D02*
X404423571Y-261678571D01*
X404923571Y-263178571D01*
D10*
D11*
X313160714Y-263107142D02*
X313375000Y-263178571D01*
X313732142Y-263178571D01*
X313875000Y-263107142D01*
X313946428Y-263035714D01*
X314017857Y-262892857D01*
X314017857Y-262750000D01*
X313946428Y-262607142D01*
X313875000Y-262535714D01*
X313732142Y-262464285D01*
X313446428Y-262392857D01*
X313303571Y-262321428D01*
X313232142Y-262250000D01*
X313160714Y-262107142D01*
X313160714Y-261964285D01*
X313232142Y-261821428D01*
X313303571Y-261750000D01*
X313446428Y-261678571D01*
X313803571Y-261678571D01*
X314017857Y-261750000D01*
X314660714Y-263178571D02*
X314660714Y-262178571D01*
X314660714Y-261678571D02*
X314589285Y-261750000D01*
X314660714Y-261821428D01*
X314732142Y-261750000D01*
X314660714Y-261678571D01*
X314660714Y-261821428D01*
X315232142Y-262178571D02*
X316017857Y-262178571D01*
X315232142Y-263178571D01*
X316017857Y-263178571D01*
X317160714Y-263107142D02*
X317017857Y-263178571D01*
X316732142Y-263178571D01*
X316589285Y-263107142D01*
X316517857Y-262964285D01*
X316517857Y-262392857D01*
X316589285Y-262250000D01*
X316732142Y-262178571D01*
X317017857Y-262178571D01*
X317160714Y-262250000D01*
X317232142Y-262392857D01*
X317232142Y-262535714D01*
X316517857Y-262678571D01*
X317875000Y-263035714D02*
X317946428Y-263107142D01*
X317875000Y-263178571D01*
X317803571Y-263107142D01*
X317875000Y-263035714D01*
X317875000Y-263178571D01*
X317875000Y-262250000D02*
X317946428Y-262321428D01*
X317875000Y-262392857D01*
X317803571Y-262321428D01*
X317875000Y-262250000D01*
X317875000Y-262392857D01*
X320232142Y-262392857D02*
X320446428Y-262464285D01*
X320517857Y-262535714D01*
X320589285Y-262678571D01*
X320589285Y-262892857D01*
X320517857Y-263035714D01*
X320446428Y-263107142D01*
X320303571Y-263178571D01*
X319732142Y-263178571D01*
X319732142Y-261678571D01*
X320232142Y-261678571D01*
X320375000Y-261750000D01*
X320446428Y-261821428D01*
X320517857Y-261964285D01*
X320517857Y-262107142D01*
X320446428Y-262250000D01*
X320375000Y-262321428D01*
X320232142Y-262392857D01*
X319732142Y-262392857D01*
D10*
D11*
X398232142Y-265978571D02*
X398232142Y-264478571D01*
X399589285Y-265978571D02*
X399589285Y-264478571D01*
X399589285Y-265907142D02*
X399446428Y-265978571D01*
X399160714Y-265978571D01*
X399017857Y-265907142D01*
X398946428Y-265835714D01*
X398875000Y-265692857D01*
X398875000Y-265264285D01*
X398946428Y-265121428D01*
X399017857Y-265050000D01*
X399160714Y-264978571D01*
X399446428Y-264978571D01*
X399589285Y-265050000D01*
X400303571Y-265835714D02*
X400375000Y-265907142D01*
X400303571Y-265978571D01*
X400232142Y-265907142D01*
X400303571Y-265835714D01*
X400303571Y-265978571D01*
X400303571Y-265050000D02*
X400375000Y-265121428D01*
X400303571Y-265192857D01*
X400232142Y-265121428D01*
X400303571Y-265050000D01*
X400303571Y-265192857D01*
X402946428Y-265978571D02*
X402089285Y-265978571D01*
X402517857Y-265978571D02*
X402517857Y-264478571D01*
X402375000Y-264692857D01*
X402232142Y-264835714D01*
X402089285Y-264907142D01*
X404660714Y-264407142D02*
X403375000Y-266335714D01*
X405946428Y-265978571D02*
X405089285Y-265978571D01*
X405517857Y-265978571D02*
X405517857Y-264478571D01*
X405375000Y-264692857D01*
X405232142Y-264835714D01*
X405089285Y-264907142D01*
D10*
D11*
X311800000Y-256900000D02*
X419800000Y-256900000D01*
D10*
D13*
X313512380Y-257604761D02*
X314655238Y-257604761D01*
X313833809Y-259604761D02*
X314083809Y-257604761D01*
X315071904Y-259604761D02*
X315238571Y-258271428D01*
X315321904Y-257604761D02*
X315214761Y-257700000D01*
X315298095Y-257795238D01*
X315405238Y-257700000D01*
X315321904Y-257604761D01*
X315298095Y-257795238D01*
X315905238Y-258271428D02*
X316667142Y-258271428D01*
X316274285Y-257604761D02*
X316060000Y-259319047D01*
X316131428Y-259509523D01*
X316310000Y-259604761D01*
X316500476Y-259604761D01*
X317452857Y-259604761D02*
X317274285Y-259509523D01*
X317202857Y-259319047D01*
X317417142Y-257604761D01*
X318988571Y-259509523D02*
X318786190Y-259604761D01*
X318405238Y-259604761D01*
X318226666Y-259509523D01*
X318155238Y-259319047D01*
X318250476Y-258557142D01*
X318369523Y-258366666D01*
X318571904Y-258271428D01*
X318952857Y-258271428D01*
X319131428Y-258366666D01*
X319202857Y-258557142D01*
X319179047Y-258747619D01*
X318202857Y-258938095D01*
X319952857Y-259414285D02*
X320036190Y-259509523D01*
X319929047Y-259604761D01*
X319845714Y-259509523D01*
X319952857Y-259414285D01*
X319929047Y-259604761D01*
X320083809Y-258366666D02*
X320167142Y-258461904D01*
X320060000Y-258557142D01*
X319976666Y-258461904D01*
X320083809Y-258366666D01*
X320060000Y-258557142D01*
X322321904Y-259509523D02*
X322595714Y-259604761D01*
X323071904Y-259604761D01*
X323274285Y-259509523D01*
X323381428Y-259414285D01*
X323500476Y-259223809D01*
X323524285Y-259033333D01*
X323452857Y-258842857D01*
X323369523Y-258747619D01*
X323190952Y-258652380D01*
X322821904Y-258557142D01*
X322643333Y-258461904D01*
X322560000Y-258366666D01*
X322488571Y-258176190D01*
X322512380Y-257985714D01*
X322631428Y-257795238D01*
X322738571Y-257700000D01*
X322940952Y-257604761D01*
X323417142Y-257604761D01*
X323690952Y-257700000D01*
X324310000Y-259604761D02*
X324560000Y-257604761D01*
X325167142Y-259604761D02*
X325298095Y-258557142D01*
X325226666Y-258366666D01*
X325048095Y-258271428D01*
X324762380Y-258271428D01*
X324560000Y-258366666D01*
X324452857Y-258461904D01*
X326405238Y-259604761D02*
X326226666Y-259509523D01*
X326143333Y-259414285D01*
X326071904Y-259223809D01*
X326143333Y-258652380D01*
X326262380Y-258461904D01*
X326369523Y-258366666D01*
X326571904Y-258271428D01*
X326857619Y-258271428D01*
X327036190Y-258366666D01*
X327119523Y-258461904D01*
X327190952Y-258652380D01*
X327119523Y-259223809D01*
X327000476Y-259414285D01*
X326893333Y-259509523D01*
X326690952Y-259604761D01*
X326405238Y-259604761D01*
X327929047Y-259604761D02*
X328095714Y-258271428D01*
X328048095Y-258652380D02*
X328167142Y-258461904D01*
X328274285Y-258366666D01*
X328476666Y-258271428D01*
X328667142Y-258271428D01*
X329048095Y-258271428D02*
X329810000Y-258271428D01*
X329417142Y-257604761D02*
X329202857Y-259319047D01*
X329274285Y-259509523D01*
X329452857Y-259604761D01*
X329643333Y-259604761D01*
X332631428Y-258557142D02*
X331964761Y-258557142D01*
X331833809Y-259604761D02*
X332083809Y-257604761D01*
X333036190Y-257604761D01*
X333548095Y-259604761D02*
X333714761Y-258271428D01*
X333798095Y-257604761D02*
X333690952Y-257700000D01*
X333774285Y-257795238D01*
X333881428Y-257700000D01*
X333798095Y-257604761D01*
X333774285Y-257795238D01*
X334667142Y-258271428D02*
X334500476Y-259604761D01*
X334643333Y-258461904D02*
X334750476Y-258366666D01*
X334952857Y-258271428D01*
X335238571Y-258271428D01*
X335417142Y-258366666D01*
X335488571Y-258557142D01*
X335357619Y-259604761D01*
X337167142Y-259604761D02*
X337298095Y-258557142D01*
X337226666Y-258366666D01*
X337048095Y-258271428D01*
X336667142Y-258271428D01*
X336464761Y-258366666D01*
X337179047Y-259509523D02*
X336976666Y-259604761D01*
X336500476Y-259604761D01*
X336321904Y-259509523D01*
X336250476Y-259319047D01*
X336274285Y-259128571D01*
X336393333Y-258938095D01*
X336595714Y-258842857D01*
X337071904Y-258842857D01*
X337274285Y-258747619D01*
X338405238Y-259604761D02*
X338226666Y-259509523D01*
X338155238Y-259319047D01*
X338369523Y-257604761D01*
D10*
D11*
X313732142Y-254992857D02*
X313232142Y-254992857D01*
X313232142Y-255778571D02*
X313232142Y-254278571D01*
X313946428Y-254278571D01*
X314517857Y-255778571D02*
X314517857Y-254778571D01*
X314517857Y-254278571D02*
X314446428Y-254350000D01*
X314517857Y-254421428D01*
X314589285Y-254350000D01*
X314517857Y-254278571D01*
X314517857Y-254421428D01*
X315446428Y-255778571D02*
X315303571Y-255707142D01*
X315232142Y-255564285D01*
X315232142Y-254278571D01*
X316589285Y-255707142D02*
X316446428Y-255778571D01*
X316160714Y-255778571D01*
X316017857Y-255707142D01*
X315946428Y-255564285D01*
X315946428Y-254992857D01*
X316017857Y-254850000D01*
X316160714Y-254778571D01*
X316446428Y-254778571D01*
X316589285Y-254850000D01*
X316660714Y-254992857D01*
X316660714Y-255135714D01*
X315946428Y-255278571D01*
X317303571Y-255635714D02*
X317375000Y-255707142D01*
X317303571Y-255778571D01*
X317232142Y-255707142D01*
X317303571Y-255635714D01*
X317303571Y-255778571D01*
X317303571Y-254850000D02*
X317375000Y-254921428D01*
X317303571Y-254992857D01*
X317232142Y-254921428D01*
X317303571Y-254850000D01*
X317303571Y-254992857D01*
X319089285Y-255707142D02*
X319232142Y-255778571D01*
X319517857Y-255778571D01*
X319660714Y-255707142D01*
X319732142Y-255564285D01*
X319732142Y-255492857D01*
X319660714Y-255350000D01*
X319517857Y-255278571D01*
X319303571Y-255278571D01*
X319160714Y-255207142D01*
X319089285Y-255064285D01*
X319089285Y-254992857D01*
X319160714Y-254850000D01*
X319303571Y-254778571D01*
X319517857Y-254778571D01*
X319660714Y-254850000D01*
X320375000Y-255778571D02*
X320375000Y-254278571D01*
X321017857Y-255778571D02*
X321017857Y-254992857D01*
X320946428Y-254850000D01*
X320803571Y-254778571D01*
X320589285Y-254778571D01*
X320446428Y-254850000D01*
X320375000Y-254921428D01*
X321946428Y-255778571D02*
X321803571Y-255707142D01*
X321732142Y-255635714D01*
X321660714Y-255492857D01*
X321660714Y-255064285D01*
X321732142Y-254921428D01*
X321803571Y-254850000D01*
X321946428Y-254778571D01*
X322160714Y-254778571D01*
X322303571Y-254850000D01*
X322375000Y-254921428D01*
X322446428Y-255064285D01*
X322446428Y-255492857D01*
X322375000Y-255635714D01*
X322303571Y-255707142D01*
X322160714Y-255778571D01*
X321946428Y-255778571D01*
X323089285Y-255778571D02*
X323089285Y-254778571D01*
X323089285Y-255064285D02*
X323160714Y-254921428D01*
X323232142Y-254850000D01*
X323375000Y-254778571D01*
X323517857Y-254778571D01*
X323803571Y-254778571D02*
X324375000Y-254778571D01*
X324017857Y-254278571D02*
X324017857Y-255564285D01*
X324089285Y-255707142D01*
X324232142Y-255778571D01*
X324375000Y-255778571D01*
X324875000Y-255207142D02*
X326017857Y-255207142D01*
X326517857Y-254778571D02*
X327089285Y-254778571D01*
X326732142Y-255778571D02*
X326732142Y-254492857D01*
X326803571Y-254350000D01*
X326946428Y-254278571D01*
X327089285Y-254278571D01*
X327589285Y-255778571D02*
X327589285Y-254778571D01*
X327589285Y-254278571D02*
X327517857Y-254350000D01*
X327589285Y-254421428D01*
X327660714Y-254350000D01*
X327589285Y-254278571D01*
X327589285Y-254421428D01*
X328303571Y-254778571D02*
X328303571Y-255778571D01*
X328303571Y-254921428D02*
X328375000Y-254850000D01*
X328517857Y-254778571D01*
X328732142Y-254778571D01*
X328875000Y-254850000D01*
X328946428Y-254992857D01*
X328946428Y-255778571D01*
X330303571Y-255778571D02*
X330303571Y-254992857D01*
X330232142Y-254850000D01*
X330089285Y-254778571D01*
X329803571Y-254778571D01*
X329660714Y-254850000D01*
X330303571Y-255707142D02*
X330160714Y-255778571D01*
X329803571Y-255778571D01*
X329660714Y-255707142D01*
X329589285Y-255564285D01*
X329589285Y-255421428D01*
X329660714Y-255278571D01*
X329803571Y-255207142D01*
X330160714Y-255207142D01*
X330303571Y-255135714D01*
X331232142Y-255778571D02*
X331089285Y-255707142D01*
X331017857Y-255564285D01*
X331017857Y-254278571D01*
X331803571Y-255635714D02*
X331875000Y-255707142D01*
X331803571Y-255778571D01*
X331732142Y-255707142D01*
X331803571Y-255635714D01*
X331803571Y-255778571D01*
X332517857Y-255778571D02*
X332517857Y-254278571D01*
X332660714Y-255207142D02*
X333089285Y-255778571D01*
X333089285Y-254778571D02*
X332517857Y-255350000D01*
X333732142Y-255778571D02*
X333732142Y-254778571D01*
X333732142Y-254278571D02*
X333660714Y-254350000D01*
X333732142Y-254421428D01*
X333803571Y-254350000D01*
X333732142Y-254278571D01*
X333732142Y-254421428D01*
X335089285Y-255707142D02*
X334946428Y-255778571D01*
X334660714Y-255778571D01*
X334517857Y-255707142D01*
X334446428Y-255635714D01*
X334375000Y-255492857D01*
X334375000Y-255064285D01*
X334446428Y-254921428D01*
X334517857Y-254850000D01*
X334660714Y-254778571D01*
X334946428Y-254778571D01*
X335089285Y-254850000D01*
X336375000Y-255778571D02*
X336375000Y-254992857D01*
X336303571Y-254850000D01*
X336160714Y-254778571D01*
X335875000Y-254778571D01*
X335732142Y-254850000D01*
X336375000Y-255707142D02*
X336232142Y-255778571D01*
X335875000Y-255778571D01*
X335732142Y-255707142D01*
X335660714Y-255564285D01*
X335660714Y-255421428D01*
X335732142Y-255278571D01*
X335875000Y-255207142D01*
X336232142Y-255207142D01*
X336375000Y-255135714D01*
X337732142Y-255778571D02*
X337732142Y-254278571D01*
X337732142Y-255707142D02*
X337589285Y-255778571D01*
X337303571Y-255778571D01*
X337160714Y-255707142D01*
X337089285Y-255635714D01*
X337017857Y-255492857D01*
X337017857Y-255064285D01*
X337089285Y-254921428D01*
X337160714Y-254850000D01*
X337303571Y-254778571D01*
X337589285Y-254778571D01*
X337732142Y-254850000D01*
X338089285Y-255921428D02*
X339232142Y-255921428D01*
X339589285Y-254778571D02*
X339589285Y-256278571D01*
X339589285Y-254850000D02*
X339732142Y-254778571D01*
X340017857Y-254778571D01*
X340160714Y-254850000D01*
X340232142Y-254921428D01*
X340303571Y-255064285D01*
X340303571Y-255492857D01*
X340232142Y-255635714D01*
X340160714Y-255707142D01*
X340017857Y-255778571D01*
X339732142Y-255778571D01*
X339589285Y-255707142D01*
X341589285Y-255707142D02*
X341446428Y-255778571D01*
X341160714Y-255778571D01*
X341017857Y-255707142D01*
X340946428Y-255635714D01*
X340875000Y-255492857D01*
X340875000Y-255064285D01*
X340946428Y-254921428D01*
X341017857Y-254850000D01*
X341160714Y-254778571D01*
X341446428Y-254778571D01*
X341589285Y-254850000D01*
X342232142Y-255778571D02*
X342232142Y-254278571D01*
X342232142Y-254850000D02*
X342375000Y-254778571D01*
X342660714Y-254778571D01*
X342803571Y-254850000D01*
X342875000Y-254921428D01*
X342946428Y-255064285D01*
X342946428Y-255492857D01*
X342875000Y-255635714D01*
X342803571Y-255707142D01*
X342660714Y-255778571D01*
X342375000Y-255778571D01*
X342232142Y-255707142D01*
D10*
D11*
X311800000Y-250900000D02*
X419800000Y-250900000D01*
D10*
D11*
X313160714Y-253007142D02*
X313375000Y-253078571D01*
X313732142Y-253078571D01*
X313875000Y-253007142D01*
X313946428Y-252935714D01*
X314017857Y-252792857D01*
X314017857Y-252650000D01*
X313946428Y-252507142D01*
X313875000Y-252435714D01*
X313732142Y-252364285D01*
X313446428Y-252292857D01*
X313303571Y-252221428D01*
X313232142Y-252150000D01*
X313160714Y-252007142D01*
X313160714Y-251864285D01*
X313232142Y-251721428D01*
X313303571Y-251650000D01*
X313446428Y-251578571D01*
X313803571Y-251578571D01*
X314017857Y-251650000D01*
X314660714Y-253078571D02*
X314660714Y-251578571D01*
X315303571Y-253078571D02*
X315303571Y-252292857D01*
X315232142Y-252150000D01*
X315089285Y-252078571D01*
X314875000Y-252078571D01*
X314732142Y-252150000D01*
X314660714Y-252221428D01*
X316589285Y-253007142D02*
X316446428Y-253078571D01*
X316160714Y-253078571D01*
X316017857Y-253007142D01*
X315946428Y-252864285D01*
X315946428Y-252292857D01*
X316017857Y-252150000D01*
X316160714Y-252078571D01*
X316446428Y-252078571D01*
X316589285Y-252150000D01*
X316660714Y-252292857D01*
X316660714Y-252435714D01*
X315946428Y-252578571D01*
X317875000Y-253007142D02*
X317732142Y-253078571D01*
X317446428Y-253078571D01*
X317303571Y-253007142D01*
X317232142Y-252864285D01*
X317232142Y-252292857D01*
X317303571Y-252150000D01*
X317446428Y-252078571D01*
X317732142Y-252078571D01*
X317875000Y-252150000D01*
X317946428Y-252292857D01*
X317946428Y-252435714D01*
X317232142Y-252578571D01*
X318375000Y-252078571D02*
X318946428Y-252078571D01*
X318589285Y-251578571D02*
X318589285Y-252864285D01*
X318660714Y-253007142D01*
X318803571Y-253078571D01*
X318946428Y-253078571D01*
X319446428Y-252935714D02*
X319517857Y-253007142D01*
X319446428Y-253078571D01*
X319375000Y-253007142D01*
X319446428Y-252935714D01*
X319446428Y-253078571D01*
X319446428Y-252150000D02*
X319517857Y-252221428D01*
X319446428Y-252292857D01*
X319375000Y-252221428D01*
X319446428Y-252150000D01*
X319446428Y-252292857D01*
D10*
D12*
X313352142Y-250078571D02*
X313352142Y-248578571D01*
X313995000Y-250007142D02*
X314137857Y-250078571D01*
X314423571Y-250078571D01*
X314566428Y-250007142D01*
X314637857Y-249864285D01*
X314637857Y-249792857D01*
X314566428Y-249650000D01*
X314423571Y-249578571D01*
X314209285Y-249578571D01*
X314066428Y-249507142D01*
X313995000Y-249364285D01*
X313995000Y-249292857D01*
X314066428Y-249150000D01*
X314209285Y-249078571D01*
X314423571Y-249078571D01*
X314566428Y-249150000D01*
X315280714Y-250078571D02*
X315280714Y-248578571D01*
X315423571Y-249507142D02*
X315852142Y-250078571D01*
X315852142Y-249078571D02*
X315280714Y-249650000D01*
X317066428Y-250007142D02*
X316923571Y-250078571D01*
X316637857Y-250078571D01*
X316495000Y-250007142D01*
X316423571Y-249864285D01*
X316423571Y-249292857D01*
X316495000Y-249150000D01*
X316637857Y-249078571D01*
X316923571Y-249078571D01*
X317066428Y-249150000D01*
X317137857Y-249292857D01*
X317137857Y-249435714D01*
X316423571Y-249578571D01*
X317780714Y-249078571D02*
X317780714Y-250078571D01*
X317780714Y-249221428D02*
X317852142Y-249150000D01*
X317995000Y-249078571D01*
X318209285Y-249078571D01*
X318352142Y-249150000D01*
X318423571Y-249292857D01*
X318423571Y-250078571D01*
X319780714Y-250078571D02*
X319780714Y-248578571D01*
X319780714Y-250007142D02*
X319637857Y-250078571D01*
X319352142Y-250078571D01*
X319209285Y-250007142D01*
X319137857Y-249935714D01*
X319066428Y-249792857D01*
X319066428Y-249364285D01*
X319137857Y-249221428D01*
X319209285Y-249150000D01*
X319352142Y-249078571D01*
X319637857Y-249078571D01*
X319780714Y-249150000D01*
X321066428Y-250007142D02*
X320923571Y-250078571D01*
X320637857Y-250078571D01*
X320495000Y-250007142D01*
X320423571Y-249864285D01*
X320423571Y-249292857D01*
X320495000Y-249150000D01*
X320637857Y-249078571D01*
X320923571Y-249078571D01*
X321066428Y-249150000D01*
X321137857Y-249292857D01*
X321137857Y-249435714D01*
X320423571Y-249578571D01*
X321780714Y-250078571D02*
X321780714Y-249078571D01*
X321780714Y-249364285D02*
X321852142Y-249221428D01*
X321923571Y-249150000D01*
X322066428Y-249078571D01*
X322209285Y-249078571D01*
X323852142Y-250078571D02*
X323852142Y-248578571D01*
X324709285Y-250078571D02*
X324066428Y-249221428D01*
X324709285Y-248578571D02*
X323852142Y-249435714D01*
X325995000Y-249078571D02*
X325995000Y-250078571D01*
X325352142Y-249078571D02*
X325352142Y-249864285D01*
X325423571Y-250007142D01*
X325566428Y-250078571D01*
X325780714Y-250078571D01*
X325923571Y-250007142D01*
X325995000Y-249935714D01*
X326637857Y-250007142D02*
X326780714Y-250078571D01*
X327066428Y-250078571D01*
X327209285Y-250007142D01*
X327280714Y-249864285D01*
X327280714Y-249792857D01*
X327209285Y-249650000D01*
X327066428Y-249578571D01*
X326852142Y-249578571D01*
X326709285Y-249507142D01*
X326637857Y-249364285D01*
X326637857Y-249292857D01*
X326709285Y-249150000D01*
X326852142Y-249078571D01*
X327066428Y-249078571D01*
X327209285Y-249150000D01*
X327923571Y-250078571D02*
X327923571Y-248578571D01*
X328566428Y-250078571D02*
X328566428Y-249292857D01*
X328495000Y-249150000D01*
X328352142Y-249078571D01*
X328137857Y-249078571D01*
X327995000Y-249150000D01*
X327923571Y-249221428D01*
X329923571Y-250078571D02*
X329923571Y-249292857D01*
X329852142Y-249150000D01*
X329709285Y-249078571D01*
X329423571Y-249078571D01*
X329280714Y-249150000D01*
X329923571Y-250007142D02*
X329780714Y-250078571D01*
X329423571Y-250078571D01*
X329280714Y-250007142D01*
X329209285Y-249864285D01*
X329209285Y-249721428D01*
X329280714Y-249578571D01*
X329423571Y-249507142D01*
X329780714Y-249507142D01*
X329923571Y-249435714D01*
X330637857Y-249078571D02*
X330637857Y-250078571D01*
X330637857Y-249221428D02*
X330709285Y-249150000D01*
X330852142Y-249078571D01*
X331066428Y-249078571D01*
X331209285Y-249150000D01*
X331280714Y-249292857D01*
X331280714Y-250078571D01*
X333566428Y-250650000D02*
X333495000Y-250578571D01*
X333352142Y-250364285D01*
X333280714Y-250221428D01*
X333209285Y-250007142D01*
X333137857Y-249650000D01*
X333137857Y-249364285D01*
X333209285Y-249007142D01*
X333280714Y-248792857D01*
X333352142Y-248650000D01*
X333495000Y-248435714D01*
X333566428Y-248364285D01*
X334137857Y-250078571D02*
X334137857Y-249078571D01*
X334137857Y-248578571D02*
X334066428Y-248650000D01*
X334137857Y-248721428D01*
X334209285Y-248650000D01*
X334137857Y-248578571D01*
X334137857Y-248721428D01*
X334780714Y-250007142D02*
X334923571Y-250078571D01*
X335209285Y-250078571D01*
X335352142Y-250007142D01*
X335423571Y-249864285D01*
X335423571Y-249792857D01*
X335352142Y-249650000D01*
X335209285Y-249578571D01*
X334995000Y-249578571D01*
X334852142Y-249507142D01*
X334780714Y-249364285D01*
X334780714Y-249292857D01*
X334852142Y-249150000D01*
X334995000Y-249078571D01*
X335209285Y-249078571D01*
X335352142Y-249150000D01*
X336066428Y-250078571D02*
X336066428Y-248578571D01*
X336209285Y-249507142D02*
X336637857Y-250078571D01*
X336637857Y-249078571D02*
X336066428Y-249650000D01*
X337852142Y-250007142D02*
X337709285Y-250078571D01*
X337423571Y-250078571D01*
X337280714Y-250007142D01*
X337209285Y-249864285D01*
X337209285Y-249292857D01*
X337280714Y-249150000D01*
X337423571Y-249078571D01*
X337709285Y-249078571D01*
X337852142Y-249150000D01*
X337923571Y-249292857D01*
X337923571Y-249435714D01*
X337209285Y-249578571D01*
X338566428Y-249078571D02*
X338566428Y-250078571D01*
X338566428Y-249221428D02*
X338637857Y-249150000D01*
X338780714Y-249078571D01*
X338995000Y-249078571D01*
X339137857Y-249150000D01*
X339209285Y-249292857D01*
X339209285Y-250078571D01*
X340566428Y-250078571D02*
X340566428Y-248578571D01*
X340566428Y-250007142D02*
X340423571Y-250078571D01*
X340137857Y-250078571D01*
X339995000Y-250007142D01*
X339923571Y-249935714D01*
X339852142Y-249792857D01*
X339852142Y-249364285D01*
X339923571Y-249221428D01*
X339995000Y-249150000D01*
X340137857Y-249078571D01*
X340423571Y-249078571D01*
X340566428Y-249150000D01*
X341852142Y-250007142D02*
X341709285Y-250078571D01*
X341423571Y-250078571D01*
X341280714Y-250007142D01*
X341209285Y-249864285D01*
X341209285Y-249292857D01*
X341280714Y-249150000D01*
X341423571Y-249078571D01*
X341709285Y-249078571D01*
X341852142Y-249150000D01*
X341923571Y-249292857D01*
X341923571Y-249435714D01*
X341209285Y-249578571D01*
X342566428Y-250078571D02*
X342566428Y-249078571D01*
X342566428Y-249364285D02*
X342637857Y-249221428D01*
X342709285Y-249150000D01*
X342852142Y-249078571D01*
X342995000Y-249078571D01*
X343495000Y-249935714D02*
X343566428Y-250007142D01*
X343495000Y-250078571D01*
X343423571Y-250007142D01*
X343495000Y-249935714D01*
X343495000Y-250078571D01*
X344780714Y-250007142D02*
X344637857Y-250078571D01*
X344352142Y-250078571D01*
X344209285Y-250007142D01*
X344137857Y-249864285D01*
X344137857Y-249292857D01*
X344209285Y-249150000D01*
X344352142Y-249078571D01*
X344637857Y-249078571D01*
X344780714Y-249150000D01*
X344852142Y-249292857D01*
X344852142Y-249435714D01*
X344137857Y-249578571D01*
X346066428Y-250007142D02*
X345923571Y-250078571D01*
X345637857Y-250078571D01*
X345495000Y-250007142D01*
X345423571Y-249864285D01*
X345423571Y-249292857D01*
X345495000Y-249150000D01*
X345637857Y-249078571D01*
X345923571Y-249078571D01*
X346066428Y-249150000D01*
X346137857Y-249292857D01*
X346137857Y-249435714D01*
X345423571Y-249578571D01*
X346637857Y-250650000D02*
X346709285Y-250578571D01*
X346852142Y-250364285D01*
X346923571Y-250221428D01*
X346995000Y-250007142D01*
X347066428Y-249650000D01*
X347066428Y-249364285D01*
X346995000Y-249007142D01*
X346923571Y-248792857D01*
X346852142Y-248650000D01*
X346709285Y-248435714D01*
X346637857Y-248364285D01*
D10*
D11*
X314089285Y-247078571D02*
X313589285Y-246364285D01*
X313232142Y-247078571D02*
X313232142Y-245578571D01*
X313803571Y-245578571D01*
X313946428Y-245650000D01*
X314017857Y-245721428D01*
X314089285Y-245864285D01*
X314089285Y-246078571D01*
X314017857Y-246221428D01*
X313946428Y-246292857D01*
X313803571Y-246364285D01*
X313232142Y-246364285D01*
X315303571Y-247007142D02*
X315160714Y-247078571D01*
X314875000Y-247078571D01*
X314732142Y-247007142D01*
X314660714Y-246864285D01*
X314660714Y-246292857D01*
X314732142Y-246150000D01*
X314875000Y-246078571D01*
X315160714Y-246078571D01*
X315303571Y-246150000D01*
X315375000Y-246292857D01*
X315375000Y-246435714D01*
X314660714Y-246578571D01*
X316232142Y-247078571D02*
X316089285Y-247007142D01*
X316017857Y-246864285D01*
X316017857Y-245578571D01*
X317375000Y-247007142D02*
X317232142Y-247078571D01*
X316946428Y-247078571D01*
X316803571Y-247007142D01*
X316732142Y-246864285D01*
X316732142Y-246292857D01*
X316803571Y-246150000D01*
X316946428Y-246078571D01*
X317232142Y-246078571D01*
X317375000Y-246150000D01*
X317446428Y-246292857D01*
X317446428Y-246435714D01*
X316732142Y-246578571D01*
X318732142Y-247078571D02*
X318732142Y-246292857D01*
X318660714Y-246150000D01*
X318517857Y-246078571D01*
X318232142Y-246078571D01*
X318089285Y-246150000D01*
X318732142Y-247007142D02*
X318589285Y-247078571D01*
X318232142Y-247078571D01*
X318089285Y-247007142D01*
X318017857Y-246864285D01*
X318017857Y-246721428D01*
X318089285Y-246578571D01*
X318232142Y-246507142D01*
X318589285Y-246507142D01*
X318732142Y-246435714D01*
X319375000Y-247007142D02*
X319517857Y-247078571D01*
X319803571Y-247078571D01*
X319946428Y-247007142D01*
X320017857Y-246864285D01*
X320017857Y-246792857D01*
X319946428Y-246650000D01*
X319803571Y-246578571D01*
X319589285Y-246578571D01*
X319446428Y-246507142D01*
X319375000Y-246364285D01*
X319375000Y-246292857D01*
X319446428Y-246150000D01*
X319589285Y-246078571D01*
X319803571Y-246078571D01*
X319946428Y-246150000D01*
X321232142Y-247007142D02*
X321089285Y-247078571D01*
X320803571Y-247078571D01*
X320660714Y-247007142D01*
X320589285Y-246864285D01*
X320589285Y-246292857D01*
X320660714Y-246150000D01*
X320803571Y-246078571D01*
X321089285Y-246078571D01*
X321232142Y-246150000D01*
X321303571Y-246292857D01*
X321303571Y-246435714D01*
X320589285Y-246578571D01*
X322589285Y-247078571D02*
X322589285Y-245578571D01*
X322589285Y-247007142D02*
X322446428Y-247078571D01*
X322160714Y-247078571D01*
X322017857Y-247007142D01*
X321946428Y-246935714D01*
X321875000Y-246792857D01*
X321875000Y-246364285D01*
X321946428Y-246221428D01*
X322017857Y-246150000D01*
X322160714Y-246078571D01*
X322446428Y-246078571D01*
X322589285Y-246150000D01*
X325089285Y-246078571D02*
X325089285Y-247078571D01*
X324446428Y-246078571D02*
X324446428Y-246864285D01*
X324517857Y-247007142D01*
X324660714Y-247078571D01*
X324875000Y-247078571D01*
X325017857Y-247007142D01*
X325089285Y-246935714D01*
X325803571Y-246078571D02*
X325803571Y-247078571D01*
X325803571Y-246221428D02*
X325875000Y-246150000D01*
X326017857Y-246078571D01*
X326232142Y-246078571D01*
X326375000Y-246150000D01*
X326446428Y-246292857D01*
X326446428Y-247078571D01*
X327803571Y-247078571D02*
X327803571Y-245578571D01*
X327803571Y-247007142D02*
X327660714Y-247078571D01*
X327375000Y-247078571D01*
X327232142Y-247007142D01*
X327160714Y-246935714D01*
X327089285Y-246792857D01*
X327089285Y-246364285D01*
X327160714Y-246221428D01*
X327232142Y-246150000D01*
X327375000Y-246078571D01*
X327660714Y-246078571D01*
X327803571Y-246150000D01*
X329089285Y-247007142D02*
X328946428Y-247078571D01*
X328660714Y-247078571D01*
X328517857Y-247007142D01*
X328446428Y-246864285D01*
X328446428Y-246292857D01*
X328517857Y-246150000D01*
X328660714Y-246078571D01*
X328946428Y-246078571D01*
X329089285Y-246150000D01*
X329160714Y-246292857D01*
X329160714Y-246435714D01*
X328446428Y-246578571D01*
X329803571Y-247078571D02*
X329803571Y-246078571D01*
X329803571Y-246364285D02*
X329875000Y-246221428D01*
X329946428Y-246150000D01*
X330089285Y-246078571D01*
X330232142Y-246078571D01*
X331803571Y-246650000D02*
X332517857Y-246650000D01*
X331660714Y-247078571D02*
X332160714Y-245578571D01*
X332660714Y-247078571D01*
X332946428Y-246078571D02*
X333517857Y-246078571D01*
X333160714Y-245578571D02*
X333160714Y-246864285D01*
X333232142Y-247007142D01*
X333375000Y-247078571D01*
X333517857Y-247078571D01*
X333803571Y-246078571D02*
X334375000Y-246078571D01*
X334017857Y-245578571D02*
X334017857Y-246864285D01*
X334089285Y-247007142D01*
X334232142Y-247078571D01*
X334375000Y-247078571D01*
X334875000Y-247078571D02*
X334875000Y-246078571D01*
X334875000Y-246364285D02*
X334946428Y-246221428D01*
X335017857Y-246150000D01*
X335160714Y-246078571D01*
X335303571Y-246078571D01*
X335803571Y-247078571D02*
X335803571Y-246078571D01*
X335803571Y-245578571D02*
X335732142Y-245650000D01*
X335803571Y-245721428D01*
X335875000Y-245650000D01*
X335803571Y-245578571D01*
X335803571Y-245721428D01*
X336517857Y-247078571D02*
X336517857Y-245578571D01*
X336517857Y-246150000D02*
X336660714Y-246078571D01*
X336946428Y-246078571D01*
X337089285Y-246150000D01*
X337160714Y-246221428D01*
X337232142Y-246364285D01*
X337232142Y-246792857D01*
X337160714Y-246935714D01*
X337089285Y-247007142D01*
X336946428Y-247078571D01*
X336660714Y-247078571D01*
X336517857Y-247007142D01*
X338517857Y-246078571D02*
X338517857Y-247078571D01*
X337875000Y-246078571D02*
X337875000Y-246864285D01*
X337946428Y-247007142D01*
X338089285Y-247078571D01*
X338303571Y-247078571D01*
X338446428Y-247007142D01*
X338517857Y-246935714D01*
X339017857Y-246078571D02*
X339589285Y-246078571D01*
X339232142Y-245578571D02*
X339232142Y-246864285D01*
X339303571Y-247007142D01*
X339446428Y-247078571D01*
X339589285Y-247078571D01*
X340089285Y-247078571D02*
X340089285Y-246078571D01*
X340089285Y-245578571D02*
X340017857Y-245650000D01*
X340089285Y-245721428D01*
X340160714Y-245650000D01*
X340089285Y-245578571D01*
X340089285Y-245721428D01*
X341017857Y-247078571D02*
X340875000Y-247007142D01*
X340803571Y-246935714D01*
X340732142Y-246792857D01*
X340732142Y-246364285D01*
X340803571Y-246221428D01*
X340875000Y-246150000D01*
X341017857Y-246078571D01*
X341232142Y-246078571D01*
X341375000Y-246150000D01*
X341446428Y-246221428D01*
X341517857Y-246364285D01*
X341517857Y-246792857D01*
X341446428Y-246935714D01*
X341375000Y-247007142D01*
X341232142Y-247078571D01*
X341017857Y-247078571D01*
X342160714Y-246078571D02*
X342160714Y-247078571D01*
X342160714Y-246221428D02*
X342232142Y-246150000D01*
X342375000Y-246078571D01*
X342589285Y-246078571D01*
X342732142Y-246150000D01*
X342803571Y-246292857D01*
X342803571Y-247078571D01*
X343517857Y-246507142D02*
X344660714Y-246507142D01*
X345303571Y-247007142D02*
X345517857Y-247078571D01*
X345875000Y-247078571D01*
X346017857Y-247007142D01*
X346089285Y-246935714D01*
X346160714Y-246792857D01*
X346160714Y-246650000D01*
X346089285Y-246507142D01*
X346017857Y-246435714D01*
X345875000Y-246364285D01*
X345589285Y-246292857D01*
X345446428Y-246221428D01*
X345375000Y-246150000D01*
X345303571Y-246007142D01*
X345303571Y-245864285D01*
X345375000Y-245721428D01*
X345446428Y-245650000D01*
X345589285Y-245578571D01*
X345946428Y-245578571D01*
X346160714Y-245650000D01*
X346803571Y-247078571D02*
X346803571Y-245578571D01*
X347446428Y-247078571D02*
X347446428Y-246292857D01*
X347375000Y-246150000D01*
X347232142Y-246078571D01*
X347017857Y-246078571D01*
X346875000Y-246150000D01*
X346803571Y-246221428D01*
X348803571Y-247078571D02*
X348803571Y-246292857D01*
X348732142Y-246150000D01*
X348589285Y-246078571D01*
X348303571Y-246078571D01*
X348160714Y-246150000D01*
X348803571Y-247007142D02*
X348660714Y-247078571D01*
X348303571Y-247078571D01*
X348160714Y-247007142D01*
X348089285Y-246864285D01*
X348089285Y-246721428D01*
X348160714Y-246578571D01*
X348303571Y-246507142D01*
X348660714Y-246507142D01*
X348803571Y-246435714D01*
X349517857Y-247078571D02*
X349517857Y-246078571D01*
X349517857Y-246364285D02*
X349589285Y-246221428D01*
X349660714Y-246150000D01*
X349803571Y-246078571D01*
X349946428Y-246078571D01*
X351017857Y-247007142D02*
X350875000Y-247078571D01*
X350589285Y-247078571D01*
X350446428Y-247007142D01*
X350375000Y-246864285D01*
X350375000Y-246292857D01*
X350446428Y-246150000D01*
X350589285Y-246078571D01*
X350875000Y-246078571D01*
X351017857Y-246150000D01*
X351089285Y-246292857D01*
X351089285Y-246435714D01*
X350375000Y-246578571D01*
X351660714Y-246650000D02*
X352375000Y-246650000D01*
X351517857Y-247078571D02*
X352017857Y-245578571D01*
X352517857Y-247078571D01*
X353232142Y-247078571D02*
X353089285Y-247007142D01*
X353017857Y-246864285D01*
X353017857Y-245578571D01*
X353803571Y-247078571D02*
X353803571Y-246078571D01*
X353803571Y-245578571D02*
X353732142Y-245650000D01*
X353803571Y-245721428D01*
X353875000Y-245650000D01*
X353803571Y-245578571D01*
X353803571Y-245721428D01*
X354517857Y-247078571D02*
X354517857Y-245578571D01*
X354660714Y-246507142D02*
X355089285Y-247078571D01*
X355089285Y-246078571D02*
X354517857Y-246650000D01*
X356303571Y-247007142D02*
X356160714Y-247078571D01*
X355875000Y-247078571D01*
X355732142Y-247007142D01*
X355660714Y-246864285D01*
X355660714Y-246292857D01*
X355732142Y-246150000D01*
X355875000Y-246078571D01*
X356160714Y-246078571D01*
X356303571Y-246150000D01*
X356375000Y-246292857D01*
X356375000Y-246435714D01*
X355660714Y-246578571D01*
X358803571Y-246078571D02*
X358803571Y-247078571D01*
X358446428Y-245507142D02*
X358089285Y-246578571D01*
X359017857Y-246578571D01*
X359589285Y-246935714D02*
X359660714Y-247007142D01*
X359589285Y-247078571D01*
X359517857Y-247007142D01*
X359589285Y-246935714D01*
X359589285Y-247078571D01*
X360589285Y-245578571D02*
X360732142Y-245578571D01*
X360875000Y-245650000D01*
X360946428Y-245721428D01*
X361017857Y-245864285D01*
X361089285Y-246150000D01*
X361089285Y-246507142D01*
X361017857Y-246792857D01*
X360946428Y-246935714D01*
X360875000Y-247007142D01*
X360732142Y-247078571D01*
X360589285Y-247078571D01*
X360446428Y-247007142D01*
X360375000Y-246935714D01*
X360303571Y-246792857D01*
X360232142Y-246507142D01*
X360232142Y-246150000D01*
X360303571Y-245864285D01*
X360375000Y-245721428D01*
X360446428Y-245650000D01*
X360589285Y-245578571D01*
X362875000Y-247078571D02*
X362875000Y-245578571D01*
X363589285Y-246078571D02*
X363589285Y-247078571D01*
X363589285Y-246221428D02*
X363660714Y-246150000D01*
X363803571Y-246078571D01*
X364017857Y-246078571D01*
X364160714Y-246150000D01*
X364232142Y-246292857D01*
X364232142Y-247078571D01*
X364732142Y-246078571D02*
X365303571Y-246078571D01*
X364946428Y-245578571D02*
X364946428Y-246864285D01*
X365017857Y-247007142D01*
X365160714Y-247078571D01*
X365303571Y-247078571D01*
X366375000Y-247007142D02*
X366232142Y-247078571D01*
X365946428Y-247078571D01*
X365803571Y-247007142D01*
X365732142Y-246864285D01*
X365732142Y-246292857D01*
X365803571Y-246150000D01*
X365946428Y-246078571D01*
X366232142Y-246078571D01*
X366375000Y-246150000D01*
X366446428Y-246292857D01*
X366446428Y-246435714D01*
X365732142Y-246578571D01*
X367089285Y-247078571D02*
X367089285Y-246078571D01*
X367089285Y-246364285D02*
X367160714Y-246221428D01*
X367232142Y-246150000D01*
X367375000Y-246078571D01*
X367517857Y-246078571D01*
X368017857Y-246078571D02*
X368017857Y-247078571D01*
X368017857Y-246221428D02*
X368089285Y-246150000D01*
X368232142Y-246078571D01*
X368446428Y-246078571D01*
X368589285Y-246150000D01*
X368660714Y-246292857D01*
X368660714Y-247078571D01*
X370017857Y-247078571D02*
X370017857Y-246292857D01*
X369946428Y-246150000D01*
X369803571Y-246078571D01*
X369517857Y-246078571D01*
X369375000Y-246150000D01*
X370017857Y-247007142D02*
X369875000Y-247078571D01*
X369517857Y-247078571D01*
X369375000Y-247007142D01*
X369303571Y-246864285D01*
X369303571Y-246721428D01*
X369375000Y-246578571D01*
X369517857Y-246507142D01*
X369875000Y-246507142D01*
X370017857Y-246435714D01*
X370517857Y-246078571D02*
X371089285Y-246078571D01*
X370732142Y-245578571D02*
X370732142Y-246864285D01*
X370803571Y-247007142D01*
X370946428Y-247078571D01*
X371089285Y-247078571D01*
X371589285Y-247078571D02*
X371589285Y-246078571D01*
X371589285Y-245578571D02*
X371517857Y-245650000D01*
X371589285Y-245721428D01*
X371660714Y-245650000D01*
X371589285Y-245578571D01*
X371589285Y-245721428D01*
X372517857Y-247078571D02*
X372375000Y-247007142D01*
X372303571Y-246935714D01*
X372232142Y-246792857D01*
X372232142Y-246364285D01*
X372303571Y-246221428D01*
X372375000Y-246150000D01*
X372517857Y-246078571D01*
X372732142Y-246078571D01*
X372875000Y-246150000D01*
X372946428Y-246221428D01*
X373017857Y-246364285D01*
X373017857Y-246792857D01*
X372946428Y-246935714D01*
X372875000Y-247007142D01*
X372732142Y-247078571D01*
X372517857Y-247078571D01*
X373660714Y-246078571D02*
X373660714Y-247078571D01*
X373660714Y-246221428D02*
X373732142Y-246150000D01*
X373875000Y-246078571D01*
X374089285Y-246078571D01*
X374232142Y-246150000D01*
X374303571Y-246292857D01*
X374303571Y-247078571D01*
X375660714Y-247078571D02*
X375660714Y-246292857D01*
X375589285Y-246150000D01*
X375446428Y-246078571D01*
X375160714Y-246078571D01*
X375017857Y-246150000D01*
X375660714Y-247007142D02*
X375517857Y-247078571D01*
X375160714Y-247078571D01*
X375017857Y-247007142D01*
X374946428Y-246864285D01*
X374946428Y-246721428D01*
X375017857Y-246578571D01*
X375160714Y-246507142D01*
X375517857Y-246507142D01*
X375660714Y-246435714D01*
X376589285Y-247078571D02*
X376446428Y-247007142D01*
X376375000Y-246864285D01*
X376375000Y-245578571D01*
X379017857Y-247078571D02*
X378303571Y-247078571D01*
X378303571Y-245578571D01*
X379517857Y-247078571D02*
X379517857Y-246078571D01*
X379517857Y-245578571D02*
X379446428Y-245650000D01*
X379517857Y-245721428D01*
X379589285Y-245650000D01*
X379517857Y-245578571D01*
X379517857Y-245721428D01*
X380875000Y-247007142D02*
X380732142Y-247078571D01*
X380446428Y-247078571D01*
X380303571Y-247007142D01*
X380232142Y-246935714D01*
X380160714Y-246792857D01*
X380160714Y-246364285D01*
X380232142Y-246221428D01*
X380303571Y-246150000D01*
X380446428Y-246078571D01*
X380732142Y-246078571D01*
X380875000Y-246150000D01*
X382089285Y-247007142D02*
X381946428Y-247078571D01*
X381660714Y-247078571D01*
X381517857Y-247007142D01*
X381446428Y-246864285D01*
X381446428Y-246292857D01*
X381517857Y-246150000D01*
X381660714Y-246078571D01*
X381946428Y-246078571D01*
X382089285Y-246150000D01*
X382160714Y-246292857D01*
X382160714Y-246435714D01*
X381446428Y-246578571D01*
X382803571Y-246078571D02*
X382803571Y-247078571D01*
X382803571Y-246221428D02*
X382875000Y-246150000D01*
X383017857Y-246078571D01*
X383232142Y-246078571D01*
X383375000Y-246150000D01*
X383446428Y-246292857D01*
X383446428Y-247078571D01*
X384089285Y-247007142D02*
X384232142Y-247078571D01*
X384517857Y-247078571D01*
X384660714Y-247007142D01*
X384732142Y-246864285D01*
X384732142Y-246792857D01*
X384660714Y-246650000D01*
X384517857Y-246578571D01*
X384303571Y-246578571D01*
X384160714Y-246507142D01*
X384089285Y-246364285D01*
X384089285Y-246292857D01*
X384160714Y-246150000D01*
X384303571Y-246078571D01*
X384517857Y-246078571D01*
X384660714Y-246150000D01*
X385946428Y-247007142D02*
X385803571Y-247078571D01*
X385517857Y-247078571D01*
X385375000Y-247007142D01*
X385303571Y-246864285D01*
X385303571Y-246292857D01*
X385375000Y-246150000D01*
X385517857Y-246078571D01*
X385803571Y-246078571D01*
X385946428Y-246150000D01*
X386017857Y-246292857D01*
X386017857Y-246435714D01*
X385303571Y-246578571D01*
D10*
D11*
X331800000Y-260900000D02*
X331800000Y-263900000D01*
D10*
D11*
X395800000Y-260900000D02*
X395800000Y-267400000D01*
X179754761Y-247738095D02*
X179992857Y-247500000D01*
X180469047Y-247261904D01*
X181659523Y-247261904D01*
X182135714Y-247500000D01*
X182373809Y-247738095D01*
X182611904Y-248214285D01*
X182611904Y-248690476D01*
X182373809Y-249404761D01*
X179516666Y-252261904D01*
X182611904Y-252261904D01*
X184278571Y-247261904D02*
X187611904Y-247261904D01*
X185469047Y-252261904D01*
X191897619Y-247261904D02*
X189516666Y-247261904D01*
X189278571Y-249642857D01*
X189516666Y-249404761D01*
X189992857Y-249166666D01*
X191183333Y-249166666D01*
X191659523Y-249404761D01*
X191897619Y-249642857D01*
X192135714Y-250119047D01*
X192135714Y-251309523D01*
X191897619Y-251785714D01*
X191659523Y-252023809D01*
X191183333Y-252261904D01*
X189992857Y-252261904D01*
X189516666Y-252023809D01*
X189278571Y-251785714D01*
X194278571Y-251785714D02*
X194516666Y-252023809D01*
X194278571Y-252261904D01*
X194040476Y-252023809D01*
X194278571Y-251785714D01*
X194278571Y-252261904D01*
X199040476Y-247261904D02*
X196659523Y-247261904D01*
X196421428Y-249642857D01*
X196659523Y-249404761D01*
X197135714Y-249166666D01*
X198326190Y-249166666D01*
X198802380Y-249404761D01*
X199040476Y-249642857D01*
X199278571Y-250119047D01*
X199278571Y-251309523D01*
X199040476Y-251785714D01*
X198802380Y-252023809D01*
X198326190Y-252261904D01*
X197135714Y-252261904D01*
X196659523Y-252023809D01*
X196421428Y-251785714D01*
X202373809Y-247261904D02*
X202850000Y-247261904D01*
X203326190Y-247500000D01*
X203564285Y-247738095D01*
X203802380Y-248214285D01*
X204040476Y-249166666D01*
X204040476Y-250357142D01*
X203802380Y-251309523D01*
X203564285Y-251785714D01*
X203326190Y-252023809D01*
X202850000Y-252261904D01*
X202373809Y-252261904D01*
X201897619Y-252023809D01*
X201659523Y-251785714D01*
X201421428Y-251309523D01*
X201183333Y-250357142D01*
X201183333Y-249166666D01*
X201421428Y-248214285D01*
X201659523Y-247738095D01*
X201897619Y-247500000D01*
X202373809Y-247261904D01*
X207135714Y-247261904D02*
X207611904Y-247261904D01*
X208088095Y-247500000D01*
X208326190Y-247738095D01*
X208564285Y-248214285D01*
X208802380Y-249166666D01*
X208802380Y-250357142D01*
X208564285Y-251309523D01*
X208326190Y-251785714D01*
X208088095Y-252023809D01*
X207611904Y-252261904D01*
X207135714Y-252261904D01*
X206659523Y-252023809D01*
X206421428Y-251785714D01*
X206183333Y-251309523D01*
X205945238Y-250357142D01*
X205945238Y-249166666D01*
X206183333Y-248214285D01*
X206421428Y-247738095D01*
X206659523Y-247500000D01*
X207135714Y-247261904D01*
X214754761Y-252261904D02*
X214754761Y-248928571D01*
X214754761Y-249404761D02*
X214992857Y-249166666D01*
X215469047Y-248928571D01*
X216183333Y-248928571D01*
X216659523Y-249166666D01*
X216897619Y-249642857D01*
X216897619Y-252261904D01*
X216897619Y-249642857D02*
X217135714Y-249166666D01*
X217611904Y-248928571D01*
X218326190Y-248928571D01*
X218802380Y-249166666D01*
X219040476Y-249642857D01*
X219040476Y-252261904D01*
X221421428Y-252261904D02*
X221421428Y-248928571D01*
X221421428Y-249404761D02*
X221659523Y-249166666D01*
X222135714Y-248928571D01*
X222850000Y-248928571D01*
X223326190Y-249166666D01*
X223564285Y-249642857D01*
X223564285Y-252261904D01*
X223564285Y-249642857D02*
X223802380Y-249166666D01*
X224278571Y-248928571D01*
X224992857Y-248928571D01*
X225469047Y-249166666D01*
X225707142Y-249642857D01*
X225707142Y-252261904D01*
X65100000Y-243800000D02*
X340600000Y-243800000D01*
X65100000Y-225500000D02*
X65100000Y-244386421D01*
X340600000Y-225500000D02*
X340600000Y-244386421D01*
X340600000Y-243800000D02*
X339473496Y-244386421D01*
X340600000Y-243800000D02*
X339473496Y-243213579D01*
X65100000Y-243800000D02*
X66226504Y-244386421D01*
X65100000Y-243800000D02*
X66226504Y-243213579D01*
X367738095Y-146795238D02*
X367500000Y-146557142D01*
X367261904Y-146080952D01*
X367261904Y-144890476D01*
X367500000Y-144414285D01*
X367738095Y-144176190D01*
X368214285Y-143938095D01*
X368690476Y-143938095D01*
X369404761Y-144176190D01*
X372261904Y-147033333D01*
X372261904Y-143938095D01*
X372261904Y-139176190D02*
X372261904Y-142033333D01*
X372261904Y-140604761D02*
X367261904Y-140604761D01*
X367976190Y-141080952D01*
X368452380Y-141557142D01*
X368690476Y-142033333D01*
X367738095Y-137271428D02*
X367500000Y-137033333D01*
X367261904Y-136557142D01*
X367261904Y-135366666D01*
X367500000Y-134890476D01*
X367738095Y-134652380D01*
X368214285Y-134414285D01*
X368690476Y-134414285D01*
X369404761Y-134652380D01*
X372261904Y-137509523D01*
X372261904Y-134414285D01*
X371785714Y-132271428D02*
X372023809Y-132033333D01*
X372261904Y-132271428D01*
X372023809Y-132509523D01*
X371785714Y-132271428D01*
X372261904Y-132271428D01*
X368928571Y-127747619D02*
X372261904Y-127747619D01*
X367023809Y-128938095D02*
X370595238Y-130128571D01*
X370595238Y-127033333D01*
X367261904Y-124176190D02*
X367261904Y-123700000D01*
X367500000Y-123223809D01*
X367738095Y-122985714D01*
X368214285Y-122747619D01*
X369166666Y-122509523D01*
X370357142Y-122509523D01*
X371309523Y-122747619D01*
X371785714Y-122985714D01*
X372023809Y-123223809D01*
X372261904Y-123700000D01*
X372261904Y-124176190D01*
X372023809Y-124652380D01*
X371785714Y-124890476D01*
X371309523Y-125128571D01*
X370357142Y-125366666D01*
X369166666Y-125366666D01*
X368214285Y-125128571D01*
X367738095Y-124890476D01*
X367500000Y-124652380D01*
X367261904Y-124176190D01*
X367261904Y-119414285D02*
X367261904Y-118938095D01*
X367500000Y-118461904D01*
X367738095Y-118223809D01*
X368214285Y-117985714D01*
X369166666Y-117747619D01*
X370357142Y-117747619D01*
X371309523Y-117985714D01*
X371785714Y-118223809D01*
X372023809Y-118461904D01*
X372261904Y-118938095D01*
X372261904Y-119414285D01*
X372023809Y-119890476D01*
X371785714Y-120128571D01*
X371309523Y-120366666D01*
X370357142Y-120604761D01*
X369166666Y-120604761D01*
X368214285Y-120366666D01*
X367738095Y-120128571D01*
X367500000Y-119890476D01*
X367261904Y-119414285D01*
X372261904Y-111795238D02*
X368928571Y-111795238D01*
X369404761Y-111795238D02*
X369166666Y-111557142D01*
X368928571Y-111080952D01*
X368928571Y-110366666D01*
X369166666Y-109890476D01*
X369642857Y-109652380D01*
X372261904Y-109652380D01*
X369642857Y-109652380D02*
X369166666Y-109414285D01*
X368928571Y-108938095D01*
X368928571Y-108223809D01*
X369166666Y-107747619D01*
X369642857Y-107509523D01*
X372261904Y-107509523D01*
X372261904Y-105128571D02*
X368928571Y-105128571D01*
X369404761Y-105128571D02*
X369166666Y-104890476D01*
X368928571Y-104414285D01*
X368928571Y-103700000D01*
X369166666Y-103223809D01*
X369642857Y-102985714D01*
X372261904Y-102985714D01*
X369642857Y-102985714D02*
X369166666Y-102747619D01*
X368928571Y-102271428D01*
X368928571Y-101557142D01*
X369166666Y-101080952D01*
X369642857Y-100842857D01*
X372261904Y-100842857D01*
X364700000Y-229900000D02*
X364700000Y-17500000D01*
X337700000Y-229900000D02*
X365286421Y-229900000D01*
X337700000Y-17500000D02*
X365286421Y-17500000D01*
X364700000Y-17500000D02*
X365286421Y-18626504D01*
X364700000Y-17500000D02*
X364113579Y-18626504D01*
X364700000Y-229900000D02*
X365286421Y-228773496D01*
X364700000Y-229900000D02*
X364113579Y-228773496D01*
D10*
G36*
X280000000Y-170000000D02*
G01*
X130000000Y-170000000D01*
X130000000Y-70000000D01*
X280000000Y-70000000D01*
X280000000Y-170000000D01*
G37*
X280000000Y-170000000D02*
X130000000Y-170000000D01*
X130000000Y-70000000D01*
X280000000Y-70000000D01*
X280000000Y-170000000D01*
M02*
